STARTFONT 2.1
COMMENT 
COMMENT Converted from TrueType font "Junicode-Regular.ttf" by "TTF2BDF 2.6".
COMMENT 
FONT -FreeType-Junicode-Medium-R-Normal--15-110-100-100-P-77-ISO10646-1
SIZE 11 100 100
FONTBOUNDINGBOX 31 23 -10 -6
STARTPROPERTIES 20
FOUNDRY "FreeType"
FAMILY_NAME "Junicode"
WEIGHT_NAME "Medium"
SLANT "R"
SETWIDTH_NAME "Normal"
ADD_STYLE_NAME ""
PIXEL_SIZE 15
POINT_SIZE 110
RESOLUTION_X 100
RESOLUTION_Y 100
SPACING "P"
AVERAGE_WIDTH 77
CHARSET_REGISTRY "ISO10646"
CHARSET_ENCODING "1"
FONT_ASCENT 11
FONT_DESCENT 3
COPYRIGHT "Copyright (c) 1998-2007 by Peter S. Baker"
_TTF_FONTFILE "Junicode-Regular.ttf"
_TTF_PSNAME "Junicode-Regular"
_GBDFED_INFO "Edited with gbdfed 1.5."
ENDPROPERTIES
CHARS 2751
STARTCHAR 0000
ENCODING 0
SWIDTH 0 0
DWIDTH 0 0
BBX 0 0 0 0
BITMAP
ENDCHAR
STARTCHAR 000C
ENCODING 12
SWIDTH 327 0
DWIDTH 5 0
BBX 0 0 0 0
BITMAP
ENDCHAR
STARTCHAR 0020
ENCODING 32
SWIDTH 261 0
DWIDTH 4 0
BBX 0 0 0 0
BITMAP
ENDCHAR
STARTCHAR 0021
ENCODING 33
SWIDTH 196 0
DWIDTH 3 0
BBX 2 10 0 0
BITMAP
C0
C0
C0
80
80
80
00
00
00
C0
ENDCHAR
STARTCHAR 0022
ENCODING 34
SWIDTH 261 0
DWIDTH 4 0
BBX 3 4 0 7
BITMAP
A0
A0
A0
A0
ENDCHAR
STARTCHAR 0023
ENCODING 35
SWIDTH 589 0
DWIDTH 9 0
BBX 8 9 0 0
BITMAP
12
12
7F
24
24
FE
48
48
48
ENDCHAR
STARTCHAR 0024
ENCODING 36
SWIDTH 392 0
DWIDTH 6 0
BBX 6 12 0 -1
BITMAP
20
78
A8
A0
A0
70
38
2C
24
A8
78
20
ENDCHAR
STARTCHAR 0025
ENCODING 37
SWIDTH 785 0
DWIDTH 12 0
BBX 11 10 0 0
BITMAP
6080
9100
9100
9200
94C0
6520
0920
0920
1120
20C0
ENDCHAR
STARTCHAR 0026
ENCODING 38
SWIDTH 785 0
DWIDTH 12 0
BBX 11 10 0 0
BITMAP
3800
4800
4800
31E0
5880
8900
8600
8200
8700
79E0
ENDCHAR
STARTCHAR 0027
ENCODING 39
SWIDTH 261 0
DWIDTH 4 0
BBX 1 4 1 7
BITMAP
80
80
80
80
ENDCHAR
STARTCHAR 0028
ENCODING 40
SWIDTH 327 0
DWIDTH 5 0
BBX 4 13 0 -3
BITMAP
20
40
40
80
80
80
80
80
40
40
40
20
10
ENDCHAR
STARTCHAR 0029
ENCODING 41
SWIDTH 327 0
DWIDTH 5 0
BBX 4 14 0 -3
BITMAP
80
40
20
20
10
10
10
10
10
20
20
40
40
80
ENDCHAR
STARTCHAR 002A
ENCODING 42
SWIDTH 327 0
DWIDTH 5 0
BBX 4 3 0 6
BITMAP
D0
60
50
ENDCHAR
STARTCHAR 002B
ENCODING 43
SWIDTH 392 0
DWIDTH 6 0
BBX 5 5 0 1
BITMAP
20
20
F8
20
20
ENDCHAR
STARTCHAR 002C
ENCODING 44
SWIDTH 196 0
DWIDTH 3 0
BBX 2 4 0 -2
BITMAP
80
C0
40
80
ENDCHAR
STARTCHAR 002D
ENCODING 45
SWIDTH 458 0
DWIDTH 7 0
BBX 6 1 0 3
BITMAP
FC
ENDCHAR
STARTCHAR 002E
ENCODING 46
SWIDTH 196 0
DWIDTH 3 0
BBX 2 2 0 0
BITMAP
C0
C0
ENDCHAR
STARTCHAR 002F
ENCODING 47
SWIDTH 392 0
DWIDTH 6 0
BBX 5 11 0 0
BITMAP
08
08
10
10
10
20
20
40
40
80
80
ENDCHAR
STARTCHAR 0030
ENCODING 48
SWIDTH 392 0
DWIDTH 6 0
BBX 5 10 0 0
BITMAP
70
88
88
88
88
88
88
88
88
70
ENDCHAR
STARTCHAR 0031
ENCODING 49
SWIDTH 261 0
DWIDTH 4 0
BBX 3 10 0 0
BITMAP
40
C0
40
40
40
40
40
40
40
E0
ENDCHAR
STARTCHAR 0032
ENCODING 50
SWIDTH 458 0
DWIDTH 7 0
BBX 6 10 0 0
BITMAP
38
44
44
04
08
08
10
20
44
FC
ENDCHAR
STARTCHAR 0033
ENCODING 51
SWIDTH 392 0
DWIDTH 6 0
BBX 5 10 0 0
BITMAP
70
88
08
08
70
08
08
08
88
70
ENDCHAR
STARTCHAR 0034
ENCODING 52
SWIDTH 458 0
DWIDTH 7 0
BBX 6 11 0 0
BITMAP
04
08
08
10
28
48
48
FC
08
08
0C
ENDCHAR
STARTCHAR 0035
ENCODING 53
SWIDTH 392 0
DWIDTH 6 0
BBX 5 10 0 0
BITMAP
F8
80
80
80
F0
08
08
08
08
F0
ENDCHAR
STARTCHAR 0036
ENCODING 54
SWIDTH 392 0
DWIDTH 6 0
BBX 5 11 0 -1
BITMAP
10
20
40
40
B0
C8
88
88
88
50
20
ENDCHAR
STARTCHAR 0037
ENCODING 55
SWIDTH 458 0
DWIDTH 7 0
BBX 6 10 0 0
BITMAP
FC
88
08
10
10
10
20
20
40
40
ENDCHAR
STARTCHAR 0038
ENCODING 56
SWIDTH 392 0
DWIDTH 6 0
BBX 5 10 0 0
BITMAP
70
88
88
88
70
88
88
88
88
70
ENDCHAR
STARTCHAR 0039
ENCODING 57
SWIDTH 392 0
DWIDTH 6 0
BBX 5 10 0 0
BITMAP
70
88
88
88
88
78
08
10
20
40
ENDCHAR
STARTCHAR 003A
ENCODING 58
SWIDTH 196 0
DWIDTH 3 0
BBX 2 6 0 0
BITMAP
C0
C0
00
00
C0
C0
ENDCHAR
STARTCHAR 003B
ENCODING 59
SWIDTH 196 0
DWIDTH 3 0
BBX 2 9 0 -3
BITMAP
C0
C0
00
00
C0
40
40
40
80
ENDCHAR
STARTCHAR 003C
ENCODING 60
SWIDTH 458 0
DWIDTH 7 0
BBX 6 6 0 0
BITMAP
0C
30
C0
C0
30
0C
ENDCHAR
STARTCHAR 003D
ENCODING 61
SWIDTH 458 0
DWIDTH 7 0
BBX 6 3 0 2
BITMAP
FC
00
FC
ENDCHAR
STARTCHAR 003E
ENCODING 62
SWIDTH 392 0
DWIDTH 6 0
BBX 5 6 0 0
BITMAP
80
60
18
18
60
80
ENDCHAR
STARTCHAR 003F
ENCODING 63
SWIDTH 392 0
DWIDTH 6 0
BBX 5 10 0 0
BITMAP
70
88
88
08
30
20
20
00
20
20
ENDCHAR
STARTCHAR 0040
ENCODING 64
SWIDTH 720 0
DWIDTH 11 0
BBX 10 11 0 -1
BITMAP
1F00
6080
4240
8E40
9240
9440
BC80
8300
4000
3100
0E00
ENDCHAR
STARTCHAR 0041
ENCODING 65
SWIDTH 720 0
DWIDTH 11 0
BBX 10 10 0 0
BITMAP
0C00
0C00
1600
1200
1200
2300
3D00
2100
4180
E1C0
ENDCHAR
STARTCHAR 0042
ENCODING 66
SWIDTH 523 0
DWIDTH 8 0
BBX 7 10 0 0
BITMAP
F8
44
44
44
78
44
42
42
42
FC
ENDCHAR
STARTCHAR 0043
ENCODING 67
SWIDTH 589 0
DWIDTH 9 0
BBX 8 10 0 0
BITMAP
3E
41
80
80
80
80
80
80
41
3E
ENDCHAR
STARTCHAR 0044
ENCODING 68
SWIDTH 654 0
DWIDTH 10 0
BBX 9 10 0 0
BITMAP
FE00
4100
4080
4080
4080
4080
4080
4080
4100
FE00
ENDCHAR
STARTCHAR 0045
ENCODING 69
SWIDTH 523 0
DWIDTH 8 0
BBX 7 10 0 0
BITMAP
FE
42
40
40
40
78
40
40
42
FE
ENDCHAR
STARTCHAR 0046
ENCODING 70
SWIDTH 523 0
DWIDTH 8 0
BBX 7 10 0 0
BITMAP
FE
42
40
48
48
78
48
40
40
F0
ENDCHAR
STARTCHAR 0047
ENCODING 71
SWIDTH 654 0
DWIDTH 10 0
BBX 9 10 0 0
BITMAP
3F00
4100
C000
8000
8000
8000
8780
C100
4100
3F00
ENDCHAR
STARTCHAR 0048
ENCODING 72
SWIDTH 720 0
DWIDTH 11 0
BBX 10 10 0 0
BITMAP
F3C0
4080
4080
4080
4080
7F80
4080
4080
4080
E1C0
ENDCHAR
STARTCHAR 0049
ENCODING 73
SWIDTH 261 0
DWIDTH 4 0
BBX 3 10 0 0
BITMAP
E0
40
40
40
40
40
40
40
40
E0
ENDCHAR
STARTCHAR 004A
ENCODING 74
SWIDTH 327 0
DWIDTH 5 0
BBX 5 13 -1 -3
BITMAP
38
10
10
10
10
10
10
10
10
10
10
10
E0
ENDCHAR
STARTCHAR 004B
ENCODING 75
SWIDTH 654 0
DWIDTH 10 0
BBX 9 10 0 0
BITMAP
F700
4400
4800
5000
5000
7000
4800
4400
4600
E780
ENDCHAR
STARTCHAR 004C
ENCODING 76
SWIDTH 589 0
DWIDTH 9 0
BBX 8 10 0 0
BITMAP
F0
40
40
40
40
40
40
40
41
FF
ENDCHAR
STARTCHAR 004D
ENCODING 77
SWIDTH 850 0
DWIDTH 13 0
BBX 12 10 0 0
BITMAP
C030
6060
6060
70E0
5160
9160
8A60
8A60
8460
C4F0
ENDCHAR
STARTCHAR 004E
ENCODING 78
SWIDTH 720 0
DWIDTH 11 0
BBX 10 10 0 0
BITMAP
E1C0
7080
5880
4880
4480
4680
4380
4180
4080
E080
ENDCHAR
STARTCHAR 004F
ENCODING 79
SWIDTH 654 0
DWIDTH 10 0
BBX 9 10 0 0
BITMAP
3E00
4100
8080
8080
8080
8080
8080
8080
4100
3E00
ENDCHAR
STARTCHAR 0050
ENCODING 80
SWIDTH 523 0
DWIDTH 8 0
BBX 7 10 0 0
BITMAP
FC
42
42
42
42
7C
40
40
40
F0
ENDCHAR
STARTCHAR 0051
ENCODING 81
SWIDTH 785 0
DWIDTH 12 0
BBX 11 13 0 -3
BITMAP
3E00
4100
8080
8080
8080
8080
8080
8080
4100
3E00
0600
0180
0060
ENDCHAR
STARTCHAR 0052
ENCODING 82
SWIDTH 589 0
DWIDTH 9 0
BBX 8 10 0 0
BITMAP
FC
42
42
42
42
7C
48
44
42
E1
ENDCHAR
STARTCHAR 0053
ENCODING 83
SWIDTH 458 0
DWIDTH 7 0
BBX 6 10 0 0
BITMAP
78
84
80
80
60
18
04
04
84
78
ENDCHAR
STARTCHAR 0054
ENCODING 84
SWIDTH 785 0
DWIDTH 12 0
BBX 11 10 0 0
BITMAP
FFE0
8420
0400
0400
0400
0400
0400
0400
0400
0E00
ENDCHAR
STARTCHAR 0055
ENCODING 85
SWIDTH 654 0
DWIDTH 10 0
BBX 9 10 0 0
BITMAP
E380
4100
4100
4100
4100
4100
4100
4100
4100
3E00
ENDCHAR
STARTCHAR 0056
ENCODING 86
SWIDTH 720 0
DWIDTH 11 0
BBX 10 10 0 0
BITMAP
F1C0
6100
2100
2200
3200
1200
1400
1C00
0800
0800
ENDCHAR
STARTCHAR 0057
ENCODING 87
SWIDTH 1047 0
DWIDTH 16 0
BBX 15 10 0 0
BITMAP
EEEE
6688
2288
3310
1110
1110
0AA0
0AA0
04C0
0440
ENDCHAR
STARTCHAR 0058
ENCODING 88
SWIDTH 720 0
DWIDTH 11 0
BBX 10 10 0 0
BITMAP
F1C0
2100
1200
1C00
0800
0C00
1600
2200
4100
E3C0
ENDCHAR
STARTCHAR 0059
ENCODING 89
SWIDTH 654 0
DWIDTH 10 0
BBX 9 10 0 0
BITMAP
E380
6100
2200
1400
1400
0800
0800
0800
0800
1C00
ENDCHAR
STARTCHAR 005A
ENCODING 90
SWIDTH 589 0
DWIDTH 9 0
BBX 8 10 0 0
BITMAP
FF
82
04
0C
18
10
20
60
41
FF
ENDCHAR
STARTCHAR 005B
ENCODING 91
SWIDTH 196 0
DWIDTH 3 0
BBX 2 14 0 -3
BITMAP
C0
80
80
80
80
80
80
80
80
80
80
80
80
C0
ENDCHAR
STARTCHAR 005C
ENCODING 92
SWIDTH 392 0
DWIDTH 6 0
BBX 5 11 0 0
BITMAP
80
80
40
40
20
20
20
10
10
08
08
ENDCHAR
STARTCHAR 005D
ENCODING 93
SWIDTH 196 0
DWIDTH 3 0
BBX 2 14 0 -3
BITMAP
C0
40
40
40
40
40
40
40
40
40
40
40
40
C0
ENDCHAR
STARTCHAR 005E
ENCODING 94
SWIDTH 458 0
DWIDTH 7 0
BBX 6 6 0 4
BITMAP
30
30
48
48
48
84
ENDCHAR
STARTCHAR 005F
ENCODING 95
SWIDTH 589 0
DWIDTH 9 0
BBX 8 1 0 -2
BITMAP
FF
ENDCHAR
STARTCHAR 0060
ENCODING 96
SWIDTH 261 0
DWIDTH 4 0
BBX 1 2 1 8
BITMAP
80
80
ENDCHAR
STARTCHAR 0061
ENCODING 97
SWIDTH 392 0
DWIDTH 6 0
BBX 5 6 0 0
BITMAP
F0
10
30
D0
90
F8
ENDCHAR
STARTCHAR 0062
ENCODING 98
SWIDTH 458 0
DWIDTH 7 0
BBX 6 10 0 0
BITMAP
80
80
80
80
F8
84
84
84
84
F8
ENDCHAR
STARTCHAR 0063
ENCODING 99
SWIDTH 392 0
DWIDTH 6 0
BBX 5 6 0 0
BITMAP
70
88
80
80
88
70
ENDCHAR
STARTCHAR 0064
ENCODING 100
SWIDTH 458 0
DWIDTH 7 0
BBX 6 10 0 0
BITMAP
08
08
08
08
78
88
88
88
88
7C
ENDCHAR
STARTCHAR 0065
ENCODING 101
SWIDTH 392 0
DWIDTH 6 0
BBX 5 6 0 0
BITMAP
70
88
F8
80
88
70
ENDCHAR
STARTCHAR 0066
ENCODING 102
SWIDTH 392 0
DWIDTH 6 0
BBX 5 11 0 0
BITMAP
30
48
40
40
E0
40
40
40
40
40
40
ENDCHAR
STARTCHAR 0067
ENCODING 103
SWIDTH 523 0
DWIDTH 8 0
BBX 7 10 0 -4
BITMAP
7E
44
44
78
40
78
26
42
C4
78
ENDCHAR
STARTCHAR 0068
ENCODING 104
SWIDTH 523 0
DWIDTH 8 0
BBX 7 11 0 0
BITMAP
40
C0
40
40
40
78
44
44
44
44
EE
ENDCHAR
STARTCHAR 0069
ENCODING 105
SWIDTH 261 0
DWIDTH 4 0
BBX 3 9 0 0
BITMAP
40
00
00
40
C0
40
40
40
E0
ENDCHAR
STARTCHAR 006A
ENCODING 106
SWIDTH 196 0
DWIDTH 3 0
BBX 3 13 -1 -4
BITMAP
20
00
00
20
60
20
20
20
20
20
20
20
C0
ENDCHAR
STARTCHAR 006B
ENCODING 107
SWIDTH 458 0
DWIDTH 7 0
BBX 6 11 0 0
BITMAP
40
C0
40
40
40
48
50
60
50
48
E4
ENDCHAR
STARTCHAR 006C
ENCODING 108
SWIDTH 261 0
DWIDTH 4 0
BBX 3 11 0 0
BITMAP
40
C0
40
40
40
40
40
40
40
40
E0
ENDCHAR
STARTCHAR 006D
ENCODING 109
SWIDTH 720 0
DWIDTH 11 0
BBX 10 6 0 0
BITMAP
FF80
CCC0
CCC0
CCC0
CCC0
CCC0
ENDCHAR
STARTCHAR 006E
ENCODING 110
SWIDTH 458 0
DWIDTH 7 0
BBX 6 6 0 0
BITMAP
F8
CC
CC
CC
CC
CC
ENDCHAR
STARTCHAR 006F
ENCODING 111
SWIDTH 458 0
DWIDTH 7 0
BBX 6 6 0 0
BITMAP
78
84
84
84
84
78
ENDCHAR
STARTCHAR 0070
ENCODING 112
SWIDTH 458 0
DWIDTH 7 0
BBX 6 10 0 -4
BITMAP
F8
84
84
84
84
F8
80
80
80
80
ENDCHAR
STARTCHAR 0071
ENCODING 113
SWIDTH 392 0
DWIDTH 6 0
BBX 5 10 0 -4
BITMAP
78
88
88
88
88
78
08
08
08
08
ENDCHAR
STARTCHAR 0072
ENCODING 114
SWIDTH 327 0
DWIDTH 5 0
BBX 4 6 0 0
BITMAP
B0
C0
80
80
80
80
ENDCHAR
STARTCHAR 0073
ENCODING 115
SWIDTH 327 0
DWIDTH 5 0
BBX 4 6 0 0
BITMAP
70
80
60
10
10
E0
ENDCHAR
STARTCHAR 0074
ENCODING 116
SWIDTH 327 0
DWIDTH 5 0
BBX 4 7 0 0
BITMAP
40
E0
40
40
40
50
20
ENDCHAR
STARTCHAR 0075
ENCODING 117
SWIDTH 458 0
DWIDTH 7 0
BBX 6 6 0 0
BITMAP
88
88
88
88
88
7C
ENDCHAR
STARTCHAR 0076
ENCODING 118
SWIDTH 392 0
DWIDTH 6 0
BBX 5 6 0 0
BITMAP
88
88
50
70
20
20
ENDCHAR
STARTCHAR 0077
ENCODING 119
SWIDTH 589 0
DWIDTH 9 0
BBX 8 6 0 0
BITMAP
89
99
5A
66
66
24
ENDCHAR
STARTCHAR 0078
ENCODING 120
SWIDTH 458 0
DWIDTH 7 0
BBX 6 6 0 0
BITMAP
84
48
30
30
48
84
ENDCHAR
STARTCHAR 0079
ENCODING 121
SWIDTH 392 0
DWIDTH 6 0
BBX 5 10 0 -4
BITMAP
48
48
48
30
30
30
20
20
40
C0
ENDCHAR
STARTCHAR 007A
ENCODING 122
SWIDTH 392 0
DWIDTH 6 0
BBX 5 6 0 0
BITMAP
F8
90
20
20
48
F8
ENDCHAR
STARTCHAR 007B
ENCODING 123
SWIDTH 327 0
DWIDTH 5 0
BBX 4 14 0 -3
BITMAP
10
20
20
20
20
20
C0
20
20
20
20
20
20
10
ENDCHAR
STARTCHAR 007C
ENCODING 124
SWIDTH 261 0
DWIDTH 4 0
BBX 1 13 1 -2
BITMAP
80
80
80
80
80
80
80
80
80
80
80
80
80
ENDCHAR
STARTCHAR 007D
ENCODING 125
SWIDTH 327 0
DWIDTH 5 0
BBX 4 15 0 -3
BITMAP
80
40
20
20
20
20
20
10
20
20
20
20
20
40
80
ENDCHAR
STARTCHAR 007E
ENCODING 126
SWIDTH 458 0
DWIDTH 7 0
BBX 6 2 0 2
BITMAP
64
98
ENDCHAR
STARTCHAR 00A0
ENCODING 160
SWIDTH 261 0
DWIDTH 4 0
BBX 0 0 0 0
BITMAP
ENDCHAR
STARTCHAR 00A1
ENCODING 161
SWIDTH 196 0
DWIDTH 3 0
BBX 2 10 0 -4
BITMAP
C0
00
00
00
80
80
80
80
C0
C0
ENDCHAR
STARTCHAR 00A2
ENCODING 162
SWIDTH 392 0
DWIDTH 6 0
BBX 5 10 0 0
BITMAP
10
20
78
A0
A0
A0
A0
78
40
40
ENDCHAR
STARTCHAR 00A3
ENCODING 163
SWIDTH 523 0
DWIDTH 8 0
BBX 7 11 0 -1
BITMAP
1E
20
20
30
10
38
10
10
70
AE
40
ENDCHAR
STARTCHAR 00A4
ENCODING 164
SWIDTH 458 0
DWIDTH 7 0
BBX 6 8 0 1
BITMAP
84
48
78
48
48
78
48
84
ENDCHAR
STARTCHAR 00A5
ENCODING 165
SWIDTH 720 0
DWIDTH 11 0
BBX 10 11 0 0
BITMAP
F1C0
6080
2100
3200
1200
3F00
0800
3F00
0800
0800
1E00
ENDCHAR
STARTCHAR 00A6
ENCODING 166
SWIDTH 261 0
DWIDTH 4 0
BBX 1 9 1 1
BITMAP
80
80
80
80
00
80
80
80
80
ENDCHAR
STARTCHAR 00A7
ENCODING 167
SWIDTH 392 0
DWIDTH 6 0
BBX 5 13 0 -3
BITMAP
78
80
80
60
B0
88
88
C8
30
18
08
88
70
ENDCHAR
STARTCHAR 00A8
ENCODING 168
SWIDTH 458 0
DWIDTH 7 0
BBX 4 1 1 8
BITMAP
90
ENDCHAR
STARTCHAR 00A9
ENCODING 169
SWIDTH 785 0
DWIDTH 12 0
BBX 11 11 0 0
BITMAP
0E00
3180
4040
8C20
9220
9020
9020
9220
4C40
2080
1F00
ENDCHAR
STARTCHAR 00AA
ENCODING 170
SWIDTH 392 0
DWIDTH 6 0
BBX 5 7 0 1
BITMAP
70
08
78
88
78
00
F8
ENDCHAR
STARTCHAR 00AB
ENCODING 171
SWIDTH 327 0
DWIDTH 5 0
BBX 4 5 0 1
BITMAP
50
A0
A0
A0
50
ENDCHAR
STARTCHAR 00AC
ENCODING 172
SWIDTH 720 0
DWIDTH 11 0
BBX 10 5 0 0
BITMAP
FFC0
0040
0040
0040
0040
ENDCHAR
STARTCHAR 00AD
ENCODING 173
SWIDTH 327 0
DWIDTH 5 0
BBX 2 1 1 3
BITMAP
C0
ENDCHAR
STARTCHAR 00AE
ENCODING 174
SWIDTH 785 0
DWIDTH 12 0
BBX 11 11 0 0
BITMAP
0E00
3180
4040
9E20
9120
9E20
9220
9120
4040
2080
1F00
ENDCHAR
STARTCHAR 00AF
ENCODING 175
SWIDTH 327 0
DWIDTH 5 0
BBX 4 1 0 8
BITMAP
F0
ENDCHAR
STARTCHAR 00B0
ENCODING 176
SWIDTH 392 0
DWIDTH 6 0
BBX 5 5 0 5
BITMAP
20
50
88
50
20
ENDCHAR
STARTCHAR 00B1
ENCODING 177
SWIDTH 523 0
DWIDTH 8 0
BBX 7 9 0 0
BITMAP
10
10
10
FE
10
10
10
00
FE
ENDCHAR
STARTCHAR 00B2
ENCODING 178
SWIDTH 327 0
DWIDTH 5 0
BBX 4 6 0 4
BITMAP
60
90
10
20
40
F0
ENDCHAR
STARTCHAR 00B3
ENCODING 179
SWIDTH 261 0
DWIDTH 4 0
BBX 3 6 0 4
BITMAP
C0
20
C0
20
20
C0
ENDCHAR
STARTCHAR 00B4
ENCODING 180
SWIDTH 327 0
DWIDTH 5 0
BBX 2 2 1 8
BITMAP
40
80
ENDCHAR
STARTCHAR 00B5
ENCODING 181
SWIDTH 523 0
DWIDTH 8 0
BBX 7 10 0 -4
BITMAP
84
84
84
84
CC
B6
80
80
80
80
ENDCHAR
STARTCHAR 00B6
ENCODING 182
SWIDTH 523 0
DWIDTH 8 0
BBX 7 12 0 -1
BITMAP
3E
74
F4
F4
F4
34
14
14
14
14
14
08
ENDCHAR
STARTCHAR 00B7
ENCODING 183
SWIDTH 327 0
DWIDTH 5 0
BBX 2 1 1 4
BITMAP
C0
ENDCHAR
STARTCHAR 00B8
ENCODING 184
SWIDTH 327 0
DWIDTH 5 0
BBX 2 3 1 -4
BITMAP
C0
40
80
ENDCHAR
STARTCHAR 00B9
ENCODING 185
SWIDTH 261 0
DWIDTH 4 0
BBX 1 6 1 4
BITMAP
80
80
80
80
80
80
ENDCHAR
STARTCHAR 00BA
ENCODING 186
SWIDTH 327 0
DWIDTH 5 0
BBX 4 5 0 3
BITMAP
60
90
90
90
60
ENDCHAR
STARTCHAR 00BB
ENCODING 187
SWIDTH 392 0
DWIDTH 6 0
BBX 5 6 0 0
BITMAP
A0
50
28
28
50
A0
ENDCHAR
STARTCHAR 00BC
ENCODING 188
SWIDTH 720 0
DWIDTH 11 0
BBX 10 10 0 0
BITMAP
C000
4080
4100
4200
4480
4980
1280
2480
47C0
8080
ENDCHAR
STARTCHAR 00BD
ENCODING 189
SWIDTH 720 0
DWIDTH 11 0
BBX 10 10 0 0
BITMAP
C000
4080
4100
4200
4580
4A40
1040
2180
4200
83C0
ENDCHAR
STARTCHAR 00BE
ENCODING 190
SWIDTH 785 0
DWIDTH 12 0
BBX 11 10 0 0
BITMAP
6000
9040
2080
1100
9240
64C0
0940
1240
23E0
4040
ENDCHAR
STARTCHAR 00BF
ENCODING 191
SWIDTH 327 0
DWIDTH 5 0
BBX 4 9 0 -3
BITMAP
20
00
00
20
20
60
80
90
60
ENDCHAR
STARTCHAR 00C0
ENCODING 192
SWIDTH 720 0
DWIDTH 11 0
BBX 10 14 0 0
BITMAP
1000
0800
0600
0000
0C00
0C00
1600
1200
1200
2300
3D00
2100
4180
E1C0
ENDCHAR
STARTCHAR 00C1
ENCODING 193
SWIDTH 720 0
DWIDTH 11 0
BBX 10 14 0 0
BITMAP
0100
0600
0800
0000
0C00
0C00
1600
1200
1200
2300
3D00
2100
4180
E1C0
ENDCHAR
STARTCHAR 00C2
ENCODING 194
SWIDTH 720 0
DWIDTH 11 0
BBX 10 13 0 0
BITMAP
0C00
0200
0000
0C00
0C00
1600
1200
1200
2300
3D00
2100
4180
E1C0
ENDCHAR
STARTCHAR 00C3
ENCODING 195
SWIDTH 720 0
DWIDTH 11 0
BBX 10 13 0 0
BITMAP
0A00
0400
0000
0C00
0C00
1600
1200
1200
2300
3D00
2100
4180
E1C0
ENDCHAR
STARTCHAR 00C4
ENCODING 196
SWIDTH 720 0
DWIDTH 11 0
BBX 10 13 0 0
BITMAP
1200
1200
0000
0C00
0C00
1600
1200
1200
2300
3D00
2100
4180
E1C0
ENDCHAR
STARTCHAR 00C5
ENCODING 197
SWIDTH 720 0
DWIDTH 11 0
BBX 10 12 0 0
BITMAP
0E00
0C00
0400
0C00
1600
1200
1200
2300
3D00
2100
4180
E1C0
ENDCHAR
STARTCHAR 00C6
ENCODING 198
SWIDTH 850 0
DWIDTH 13 0
BBX 13 10 -1 0
BITMAP
07F8
0508
0500
0900
0920
1FE0
2120
2100
4108
E7F8
ENDCHAR
STARTCHAR 00C7
ENCODING 199
SWIDTH 589 0
DWIDTH 9 0
BBX 8 14 0 -4
BITMAP
3F
41
C0
80
80
80
80
C0
40
33
0C
18
08
10
ENDCHAR
STARTCHAR 00C8
ENCODING 200
SWIDTH 523 0
DWIDTH 8 0
BBX 7 14 0 0
BITMAP
40
20
18
00
FE
42
40
40
40
78
40
40
42
FE
ENDCHAR
STARTCHAR 00C9
ENCODING 201
SWIDTH 523 0
DWIDTH 8 0
BBX 7 14 0 0
BITMAP
04
18
20
00
FE
42
40
40
40
78
40
40
42
FE
ENDCHAR
STARTCHAR 00CA
ENCODING 202
SWIDTH 523 0
DWIDTH 8 0
BBX 7 13 0 0
BITMAP
18
04
00
FE
42
40
40
40
78
40
40
42
FE
ENDCHAR
STARTCHAR 00CB
ENCODING 203
SWIDTH 523 0
DWIDTH 8 0
BBX 7 13 0 0
BITMAP
24
24
00
FE
42
40
40
40
78
40
40
42
FE
ENDCHAR
STARTCHAR 00CC
ENCODING 204
SWIDTH 327 0
DWIDTH 5 0
BBX 4 14 0 0
BITMAP
80
40
30
00
70
20
20
20
20
20
20
20
20
70
ENDCHAR
STARTCHAR 00CD
ENCODING 205
SWIDTH 392 0
DWIDTH 6 0
BBX 5 14 0 0
BITMAP
08
30
40
00
E0
40
40
40
40
40
40
40
40
E0
ENDCHAR
STARTCHAR 00CE
ENCODING 206
SWIDTH 327 0
DWIDTH 5 0
BBX 4 13 0 0
BITMAP
60
10
00
E0
40
40
40
40
40
40
40
40
E0
ENDCHAR
STARTCHAR 00CF
ENCODING 207
SWIDTH 327 0
DWIDTH 5 0
BBX 4 13 0 0
BITMAP
90
90
00
70
20
20
20
20
20
20
20
20
70
ENDCHAR
STARTCHAR 00D0
ENCODING 208
SWIDTH 654 0
DWIDTH 10 0
BBX 9 10 0 0
BITMAP
FE00
4100
4180
4080
4080
E080
4080
4180
4100
FE00
ENDCHAR
STARTCHAR 00D1
ENCODING 209
SWIDTH 720 0
DWIDTH 11 0
BBX 10 13 0 0
BITMAP
0500
0200
0000
E1C0
7080
5880
4880
4480
4680
4380
4180
4080
E080
ENDCHAR
STARTCHAR 00D2
ENCODING 210
SWIDTH 654 0
DWIDTH 10 0
BBX 9 14 0 0
BITMAP
2000
1000
0C00
0000
3E00
4100
8080
8080
8080
8080
8080
8080
4100
3E00
ENDCHAR
STARTCHAR 00D3
ENCODING 211
SWIDTH 654 0
DWIDTH 10 0
BBX 9 14 0 0
BITMAP
0100
0600
0800
0000
3E00
4100
8080
8080
8080
8080
8080
8080
4100
3E00
ENDCHAR
STARTCHAR 00D4
ENCODING 212
SWIDTH 654 0
DWIDTH 10 0
BBX 9 13 0 0
BITMAP
0C00
0200
0000
3E00
4100
8080
8080
8080
8080
8080
8080
4100
3E00
ENDCHAR
STARTCHAR 00D5
ENCODING 213
SWIDTH 654 0
DWIDTH 10 0
BBX 9 13 0 0
BITMAP
1400
0800
0000
3E00
4100
8080
8080
8080
8080
8080
8080
4100
3E00
ENDCHAR
STARTCHAR 00D6
ENCODING 214
SWIDTH 654 0
DWIDTH 10 0
BBX 9 13 0 0
BITMAP
2400
2400
0000
3E00
4100
8080
8080
8080
8080
8080
8080
4100
3E00
ENDCHAR
STARTCHAR 00D7
ENCODING 215
SWIDTH 327 0
DWIDTH 5 0
BBX 4 5 0 0
BITMAP
90
F0
60
F0
90
ENDCHAR
STARTCHAR 00D8
ENCODING 216
SWIDTH 654 0
DWIDTH 10 0
BBX 9 10 0 0
BITMAP
3E80
4100
8280
8480
8880
8880
9080
A080
4100
BE00
ENDCHAR
STARTCHAR 00D9
ENCODING 217
SWIDTH 654 0
DWIDTH 10 0
BBX 9 14 0 0
BITMAP
2000
1000
0C00
0000
E380
4100
4100
4100
4100
4100
4100
4100
4100
3E00
ENDCHAR
STARTCHAR 00DA
ENCODING 218
SWIDTH 654 0
DWIDTH 10 0
BBX 9 14 0 0
BITMAP
0100
0600
0800
0000
E380
4100
4100
4100
4100
4100
4100
4100
4100
3E00
ENDCHAR
STARTCHAR 00DB
ENCODING 219
SWIDTH 654 0
DWIDTH 10 0
BBX 9 13 0 0
BITMAP
0C00
0200
0000
E380
4100
4100
4100
4100
4100
4100
4100
4100
3E00
ENDCHAR
STARTCHAR 00DC
ENCODING 220
SWIDTH 654 0
DWIDTH 10 0
BBX 9 13 0 0
BITMAP
1200
1200
0000
E380
4100
4100
4100
4100
4100
4100
4100
4100
3E00
ENDCHAR
STARTCHAR 00DD
ENCODING 221
SWIDTH 654 0
DWIDTH 10 0
BBX 9 14 0 0
BITMAP
0100
0600
0800
0000
E380
6100
2200
1400
1400
0800
0800
0800
0800
1C00
ENDCHAR
STARTCHAR 00DE
ENCODING 222
SWIDTH 589 0
DWIDTH 9 0
BBX 8 14 0 -4
BITMAP
E4
3E
23
23
23
23
22
22
24
28
30
20
60
80
ENDCHAR
STARTCHAR 00DF
ENCODING 223
SWIDTH 458 0
DWIDTH 7 0
BBX 6 12 0 -1
BITMAP
38
44
44
44
88
90
90
8C
84
84
94
88
ENDCHAR
STARTCHAR 00E0
ENCODING 224
SWIDTH 392 0
DWIDTH 6 0
BBX 5 10 0 0
BITMAP
40
40
00
00
F0
10
30
D0
90
F8
ENDCHAR
STARTCHAR 00E1
ENCODING 225
SWIDTH 392 0
DWIDTH 6 0
BBX 5 10 0 0
BITMAP
20
40
00
00
F0
10
30
D0
90
F8
ENDCHAR
STARTCHAR 00E2
ENCODING 226
SWIDTH 392 0
DWIDTH 6 0
BBX 5 10 0 0
BITMAP
60
A0
10
00
F0
10
30
D0
90
F8
ENDCHAR
STARTCHAR 00E3
ENCODING 227
SWIDTH 392 0
DWIDTH 6 0
BBX 5 9 0 0
BITMAP
F0
00
00
F0
10
30
D0
90
F8
ENDCHAR
STARTCHAR 00E4
ENCODING 228
SWIDTH 392 0
DWIDTH 6 0
BBX 5 9 0 0
BITMAP
90
00
00
F0
10
30
D0
90
F8
ENDCHAR
STARTCHAR 00E5
ENCODING 229
SWIDTH 392 0
DWIDTH 6 0
BBX 5 10 0 0
BITMAP
60
A0
60
00
F0
10
30
D0
90
F8
ENDCHAR
STARTCHAR 00E6
ENCODING 230
SWIDTH 589 0
DWIDTH 9 0
BBX 8 6 0 0
BITMAP
FF
9E
18
78
48
7F
ENDCHAR
STARTCHAR 00E7
ENCODING 231
SWIDTH 392 0
DWIDTH 6 0
BBX 5 10 0 -4
BITMAP
78
80
80
80
80
70
00
60
20
40
ENDCHAR
STARTCHAR 00E8
ENCODING 232
SWIDTH 392 0
DWIDTH 6 0
BBX 5 10 0 0
BITMAP
20
20
00
00
F0
F8
80
80
80
70
ENDCHAR
STARTCHAR 00E9
ENCODING 233
SWIDTH 392 0
DWIDTH 6 0
BBX 5 10 0 0
BITMAP
10
20
00
00
F0
F8
80
80
80
70
ENDCHAR
STARTCHAR 00EA
ENCODING 234
SWIDTH 392 0
DWIDTH 6 0
BBX 5 10 0 0
BITMAP
60
A0
10
00
F0
F8
80
80
80
70
ENDCHAR
STARTCHAR 00EB
ENCODING 235
SWIDTH 392 0
DWIDTH 6 0
BBX 5 9 0 0
BITMAP
90
00
00
F0
F8
80
80
80
70
ENDCHAR
STARTCHAR 00EC
ENCODING 236
SWIDTH 196 0
DWIDTH 3 0
BBX 2 10 0 0
BITMAP
80
80
00
00
C0
C0
C0
C0
C0
C0
ENDCHAR
STARTCHAR 00ED
ENCODING 237
SWIDTH 196 0
DWIDTH 3 0
BBX 2 10 0 0
BITMAP
40
80
00
00
C0
C0
C0
C0
C0
C0
ENDCHAR
STARTCHAR 00EE
ENCODING 238
SWIDTH 196 0
DWIDTH 3 0
BBX 4 10 -1 0
BITMAP
60
A0
10
00
60
60
60
60
60
60
ENDCHAR
STARTCHAR 00EF
ENCODING 239
SWIDTH 327 0
DWIDTH 5 0
BBX 4 9 0 0
BITMAP
90
00
00
60
60
60
60
60
60
ENDCHAR
STARTCHAR 00F0
ENCODING 240
SWIDTH 458 0
DWIDTH 7 0
BBX 6 11 0 -1
BITMAP
38
C0
A0
10
68
8C
84
84
8C
58
20
ENDCHAR
STARTCHAR 00F1
ENCODING 241
SWIDTH 458 0
DWIDTH 7 0
BBX 6 9 0 0
BITMAP
78
00
00
F8
CC
CC
CC
CC
CC
ENDCHAR
STARTCHAR 00F2
ENCODING 242
SWIDTH 458 0
DWIDTH 7 0
BBX 6 11 0 -1
BITMAP
20
20
00
00
78
88
84
84
88
58
20
ENDCHAR
STARTCHAR 00F3
ENCODING 243
SWIDTH 458 0
DWIDTH 7 0
BBX 6 11 0 -1
BITMAP
10
20
00
00
78
88
84
84
88
58
20
ENDCHAR
STARTCHAR 00F4
ENCODING 244
SWIDTH 458 0
DWIDTH 7 0
BBX 6 11 0 -1
BITMAP
30
50
08
00
78
88
84
84
88
58
20
ENDCHAR
STARTCHAR 00F5
ENCODING 245
SWIDTH 458 0
DWIDTH 7 0
BBX 6 10 0 -1
BITMAP
78
00
00
78
88
84
84
88
58
20
ENDCHAR
STARTCHAR 00F6
ENCODING 246
SWIDTH 458 0
DWIDTH 7 0
BBX 6 10 0 -1
BITMAP
48
00
00
78
88
84
84
88
58
20
ENDCHAR
STARTCHAR 00F7
ENCODING 247
SWIDTH 458 0
DWIDTH 7 0
BBX 4 6 1 0
BITMAP
40
00
00
F0
40
40
ENDCHAR
STARTCHAR 00F8
ENCODING 248
SWIDTH 458 0
DWIDTH 7 0
BBX 6 8 0 -1
BITMAP
08
78
98
A4
C4
C8
D8
20
ENDCHAR
STARTCHAR 00F9
ENCODING 249
SWIDTH 458 0
DWIDTH 7 0
BBX 6 10 0 0
BITMAP
20
20
00
00
88
88
88
88
C8
7C
ENDCHAR
STARTCHAR 00FA
ENCODING 250
SWIDTH 458 0
DWIDTH 7 0
BBX 6 10 0 0
BITMAP
10
20
00
00
88
88
88
88
C8
7C
ENDCHAR
STARTCHAR 00FB
ENCODING 251
SWIDTH 458 0
DWIDTH 7 0
BBX 6 10 0 0
BITMAP
30
50
08
00
88
88
88
88
C8
7C
ENDCHAR
STARTCHAR 00FC
ENCODING 252
SWIDTH 458 0
DWIDTH 7 0
BBX 6 9 0 0
BITMAP
48
00
00
88
88
88
88
C8
7C
ENDCHAR
STARTCHAR 00FD
ENCODING 253
SWIDTH 392 0
DWIDTH 6 0
BBX 5 14 0 -4
BITMAP
08
10
00
00
40
48
48
30
30
30
20
20
40
C0
ENDCHAR
STARTCHAR 00FE
ENCODING 254
SWIDTH 392 0
DWIDTH 6 0
BBX 5 14 0 -4
BITMAP
80
80
80
80
F8
88
88
88
90
A0
C0
80
80
80
ENDCHAR
STARTCHAR 00FF
ENCODING 255
SWIDTH 392 0
DWIDTH 6 0
BBX 5 13 0 -4
BITMAP
48
00
00
40
48
48
30
30
30
20
20
40
C0
ENDCHAR
STARTCHAR 0100
ENCODING 256
SWIDTH 654 0
DWIDTH 10 0
BBX 10 12 0 0
BITMAP
0E00
0000
0C00
0C00
1600
1200
1200
2300
3D00
2100
4180
E1C0
ENDCHAR
STARTCHAR 0101
ENCODING 257
SWIDTH 327 0
DWIDTH 5 0
BBX 5 9 1 0
BITMAP
F0
00
00
F0
10
30
D0
90
F8
ENDCHAR
STARTCHAR 0102
ENCODING 258
SWIDTH 654 0
DWIDTH 10 0
BBX 10 14 0 0
BITMAP
0100
0900
0600
0000
0C00
0C00
1600
1200
1200
2300
3D00
2100
4180
E1C0
ENDCHAR
STARTCHAR 0103
ENCODING 259
SWIDTH 327 0
DWIDTH 5 0
BBX 5 10 1 0
BITMAP
10
90
60
00
F0
10
30
D0
90
F8
ENDCHAR
STARTCHAR 0104
ENCODING 260
SWIDTH 654 0
DWIDTH 10 0
BBX 10 13 0 -3
BITMAP
0C00
0C00
1600
1200
1200
2300
3D00
2100
4180
E1C0
0100
0200
0300
ENDCHAR
STARTCHAR 0105
ENCODING 261
SWIDTH 327 0
DWIDTH 5 0
BBX 5 9 1 -3
BITMAP
F0
10
30
D0
90
F8
10
20
30
ENDCHAR
STARTCHAR 0106
ENCODING 262
SWIDTH 589 0
DWIDTH 9 0
BBX 8 15 1 -1
BITMAP
01
06
08
00
3F
41
C0
80
80
80
80
C0
40
33
0C
ENDCHAR
STARTCHAR 0107
ENCODING 263
SWIDTH 327 0
DWIDTH 5 0
BBX 5 10 1 0
BITMAP
10
20
00
00
78
80
80
80
80
70
ENDCHAR
STARTCHAR 0108
ENCODING 264
SWIDTH 589 0
DWIDTH 9 0
BBX 8 14 1 -1
BITMAP
0C
02
00
3F
41
C0
80
80
80
80
C0
40
33
0C
ENDCHAR
STARTCHAR 0109
ENCODING 265
SWIDTH 327 0
DWIDTH 5 0
BBX 5 10 1 0
BITMAP
30
50
08
00
78
80
80
80
80
70
ENDCHAR
STARTCHAR 010A
ENCODING 266
SWIDTH 589 0
DWIDTH 9 0
BBX 8 14 1 -1
BITMAP
08
00
00
3F
41
C0
80
80
80
80
C0
40
33
0C
ENDCHAR
STARTCHAR 010B
ENCODING 267
SWIDTH 327 0
DWIDTH 5 0
BBX 5 9 1 0
BITMAP
20
00
00
78
80
80
80
80
70
ENDCHAR
STARTCHAR 010C
ENCODING 268
SWIDTH 589 0
DWIDTH 9 0
BBX 8 14 1 -1
BITMAP
16
08
00
3F
41
C0
80
80
80
80
C0
40
33
0C
ENDCHAR
STARTCHAR 010D
ENCODING 269
SWIDTH 327 0
DWIDTH 5 0
BBX 5 11 1 0
BITMAP
08
50
30
00
00
78
80
80
80
80
70
ENDCHAR
STARTCHAR 010E
ENCODING 270
SWIDTH 720 0
DWIDTH 11 0
BBX 9 14 1 -1
BITMAP
2C00
1000
0000
FE00
4100
4180
4080
4080
4080
4080
4080
4100
E600
1800
ENDCHAR
STARTCHAR 010F
ENCODING 271
SWIDTH 589 0
DWIDTH 9 0
BBX 7 11 1 0
BITMAP
02
0A
0A
08
08
78
88
88
88
88
FC
ENDCHAR
STARTCHAR 0110
ENCODING 272
SWIDTH 720 0
DWIDTH 11 0
BBX 9 11 1 -1
BITMAP
FE00
4100
4180
4080
4080
E080
4080
4180
4100
E600
1800
ENDCHAR
STARTCHAR 0111
ENCODING 273
SWIDTH 458 0
DWIDTH 7 0
BBX 6 11 1 0
BITMAP
08
08
08
1C
08
78
88
88
88
88
FC
ENDCHAR
STARTCHAR 0112
ENCODING 274
SWIDTH 589 0
DWIDTH 9 0
BBX 7 13 1 -1
BITMAP
38
00
FE
42
42
40
40
78
40
40
42
E6
18
ENDCHAR
STARTCHAR 0113
ENCODING 275
SWIDTH 392 0
DWIDTH 6 0
BBX 5 9 1 0
BITMAP
F0
00
00
F0
F8
80
80
80
70
ENDCHAR
STARTCHAR 0114
ENCODING 276
SWIDTH 589 0
DWIDTH 9 0
BBX 7 15 1 -1
BITMAP
04
24
18
00
FE
42
42
40
40
78
40
40
42
E6
18
ENDCHAR
STARTCHAR 0115
ENCODING 277
SWIDTH 392 0
DWIDTH 6 0
BBX 5 10 1 0
BITMAP
08
48
30
00
F0
F8
80
80
80
70
ENDCHAR
STARTCHAR 0116
ENCODING 278
SWIDTH 589 0
DWIDTH 9 0
BBX 7 14 1 -1
BITMAP
10
00
00
FE
42
42
40
40
78
40
40
42
E6
18
ENDCHAR
STARTCHAR 0117
ENCODING 279
SWIDTH 392 0
DWIDTH 6 0
BBX 5 9 1 0
BITMAP
20
00
00
F0
F8
80
80
80
70
ENDCHAR
STARTCHAR 0118
ENCODING 280
SWIDTH 589 0
DWIDTH 9 0
BBX 7 13 1 -3
BITMAP
FE
42
42
40
40
78
40
40
42
E6
1C
08
0C
ENDCHAR
STARTCHAR 0119
ENCODING 281
SWIDTH 392 0
DWIDTH 6 0
BBX 5 9 1 -3
BITMAP
F0
F8
80
80
80
70
40
80
C0
ENDCHAR
STARTCHAR 011A
ENCODING 282
SWIDTH 589 0
DWIDTH 9 0
BBX 7 14 1 -1
BITMAP
2C
10
00
FE
42
42
40
40
78
40
40
42
E6
18
ENDCHAR
STARTCHAR 011B
ENCODING 283
SWIDTH 392 0
DWIDTH 6 0
BBX 5 11 1 0
BITMAP
10
A0
60
00
00
F0
F8
80
80
80
70
ENDCHAR
STARTCHAR 011C
ENCODING 284
SWIDTH 654 0
DWIDTH 10 0
BBX 9 14 1 -1
BITMAP
0C00
0200
0000
3F00
4100
C000
8000
8000
8000
8780
C100
4100
3300
0C00
ENDCHAR
STARTCHAR 011D
ENCODING 285
SWIDTH 392 0
DWIDTH 6 0
BBX 7 14 0 -4
BITMAP
30
50
08
00
7E
44
44
68
50
78
26
42
C4
78
ENDCHAR
STARTCHAR 011E
ENCODING 286
SWIDTH 654 0
DWIDTH 10 0
BBX 9 15 1 -1
BITMAP
0200
1200
0C00
0000
3F00
4100
C000
8000
8000
8000
8780
C100
4100
3300
0C00
ENDCHAR
STARTCHAR 011F
ENCODING 287
SWIDTH 392 0
DWIDTH 6 0
BBX 7 14 0 -4
BITMAP
08
48
30
00
7E
44
44
68
50
78
26
42
C4
78
ENDCHAR
STARTCHAR 0120
ENCODING 288
SWIDTH 654 0
DWIDTH 10 0
BBX 9 14 1 -1
BITMAP
0800
0000
0000
3F00
4100
C000
8000
8000
8000
8780
C100
4100
3300
0C00
ENDCHAR
STARTCHAR 0121
ENCODING 289
SWIDTH 392 0
DWIDTH 6 0
BBX 7 13 0 -4
BITMAP
10
00
00
7E
44
44
68
50
78
26
42
C4
78
ENDCHAR
STARTCHAR 0122
ENCODING 290
SWIDTH 654 0
DWIDTH 10 0
BBX 9 14 1 -4
BITMAP
3F00
4100
C000
8000
8000
8000
8780
C100
4100
3300
0C00
1800
0800
1000
ENDCHAR
STARTCHAR 0123
ENCODING 291
SWIDTH 392 0
DWIDTH 6 0
BBX 7 15 0 -4
BITMAP
20
20
40
20
00
7E
44
44
68
50
78
26
42
C4
78
ENDCHAR
STARTCHAR 0124
ENCODING 292
SWIDTH 720 0
DWIDTH 11 0
BBX 10 13 1 0
BITMAP
0C00
0200
0000
F3C0
4080
4080
4080
4080
7F80
4080
4080
4080
E1C0
ENDCHAR
STARTCHAR 0125
ENCODING 293
SWIDTH 523 0
DWIDTH 8 0
BBX 6 14 1 0
BITMAP
C0
20
00
40
C0
C0
C0
C0
F8
C4
C4
C4
C4
CC
ENDCHAR
STARTCHAR 0126
ENCODING 294
SWIDTH 720 0
DWIDTH 11 0
BBX 10 10 1 0
BITMAP
F3C0
4080
FFC0
4080
4080
7F80
4080
4080
4080
E1C0
ENDCHAR
STARTCHAR 0127
ENCODING 295
SWIDTH 523 0
DWIDTH 8 0
BBX 7 11 0 0
BITMAP
20
60
F0
60
60
7C
62
62
62
62
66
ENDCHAR
STARTCHAR 0128
ENCODING 296
SWIDTH 327 0
DWIDTH 5 0
BBX 5 13 0 0
BITMAP
F0
00
00
78
20
20
20
20
20
20
20
20
70
ENDCHAR
STARTCHAR 0129
ENCODING 297
SWIDTH 196 0
DWIDTH 3 0
BBX 4 9 0 0
BITMAP
F0
00
00
60
60
60
60
60
60
ENDCHAR
STARTCHAR 012A
ENCODING 298
SWIDTH 327 0
DWIDTH 5 0
BBX 5 13 0 0
BITMAP
F0
00
00
78
20
20
20
20
20
20
20
20
70
ENDCHAR
STARTCHAR 012B
ENCODING 299
SWIDTH 196 0
DWIDTH 3 0
BBX 4 9 0 0
BITMAP
F0
00
00
60
60
60
60
60
60
ENDCHAR
STARTCHAR 012C
ENCODING 300
SWIDTH 327 0
DWIDTH 5 0
BBX 4 14 1 0
BITMAP
10
90
60
00
F0
40
40
40
40
40
40
40
40
E0
ENDCHAR
STARTCHAR 012D
ENCODING 301
SWIDTH 196 0
DWIDTH 3 0
BBX 4 10 0 0
BITMAP
10
90
60
00
60
60
60
60
60
60
ENDCHAR
STARTCHAR 012E
ENCODING 302
SWIDTH 327 0
DWIDTH 5 0
BBX 5 13 0 -3
BITMAP
78
20
20
20
20
20
20
20
20
70
40
80
C0
ENDCHAR
STARTCHAR 012F
ENCODING 303
SWIDTH 196 0
DWIDTH 3 0
BBX 3 12 0 -3
BITMAP
60
00
00
60
60
60
60
60
60
40
80
C0
ENDCHAR
STARTCHAR 0130
ENCODING 304
SWIDTH 327 0
DWIDTH 5 0
BBX 4 13 1 0
BITMAP
40
00
00
F0
40
40
40
40
40
40
40
40
E0
ENDCHAR
STARTCHAR 0131
ENCODING 305
SWIDTH 196 0
DWIDTH 3 0
BBX 2 6 1 0
BITMAP
C0
C0
C0
C0
C0
C0
ENDCHAR
STARTCHAR 0132
ENCODING 306
SWIDTH 720 0
DWIDTH 11 0
BBX 9 13 1 -3
BITMAP
F780
4200
4200
4200
4200
4200
4200
4200
4200
E200
0200
0200
1C00
ENDCHAR
STARTCHAR 0133
ENCODING 307
SWIDTH 458 0
DWIDTH 7 0
BBX 6 13 1 -4
BITMAP
CC
00
00
CC
CC
CC
CC
CC
CC
0C
08
08
30
ENDCHAR
STARTCHAR 0134
ENCODING 308
SWIDTH 327 0
DWIDTH 5 0
BBX 6 16 -1 -3
BITMAP
18
04
00
3C
10
10
10
10
10
10
10
10
10
10
10
E0
ENDCHAR
STARTCHAR 0135
ENCODING 309
SWIDTH 196 0
DWIDTH 3 0
BBX 5 14 -1 -4
BITMAP
30
50
08
00
30
30
30
30
30
30
30
20
20
C0
ENDCHAR
STARTCHAR 0136
ENCODING 310
SWIDTH 589 0
DWIDTH 9 0
BBX 9 13 1 -3
BITMAP
F700
4400
4800
5000
5000
7000
4800
4400
4600
E780
0000
0800
1800
ENDCHAR
STARTCHAR 0137
ENCODING 311
SWIDTH 458 0
DWIDTH 7 0
BBX 6 14 1 -3
BITMAP
40
C0
C0
C0
C0
C8
D0
E0
D0
D8
CC
00
10
30
ENDCHAR
STARTCHAR 0138
ENCODING 312
SWIDTH 458 0
DWIDTH 7 0
BBX 6 6 1 0
BITMAP
DC
A0
E0
B0
90
C8
ENDCHAR
STARTCHAR 0139
ENCODING 313
SWIDTH 589 0
DWIDTH 9 0
BBX 8 15 1 -1
BITMAP
08
30
40
00
F0
40
40
40
40
40
40
40
41
E7
18
ENDCHAR
STARTCHAR 013A
ENCODING 314
SWIDTH 196 0
DWIDTH 3 0
BBX 4 15 1 0
BITMAP
10
60
80
00
40
C0
C0
C0
C0
C0
C0
C0
C0
C0
C0
ENDCHAR
STARTCHAR 013B
ENCODING 315
SWIDTH 589 0
DWIDTH 9 0
BBX 8 14 1 -4
BITMAP
F0
40
40
40
40
40
40
40
41
E7
18
30
10
20
ENDCHAR
STARTCHAR 013C
ENCODING 316
SWIDTH 196 0
DWIDTH 3 0
BBX 2 15 1 -4
BITMAP
40
C0
C0
C0
C0
C0
C0
C0
C0
C0
C0
00
C0
40
80
ENDCHAR
STARTCHAR 013D
ENCODING 317
SWIDTH 589 0
DWIDTH 9 0
BBX 8 14 1 -1
BITMAP
B0
40
00
F0
40
40
40
40
40
40
40
41
E7
18
ENDCHAR
STARTCHAR 013E
ENCODING 318
SWIDTH 327 0
DWIDTH 5 0
BBX 4 11 1 0
BITMAP
50
D0
D0
C0
C0
C0
C0
C0
C0
C0
C0
ENDCHAR
STARTCHAR 013F
ENCODING 319
SWIDTH 589 0
DWIDTH 9 0
BBX 8 11 1 -1
BITMAP
F0
44
40
40
40
40
40
40
41
E7
18
ENDCHAR
STARTCHAR 0140
ENCODING 320
SWIDTH 261 0
DWIDTH 4 0
BBX 3 11 1 0
BITMAP
40
C0
E0
C0
C0
C0
C0
C0
C0
C0
C0
ENDCHAR
STARTCHAR 0141
ENCODING 321
SWIDTH 589 0
DWIDTH 9 0
BBX 8 11 1 -1
BITMAP
F0
40
40
40
70
C0
40
40
41
E7
18
ENDCHAR
STARTCHAR 0142
ENCODING 322
SWIDTH 196 0
DWIDTH 3 0
BBX 2 11 1 0
BITMAP
40
C0
C0
C0
C0
C0
C0
C0
C0
C0
C0
ENDCHAR
STARTCHAR 0143
ENCODING 323
SWIDTH 654 0
DWIDTH 10 0
BBX 10 14 0 0
BITMAP
0100
0600
0800
0000
E0C0
3080
5880
4880
4480
4680
4380
4180
4080
7000
ENDCHAR
STARTCHAR 0144
ENCODING 324
SWIDTH 458 0
DWIDTH 7 0
BBX 6 10 1 0
BITMAP
08
10
00
00
F8
CC
CC
CC
CC
CC
ENDCHAR
STARTCHAR 0145
ENCODING 325
SWIDTH 654 0
DWIDTH 10 0
BBX 10 13 0 -3
BITMAP
E0C0
3080
5880
4880
4480
4680
4380
4180
4080
7000
0000
0400
0C00
ENDCHAR
STARTCHAR 0146
ENCODING 326
SWIDTH 458 0
DWIDTH 7 0
BBX 6 9 1 -3
BITMAP
F8
CC
CC
CC
CC
CC
00
10
30
ENDCHAR
STARTCHAR 0147
ENCODING 327
SWIDTH 654 0
DWIDTH 10 0
BBX 10 13 0 0
BITMAP
0B00
0400
0000
E0C0
3080
5880
4880
4480
4680
4380
4180
4080
7000
ENDCHAR
STARTCHAR 0148
ENCODING 328
SWIDTH 458 0
DWIDTH 7 0
BBX 6 11 1 0
BITMAP
08
50
30
00
00
F8
CC
CC
CC
CC
CC
ENDCHAR
STARTCHAR 0149
ENCODING 329
SWIDTH 458 0
DWIDTH 7 0
BBX 6 11 1 0
BITMAP
80
80
80
00
00
F8
CC
CC
CC
CC
CC
ENDCHAR
STARTCHAR 014A
ENCODING 330
SWIDTH 654 0
DWIDTH 10 0
BBX 11 14 0 -4
BITMAP
E0E0
3080
5880
4880
4480
4680
4380
4180
4080
7080
0080
0080
0080
0300
ENDCHAR
STARTCHAR 014B
ENCODING 331
SWIDTH 458 0
DWIDTH 7 0
BBX 6 10 1 -4
BITMAP
F8
CC
CC
CC
CC
CC
0C
08
08
30
ENDCHAR
STARTCHAR 014C
ENCODING 332
SWIDTH 654 0
DWIDTH 10 0
BBX 9 13 1 -1
BITMAP
1C00
0000
3E00
4300
8180
8080
8080
8080
8080
C180
4100
3600
0800
ENDCHAR
STARTCHAR 014D
ENCODING 333
SWIDTH 458 0
DWIDTH 7 0
BBX 6 10 1 -1
BITMAP
78
00
00
78
88
84
84
88
58
20
ENDCHAR
STARTCHAR 014E
ENCODING 334
SWIDTH 654 0
DWIDTH 10 0
BBX 9 15 1 -1
BITMAP
0200
1200
0C00
0000
3E00
4300
8180
8080
8080
8080
8080
C180
4100
3600
0800
ENDCHAR
STARTCHAR 014F
ENCODING 335
SWIDTH 458 0
DWIDTH 7 0
BBX 6 11 1 -1
BITMAP
08
48
30
00
78
88
84
84
88
58
20
ENDCHAR
STARTCHAR 0150
ENCODING 336
SWIDTH 654 0
DWIDTH 10 0
BBX 9 15 1 -1
BITMAP
0A00
1400
0000
0000
3E00
4300
8180
8080
8080
8080
8080
C180
4100
3600
0800
ENDCHAR
STARTCHAR 0151
ENCODING 337
SWIDTH 458 0
DWIDTH 7 0
BBX 6 11 1 -1
BITMAP
28
50
00
00
78
88
84
84
88
58
20
ENDCHAR
STARTCHAR 0152
ENCODING 338
SWIDTH 916 0
DWIDTH 14 0
BBX 13 11 1 -1
BITMAP
3FF0
4210
C200
8200
8200
83C0
8200
C208
4208
3F38
00C0
ENDCHAR
STARTCHAR 0153
ENCODING 339
SWIDTH 720 0
DWIDTH 11 0
BBX 10 7 1 -1
BITMAP
7F80
8FC0
8C00
8C00
8C00
5B80
2000
ENDCHAR
STARTCHAR 0154
ENCODING 340
SWIDTH 654 0
DWIDTH 10 0
BBX 8 14 1 0
BITMAP
02
0C
10
00
FC
42
42
42
46
78
4C
46
42
F1
ENDCHAR
STARTCHAR 0155
ENCODING 341
SWIDTH 327 0
DWIDTH 5 0
BBX 4 10 1 0
BITMAP
20
40
00
00
B0
C0
80
80
80
C0
ENDCHAR
STARTCHAR 0156
ENCODING 342
SWIDTH 654 0
DWIDTH 10 0
BBX 8 13 1 -3
BITMAP
FC
42
42
42
46
78
4C
46
42
F1
00
04
0C
ENDCHAR
STARTCHAR 0157
ENCODING 343
SWIDTH 327 0
DWIDTH 5 0
BBX 4 10 1 -4
BITMAP
B0
C0
80
80
80
C0
00
C0
40
80
ENDCHAR
STARTCHAR 0158
ENCODING 344
SWIDTH 654 0
DWIDTH 10 0
BBX 8 13 1 0
BITMAP
2C
10
00
FC
42
42
42
46
78
4C
46
42
F1
ENDCHAR
STARTCHAR 0159
ENCODING 345
SWIDTH 327 0
DWIDTH 5 0
BBX 4 11 1 0
BITMAP
10
A0
60
00
00
B0
C0
80
80
80
C0
ENDCHAR
STARTCHAR 015A
ENCODING 346
SWIDTH 458 0
DWIDTH 7 0
BBX 6 15 1 -1
BITMAP
04
18
20
00
78
80
80
C0
70
18
04
04
84
C8
30
ENDCHAR
STARTCHAR 015B
ENCODING 347
SWIDTH 327 0
DWIDTH 5 0
BBX 4 11 1 -1
BITMAP
20
40
00
00
F0
80
E0
30
10
A0
40
ENDCHAR
STARTCHAR 015C
ENCODING 348
SWIDTH 458 0
DWIDTH 7 0
BBX 6 14 1 -1
BITMAP
30
08
00
78
80
80
C0
70
18
04
04
84
C8
30
ENDCHAR
STARTCHAR 015D
ENCODING 349
SWIDTH 327 0
DWIDTH 5 0
BBX 4 11 1 -1
BITMAP
60
A0
10
00
F0
80
E0
30
10
A0
40
ENDCHAR
STARTCHAR 015E
ENCODING 350
SWIDTH 458 0
DWIDTH 7 0
BBX 6 14 1 -4
BITMAP
78
80
80
C0
70
18
04
04
84
C8
30
30
10
20
ENDCHAR
STARTCHAR 015F
ENCODING 351
SWIDTH 327 0
DWIDTH 5 0
BBX 4 10 1 -4
BITMAP
F0
80
E0
30
10
A0
40
60
20
40
ENDCHAR
STARTCHAR 0160
ENCODING 352
SWIDTH 458 0
DWIDTH 7 0
BBX 6 14 1 -1
BITMAP
58
20
00
78
80
80
C0
70
18
04
04
84
C8
30
ENDCHAR
STARTCHAR 0161
ENCODING 353
SWIDTH 327 0
DWIDTH 5 0
BBX 4 12 1 -1
BITMAP
10
A0
60
00
00
F0
80
E0
30
10
A0
40
ENDCHAR
STARTCHAR 0162
ENCODING 354
SWIDTH 720 0
DWIDTH 11 0
BBX 11 14 0 -4
BITMAP
FFE0
8420
8400
0400
0400
0400
0400
0400
0400
0F00
0000
0600
0200
0400
ENDCHAR
STARTCHAR 0163
ENCODING 355
SWIDTH 261 0
DWIDTH 4 0
BBX 4 11 1 -4
BITMAP
40
E0
C0
C0
C0
C0
70
00
60
20
40
ENDCHAR
STARTCHAR 0164
ENCODING 356
SWIDTH 720 0
DWIDTH 11 0
BBX 11 13 0 0
BITMAP
0B00
0400
0000
FFE0
8420
8400
0400
0400
0400
0400
0400
0400
0F00
ENDCHAR
STARTCHAR 0165
ENCODING 357
SWIDTH 458 0
DWIDTH 7 0
BBX 6 11 1 0
BITMAP
04
04
04
00
40
E0
C0
C0
C0
C0
70
ENDCHAR
STARTCHAR 0166
ENCODING 358
SWIDTH 720 0
DWIDTH 11 0
BBX 11 10 0 0
BITMAP
FFE0
8420
8400
0400
0400
0400
3F80
0400
0400
0F00
ENDCHAR
STARTCHAR 0167
ENCODING 359
SWIDTH 261 0
DWIDTH 4 0
BBX 5 7 0 0
BITMAP
20
70
60
F8
60
60
38
ENDCHAR
STARTCHAR 0168
ENCODING 360
SWIDTH 654 0
DWIDTH 10 0
BBX 11 14 0 -1
BITMAP
0500
0200
0000
F9E0
2080
2080
2080
2080
2080
2080
2080
2080
1900
0600
ENDCHAR
STARTCHAR 0169
ENCODING 361
SWIDTH 458 0
DWIDTH 7 0
BBX 6 9 1 0
BITMAP
F0
00
00
88
88
88
88
C8
7C
ENDCHAR
STARTCHAR 016A
ENCODING 362
SWIDTH 654 0
DWIDTH 10 0
BBX 11 13 0 -1
BITMAP
0E00
0000
F9E0
2080
2080
2080
2080
2080
2080
2080
2080
1900
0600
ENDCHAR
STARTCHAR 016B
ENCODING 363
SWIDTH 458 0
DWIDTH 7 0
BBX 6 9 1 0
BITMAP
F0
00
00
88
88
88
88
C8
7C
ENDCHAR
STARTCHAR 016C
ENCODING 364
SWIDTH 654 0
DWIDTH 10 0
BBX 11 15 0 -1
BITMAP
0100
0900
0600
0000
F9E0
2080
2080
2080
2080
2080
2080
2080
2080
1900
0600
ENDCHAR
STARTCHAR 016D
ENCODING 365
SWIDTH 458 0
DWIDTH 7 0
BBX 6 10 1 0
BITMAP
08
48
30
00
88
88
88
88
C8
7C
ENDCHAR
STARTCHAR 016E
ENCODING 366
SWIDTH 654 0
DWIDTH 10 0
BBX 11 15 0 -1
BITMAP
0600
0A00
0600
0000
F9E0
2080
2080
2080
2080
2080
2080
2080
2080
1900
0600
ENDCHAR
STARTCHAR 016F
ENCODING 367
SWIDTH 458 0
DWIDTH 7 0
BBX 6 10 1 0
BITMAP
30
50
30
00
88
88
88
88
C8
7C
ENDCHAR
STARTCHAR 0170
ENCODING 368
SWIDTH 654 0
DWIDTH 10 0
BBX 11 15 0 -1
BITMAP
0500
0A00
0000
0000
F9E0
2080
2080
2080
2080
2080
2080
2080
2080
1900
0600
ENDCHAR
STARTCHAR 0171
ENCODING 369
SWIDTH 458 0
DWIDTH 7 0
BBX 6 10 1 0
BITMAP
28
50
00
00
88
88
88
88
C8
7C
ENDCHAR
STARTCHAR 0172
ENCODING 370
SWIDTH 654 0
DWIDTH 10 0
BBX 11 13 0 -3
BITMAP
F9E0
2080
2080
2080
2080
2080
2080
2080
2080
1900
0E00
1000
1800
ENDCHAR
STARTCHAR 0173
ENCODING 371
SWIDTH 458 0
DWIDTH 7 0
BBX 6 9 1 -3
BITMAP
88
88
88
88
C8
7C
08
10
18
ENDCHAR
STARTCHAR 0174
ENCODING 372
SWIDTH 916 0
DWIDTH 14 0
BBX 15 13 0 0
BITMAP
0180
0040
0000
EEEE
6688
2288
3310
1110
1110
0AA0
0AA0
04C0
0440
ENDCHAR
STARTCHAR 0175
ENCODING 373
SWIDTH 589 0
DWIDTH 9 0
BBX 8 10 1 0
BITMAP
18
28
04
00
88
99
5A
66
66
24
ENDCHAR
STARTCHAR 0176
ENCODING 374
SWIDTH 589 0
DWIDTH 9 0
BBX 9 13 0 0
BITMAP
0C00
0200
0000
E380
6100
2200
1400
1400
0800
0800
0800
0800
1C00
ENDCHAR
STARTCHAR 0177
ENCODING 375
SWIDTH 392 0
DWIDTH 6 0
BBX 5 14 0 -4
BITMAP
30
50
08
00
40
48
48
30
30
30
20
20
40
C0
ENDCHAR
STARTCHAR 0178
ENCODING 376
SWIDTH 589 0
DWIDTH 9 0
BBX 9 13 0 0
BITMAP
1200
1200
0000
E380
6100
2200
1400
1400
0800
0800
0800
0800
1C00
ENDCHAR
STARTCHAR 0179
ENCODING 377
SWIDTH 589 0
DWIDTH 9 0
BBX 8 14 1 0
BITMAP
02
0C
10
00
FF
82
04
0C
18
10
20
60
41
FF
ENDCHAR
STARTCHAR 017A
ENCODING 378
SWIDTH 327 0
DWIDTH 5 0
BBX 5 11 0 -1
BITMAP
10
20
00
00
F8
90
20
20
48
48
30
ENDCHAR
STARTCHAR 017B
ENCODING 379
SWIDTH 589 0
DWIDTH 9 0
BBX 8 13 1 0
BITMAP
10
00
00
FF
82
04
0C
18
10
20
60
41
FF
ENDCHAR
STARTCHAR 017C
ENCODING 380
SWIDTH 327 0
DWIDTH 5 0
BBX 5 10 0 -1
BITMAP
20
00
00
F8
90
20
20
48
48
30
ENDCHAR
STARTCHAR 017D
ENCODING 381
SWIDTH 589 0
DWIDTH 9 0
BBX 8 13 1 0
BITMAP
2C
10
00
FF
82
04
0C
18
10
20
60
41
FF
ENDCHAR
STARTCHAR 017E
ENCODING 382
SWIDTH 327 0
DWIDTH 5 0
BBX 5 12 0 -1
BITMAP
08
50
30
00
00
F8
90
20
20
48
48
30
ENDCHAR
STARTCHAR 017F
ENCODING 383
SWIDTH 261 0
DWIDTH 4 0
BBX 5 11 1 0
BITMAP
38
48
40
40
C0
C0
C0
C0
C0
C0
C0
ENDCHAR
STARTCHAR 0180
ENCODING 384
SWIDTH 523 0
DWIDTH 8 0
BBX 7 11 0 -1
BITMAP
40
F0
40
40
7C
46
42
42
46
64
18
ENDCHAR
STARTCHAR 0181
ENCODING 385
SWIDTH 589 0
DWIDTH 9 0
BBX 10 11 -2 -1
BITMAP
7F80
8880
48C0
0880
0F00
0880
0840
0840
0840
1D80
0200
ENDCHAR
STARTCHAR 0182
ENCODING 386
SWIDTH 523 0
DWIDTH 8 0
BBX 7 11 0 -1
BITMAP
FE
42
40
40
50
6C
42
42
42
EC
10
ENDCHAR
STARTCHAR 0183
ENCODING 387
SWIDTH 458 0
DWIDTH 7 0
BBX 6 11 0 -1
BITMAP
F8
80
80
80
F8
8C
84
84
8C
C8
30
ENDCHAR
STARTCHAR 0184
ENCODING 388
SWIDTH 589 0
DWIDTH 9 0
BBX 7 10 1 -1
BITMAP
40
C0
40
50
6C
42
42
42
EC
10
ENDCHAR
STARTCHAR 0185
ENCODING 389
SWIDTH 523 0
DWIDTH 8 0
BBX 7 9 0 -1
BITMAP
C0
40
7C
46
42
42
46
64
18
ENDCHAR
STARTCHAR 0186
ENCODING 390
SWIDTH 589 0
DWIDTH 9 0
BBX 8 11 0 -1
BITMAP
FC
02
03
01
01
01
01
03
82
CC
30
ENDCHAR
STARTCHAR 0187
ENCODING 391
SWIDTH 720 0
DWIDTH 11 0
BBX 10 13 0 -1
BITMAP
0040
01C0
3F00
4100
C000
8000
8000
8000
8000
C000
4000
3300
0C00
ENDCHAR
STARTCHAR 0188
ENCODING 392
SWIDTH 458 0
DWIDTH 7 0
BBX 6 8 0 0
BITMAP
04
08
78
80
80
80
80
70
ENDCHAR
STARTCHAR 0189
ENCODING 393
SWIDTH 654 0
DWIDTH 10 0
BBX 9 11 0 -1
BITMAP
FE00
4100
4180
4080
4080
E080
4080
4180
4100
E600
1800
ENDCHAR
STARTCHAR 018A
ENCODING 394
SWIDTH 720 0
DWIDTH 11 0
BBX 12 11 -2 -1
BITMAP
7FC0
8820
4830
0810
0810
0810
0810
0810
0820
1CC0
0300
ENDCHAR
STARTCHAR 018B
ENCODING 395
SWIDTH 589 0
DWIDTH 9 0
BBX 8 11 0 -1
BITMAP
7F
82
02
02
0A
76
42
42
42
37
08
ENDCHAR
STARTCHAR 018C
ENCODING 396
SWIDTH 458 0
DWIDTH 7 0
BBX 6 10 0 0
BITMAP
F8
88
08
08
78
88
88
88
88
FC
ENDCHAR
STARTCHAR 018D
ENCODING 397
SWIDTH 392 0
DWIDTH 6 0
BBX 5 10 0 -1
BITMAP
70
88
88
88
88
70
08
08
50
20
ENDCHAR
STARTCHAR 018E
ENCODING 398
SWIDTH 589 0
DWIDTH 9 0
BBX 8 10 0 0
BITMAP
7F
42
42
02
02
1E
02
82
82
FF
ENDCHAR
STARTCHAR 018F
ENCODING 399
SWIDTH 654 0
DWIDTH 10 0
BBX 9 11 0 -1
BITMAP
3E00
4300
8180
0080
0080
0080
FF80
C180
4100
3600
0800
ENDCHAR
STARTCHAR 0190
ENCODING 400
SWIDTH 458 0
DWIDTH 7 0
BBX 6 10 0 0
BITMAP
38
64
40
20
38
40
C0
40
40
3C
ENDCHAR
STARTCHAR 0191
ENCODING 401
SWIDTH 589 0
DWIDTH 9 0
BBX 9 13 -1 -3
BITMAP
3F80
1080
1000
1200
1200
1E00
1200
1000
1000
1000
1000
1000
E000
ENDCHAR
STARTCHAR 0192
ENCODING 402
SWIDTH 458 0
DWIDTH 7 0
BBX 7 15 -1 -4
BITMAP
0E
12
10
10
30
7C
30
30
30
30
30
30
20
20
C0
ENDCHAR
STARTCHAR 0193
ENCODING 403
SWIDTH 720 0
DWIDTH 11 0
BBX 10 13 0 -1
BITMAP
0040
01C0
3F00
4100
C000
8000
8000
8000
8780
C100
4100
3300
0C00
ENDCHAR
STARTCHAR 0194
ENCODING 404
SWIDTH 654 0
DWIDTH 10 0
BBX 9 10 0 0
BITMAP
E380
6100
2200
1400
1400
0800
0C00
1400
1400
1C00
ENDCHAR
STARTCHAR 0195
ENCODING 405
SWIDTH 720 0
DWIDTH 11 0
BBX 10 12 0 -1
BITMAP
4000
C000
C000
C000
C000
F8C0
C440
C440
C440
C440
C480
0300
ENDCHAR
STARTCHAR 0196
ENCODING 406
SWIDTH 261 0
DWIDTH 4 0
BBX 3 10 0 0
BITMAP
C0
40
40
40
40
40
40
40
40
60
ENDCHAR
STARTCHAR 0197
ENCODING 407
SWIDTH 327 0
DWIDTH 5 0
BBX 4 10 0 0
BITMAP
F0
40
40
40
F0
40
40
40
40
E0
ENDCHAR
STARTCHAR 0198
ENCODING 408
SWIDTH 654 0
DWIDTH 10 0
BBX 9 10 0 0
BITMAP
F180
4600
4800
5000
5000
7000
4800
4400
4600
E780
ENDCHAR
STARTCHAR 0199
ENCODING 409
SWIDTH 458 0
DWIDTH 7 0
BBX 6 11 0 0
BITMAP
38
48
40
40
C0
C8
D0
E0
D0
D8
CC
ENDCHAR
STARTCHAR 019A
ENCODING 410
SWIDTH 327 0
DWIDTH 5 0
BBX 4 11 0 0
BITMAP
20
60
E0
60
60
60
F0
60
60
60
F0
ENDCHAR
STARTCHAR 019B
ENCODING 411
SWIDTH 458 0
DWIDTH 7 0
BBX 6 10 0 0
BITMAP
50
20
60
20
30
30
30
48
48
C4
ENDCHAR
STARTCHAR 019C
ENCODING 412
SWIDTH 981 0
DWIDTH 15 0
BBX 14 11 0 -1
BITMAP
F7BC
2108
2108
2108
2108
2108
2108
2108
2318
35A8
0840
ENDCHAR
STARTCHAR 019D
ENCODING 413
SWIDTH 720 0
DWIDTH 11 0
BBX 11 14 -1 -4
BITMAP
7060
1840
2C40
2440
2240
2340
21C0
20C0
2040
2040
2000
2000
A000
4000
ENDCHAR
STARTCHAR 019E
ENCODING 414
SWIDTH 458 0
DWIDTH 7 0
BBX 6 10 0 -4
BITMAP
F8
CC
CC
CC
CC
CC
0C
0C
0C
0C
ENDCHAR
STARTCHAR 019F
ENCODING 415
SWIDTH 654 0
DWIDTH 10 0
BBX 9 11 0 -1
BITMAP
3E00
4300
8180
8180
8080
FF80
8080
C180
4100
3600
0800
ENDCHAR
STARTCHAR 01A0
ENCODING 416
SWIDTH 654 0
DWIDTH 10 0
BBX 9 11 0 -1
BITMAP
3E80
4300
8180
8080
8080
8080
8080
C180
4100
3600
0800
ENDCHAR
STARTCHAR 01A1
ENCODING 417
SWIDTH 458 0
DWIDTH 7 0
BBX 6 8 0 -1
BITMAP
04
7C
88
84
84
88
58
20
ENDCHAR
STARTCHAR 01A2
ENCODING 418
SWIDTH 850 0
DWIDTH 13 0
BBX 12 13 0 -3
BITMAP
3FE0
4330
8190
8090
8090
8090
8090
C190
4110
3610
0810
0010
0030
ENDCHAR
STARTCHAR 01A3
ENCODING 419
SWIDTH 654 0
DWIDTH 10 0
BBX 9 10 0 -4
BITMAP
7E00
8900
8500
8500
8900
5900
2100
0100
0100
0380
ENDCHAR
STARTCHAR 01A4
ENCODING 420
SWIDTH 589 0
DWIDTH 9 0
BBX 10 10 -2 0
BITMAP
7F80
88C0
4840
0840
08C0
0F00
0800
0800
0800
1E00
ENDCHAR
STARTCHAR 01A5
ENCODING 421
SWIDTH 523 0
DWIDTH 8 0
BBX 6 13 1 -4
BITMAP
70
80
80
F8
88
8C
8C
88
D8
A0
80
80
C0
ENDCHAR
STARTCHAR 01A6
ENCODING 422
SWIDTH 720 0
DWIDTH 11 0
BBX 9 13 1 -1
BITMAP
F000
4000
7C00
4200
4200
4200
4600
7800
4C00
4400
4600
F300
0180
ENDCHAR
STARTCHAR 01A7
ENCODING 423
SWIDTH 458 0
DWIDTH 7 0
BBX 6 11 0 -1
BITMAP
78
04
04
0C
38
E0
80
84
84
48
30
ENDCHAR
STARTCHAR 01A8
ENCODING 424
SWIDTH 392 0
DWIDTH 6 0
BBX 5 7 0 -1
BITMAP
70
08
30
40
88
58
20
ENDCHAR
STARTCHAR 01A9
ENCODING 425
SWIDTH 589 0
DWIDTH 9 0
BBX 8 9 0 0
BITMAP
FF
41
20
10
18
10
20
41
FF
ENDCHAR
STARTCHAR 01AA
ENCODING 426
SWIDTH 392 0
DWIDTH 6 0
BBX 6 15 -1 -5
BITMAP
E0
A0
60
30
30
30
30
30
30
30
10
10
10
14
08
ENDCHAR
STARTCHAR 01AB
ENCODING 427
SWIDTH 327 0
DWIDTH 5 0
BBX 4 9 0 -2
BITMAP
40
F0
40
40
40
40
70
20
C0
ENDCHAR
STARTCHAR 01AC
ENCODING 428
SWIDTH 720 0
DWIDTH 11 0
BBX 11 10 0 0
BITMAP
7FE0
8420
8400
0400
0400
0400
0400
0400
0400
0F00
ENDCHAR
STARTCHAR 01AD
ENCODING 429
SWIDTH 392 0
DWIDTH 6 0
BBX 5 11 0 0
BITMAP
18
28
20
60
60
F0
60
60
60
60
38
ENDCHAR
STARTCHAR 01AE
ENCODING 430
SWIDTH 720 0
DWIDTH 11 0
BBX 11 13 0 -3
BITMAP
FFE0
8420
8400
0400
0400
0400
0400
0400
0400
0400
0400
0200
0180
ENDCHAR
STARTCHAR 01AF
ENCODING 431
SWIDTH 850 0
DWIDTH 13 0
BBX 12 12 0 -1
BITMAP
0010
F9E0
2080
2080
2080
2080
2080
2080
2080
3080
1900
0600
ENDCHAR
STARTCHAR 01B0
ENCODING 432
SWIDTH 523 0
DWIDTH 8 0
BBX 7 8 0 0
BITMAP
02
02
8C
88
88
88
C8
7C
ENDCHAR
STARTCHAR 01B1
ENCODING 433
SWIDTH 720 0
DWIDTH 11 0
BBX 9 11 1 -1
BITMAP
E380
4100
8080
8080
8080
8080
8080
C180
4100
3600
0800
ENDCHAR
STARTCHAR 01B2
ENCODING 434
SWIDTH 720 0
DWIDTH 11 0
BBX 10 11 0 -1
BITMAP
FB00
2080
2040
2040
2040
2040
2040
2040
3080
1900
0600
ENDCHAR
STARTCHAR 01B3
ENCODING 435
SWIDTH 720 0
DWIDTH 11 0
BBX 11 10 0 0
BITMAP
70E0
9840
8880
0D00
0500
0200
0200
0200
0200
0700
ENDCHAR
STARTCHAR 01B4
ENCODING 436
SWIDTH 589 0
DWIDTH 9 0
BBX 8 11 0 -4
BITMAP
07
48
48
48
30
30
30
20
20
40
C0
ENDCHAR
STARTCHAR 01B5
ENCODING 437
SWIDTH 589 0
DWIDTH 9 0
BBX 8 10 0 0
BITMAP
FF
82
04
0C
18
74
20
60
41
FF
ENDCHAR
STARTCHAR 01B6
ENCODING 438
SWIDTH 392 0
DWIDTH 6 0
BBX 5 6 0 0
BITMAP
F8
90
78
20
48
F8
ENDCHAR
STARTCHAR 01B7
ENCODING 439
SWIDTH 458 0
DWIDTH 7 0
BBX 6 11 0 -1
BITMAP
FC
08
10
20
58
0C
04
04
8C
D8
20
ENDCHAR
STARTCHAR 01B8
ENCODING 440
SWIDTH 458 0
DWIDTH 7 0
BBX 6 11 0 -1
BITMAP
F8
84
40
30
E8
80
80
80
84
4C
30
ENDCHAR
STARTCHAR 01B9
ENCODING 441
SWIDTH 523 0
DWIDTH 8 0
BBX 7 11 0 -5
BITMAP
7C
40
20
38
40
80
80
80
46
2C
10
ENDCHAR
STARTCHAR 01BA
ENCODING 442
SWIDTH 392 0
DWIDTH 6 0
BBX 5 10 0 -4
BITMAP
F8
10
20
70
88
30
C0
80
D8
20
ENDCHAR
STARTCHAR 01BB
ENCODING 443
SWIDTH 458 0
DWIDTH 7 0
BBX 6 10 0 0
BITMAP
18
6C
04
0C
08
3C
10
20
44
FC
ENDCHAR
STARTCHAR 01BC
ENCODING 444
SWIDTH 458 0
DWIDTH 7 0
BBX 6 10 0 0
BITMAP
FC
44
40
70
5C
04
04
04
08
70
ENDCHAR
STARTCHAR 01BD
ENCODING 445
SWIDTH 327 0
DWIDTH 5 0
BBX 4 7 0 -1
BITMAP
F0
80
F0
10
10
A0
40
ENDCHAR
STARTCHAR 01BE
ENCODING 446
SWIDTH 327 0
DWIDTH 5 0
BBX 4 8 0 -1
BITMAP
40
F0
40
60
10
90
D0
20
ENDCHAR
STARTCHAR 01BF
ENCODING 447
SWIDTH 392 0
DWIDTH 6 0
BBX 5 10 0 -4
BITMAP
F8
88
88
88
90
A0
C0
80
80
80
ENDCHAR
STARTCHAR 01C0
ENCODING 448
SWIDTH 261 0
DWIDTH 4 0
BBX 1 13 1 -2
BITMAP
80
80
80
80
80
80
80
80
80
80
80
80
80
ENDCHAR
STARTCHAR 01C1
ENCODING 449
SWIDTH 392 0
DWIDTH 6 0
BBX 3 13 1 -2
BITMAP
A0
A0
A0
A0
A0
A0
A0
A0
A0
A0
A0
A0
A0
ENDCHAR
STARTCHAR 01C2
ENCODING 450
SWIDTH 458 0
DWIDTH 7 0
BBX 6 13 0 -2
BITMAP
10
10
10
10
10
10
FC
10
FC
10
10
10
10
ENDCHAR
STARTCHAR 01C3
ENCODING 451
SWIDTH 327 0
DWIDTH 5 0
BBX 2 10 1 0
BITMAP
C0
C0
C0
80
80
80
00
00
00
C0
ENDCHAR
STARTCHAR 01C4
ENCODING 452
SWIDTH 1309 0
DWIDTH 20 0
BBX 19 14 0 -1
BITMAP
000580
000200
000000
FE1FE0
411040
418080
408180
408300
408200
408400
408C00
410820
E61FE0
180000
ENDCHAR
STARTCHAR 01C5
ENCODING 453
SWIDTH 1047 0
DWIDTH 16 0
BBX 15 12 0 -1
BITMAP
0002
FE14
410C
4180
4080
40BE
40A4
4088
4088
4112
E63E
1800
ENDCHAR
STARTCHAR 01C6
ENCODING 454
SWIDTH 785 0
DWIDTH 12 0
BBX 11 11 0 0
BITMAP
0020
0940
08C0
0800
0800
7BE0
8A40
8880
8880
8920
FDE0
ENDCHAR
STARTCHAR 01C7
ENCODING 455
SWIDTH 981 0
DWIDTH 15 0
BBX 14 13 0 -3
BITMAP
F03C
4010
4010
4010
4010
4010
4010
4010
4110
E710
1810
0010
00E0
ENDCHAR
STARTCHAR 01C8
ENCODING 456
SWIDTH 850 0
DWIDTH 13 0
BBX 12 14 0 -4
BITMAP
F000
4030
4000
4000
4030
4030
4030
4030
4130
E730
1830
0020
0020
00C0
ENDCHAR
STARTCHAR 01C9
ENCODING 457
SWIDTH 458 0
DWIDTH 7 0
BBX 6 15 0 -4
BITMAP
40
C0
CC
C0
C0
CC
CC
CC
CC
CC
CC
0C
08
08
30
ENDCHAR
STARTCHAR 01CA
ENCODING 458
SWIDTH 1112 0
DWIDTH 17 0
BBX 16 13 0 -3
BITMAP
E0CF
3084
5884
4884
4484
4684
4384
4184
4084
7004
0004
0004
0038
ENDCHAR
STARTCHAR 01CB
ENCODING 459
SWIDTH 981 0
DWIDTH 15 0
BBX 14 14 0 -4
BITMAP
E0C0
308C
5880
4880
448C
468C
438C
418C
408C
700C
000C
0008
0008
0030
ENDCHAR
STARTCHAR 01CC
ENCODING 460
SWIDTH 720 0
DWIDTH 11 0
BBX 10 13 0 -4
BITMAP
00C0
0000
0000
F8C0
CCC0
CCC0
CCC0
CCC0
CCC0
00C0
0080
0080
0300
ENDCHAR
STARTCHAR 01CD
ENCODING 461
SWIDTH 720 0
DWIDTH 11 0
BBX 10 13 0 0
BITMAP
1600
0800
0000
0C00
0C00
1600
1200
1200
2300
3D00
2100
4180
E1C0
ENDCHAR
STARTCHAR 01CE
ENCODING 462
SWIDTH 392 0
DWIDTH 6 0
BBX 5 11 0 0
BITMAP
10
A0
60
00
00
F0
10
30
D0
90
F8
ENDCHAR
STARTCHAR 01CF
ENCODING 463
SWIDTH 327 0
DWIDTH 5 0
BBX 4 13 0 0
BITMAP
B0
40
00
F0
40
40
40
40
40
40
40
40
E0
ENDCHAR
STARTCHAR 01D0
ENCODING 464
SWIDTH 327 0
DWIDTH 5 0
BBX 4 11 0 0
BITMAP
10
A0
60
00
00
60
60
60
60
60
60
ENDCHAR
STARTCHAR 01D1
ENCODING 465
SWIDTH 654 0
DWIDTH 10 0
BBX 9 14 0 -1
BITMAP
1600
0800
0000
3E00
4300
8180
8080
8080
8080
8080
C180
4100
3600
0800
ENDCHAR
STARTCHAR 01D2
ENCODING 466
SWIDTH 458 0
DWIDTH 7 0
BBX 6 12 0 -1
BITMAP
08
50
30
00
00
78
88
84
84
88
58
20
ENDCHAR
STARTCHAR 01D3
ENCODING 467
SWIDTH 785 0
DWIDTH 12 0
BBX 11 14 0 -1
BITMAP
0B00
0400
0000
F9E0
2080
2080
2080
2080
2080
2080
2080
2080
1900
0600
ENDCHAR
STARTCHAR 01D4
ENCODING 468
SWIDTH 458 0
DWIDTH 7 0
BBX 6 11 0 0
BITMAP
08
50
30
00
00
88
88
88
88
C8
7C
ENDCHAR
STARTCHAR 01D5
ENCODING 469
SWIDTH 785 0
DWIDTH 12 0
BBX 11 15 0 -1
BITMAP
0E00
0900
0900
0000
F9E0
2080
2080
2080
2080
2080
2080
2080
2080
1900
0600
ENDCHAR
STARTCHAR 01D6
ENCODING 470
SWIDTH 523 0
DWIDTH 8 0
BBX 6 11 1 0
BITMAP
78
00
48
00
00
88
88
88
88
C8
7C
ENDCHAR
STARTCHAR 01D7
ENCODING 471
SWIDTH 785 0
DWIDTH 12 0
BBX 11 17 0 -1
BITMAP
0100
0600
0800
0900
0900
0000
F9E0
2080
2080
2080
2080
2080
2080
2080
2080
1900
0600
ENDCHAR
STARTCHAR 01D8
ENCODING 472
SWIDTH 458 0
DWIDTH 7 0
BBX 6 12 0 0
BITMAP
10
20
00
48
00
00
88
88
88
88
C8
7C
ENDCHAR
STARTCHAR 01D9
ENCODING 473
SWIDTH 785 0
DWIDTH 12 0
BBX 11 16 0 -1
BITMAP
0B00
0400
0900
0900
0000
F9E0
2080
2080
2080
2080
2080
2080
2080
2080
1900
0600
ENDCHAR
STARTCHAR 01DA
ENCODING 474
SWIDTH 458 0
DWIDTH 7 0
BBX 6 13 0 0
BITMAP
08
50
30
00
48
00
00
88
88
88
88
C8
7C
ENDCHAR
STARTCHAR 01DB
ENCODING 475
SWIDTH 785 0
DWIDTH 12 0
BBX 11 17 0 -1
BITMAP
1000
0800
0600
0900
0900
0000
F9E0
2080
2080
2080
2080
2080
2080
2080
2080
1900
0600
ENDCHAR
STARTCHAR 01DC
ENCODING 476
SWIDTH 458 0
DWIDTH 7 0
BBX 6 12 0 0
BITMAP
20
10
00
48
00
00
88
88
88
88
C8
7C
ENDCHAR
STARTCHAR 01DD
ENCODING 477
SWIDTH 392 0
DWIDTH 6 0
BBX 5 7 0 -1
BITMAP
F0
10
08
08
F0
90
60
ENDCHAR
STARTCHAR 01DE
ENCODING 478
SWIDTH 720 0
DWIDTH 11 0
BBX 10 14 0 0
BITMAP
1C00
1200
1200
0000
0C00
0C00
1600
1200
1200
2300
3D00
2100
4180
E1C0
ENDCHAR
STARTCHAR 01DF
ENCODING 479
SWIDTH 392 0
DWIDTH 6 0
BBX 5 11 0 0
BITMAP
F0
00
90
00
00
F0
10
30
D0
90
F8
ENDCHAR
STARTCHAR 01E0
ENCODING 480
SWIDTH 720 0
DWIDTH 11 0
BBX 10 14 0 0
BITMAP
0E00
0400
0000
0000
0C00
0C00
1600
1200
1200
2300
3D00
2100
4180
E1C0
ENDCHAR
STARTCHAR 01E1
ENCODING 481
SWIDTH 392 0
DWIDTH 6 0
BBX 5 11 0 0
BITMAP
F0
00
40
00
00
F0
10
30
D0
90
F8
ENDCHAR
STARTCHAR 01E2
ENCODING 482
SWIDTH 850 0
DWIDTH 13 0
BBX 13 13 -1 -1
BITMAP
01C0
0000
07F8
0508
0508
0900
0920
1FE0
2120
2100
4108
E798
0060
ENDCHAR
STARTCHAR 01E3
ENCODING 483
SWIDTH 589 0
DWIDTH 9 0
BBX 8 9 0 0
BITMAP
3C
00
00
FF
99
1A
7C
48
7F
ENDCHAR
STARTCHAR 01E4
ENCODING 484
SWIDTH 654 0
DWIDTH 10 0
BBX 9 11 0 -1
BITMAP
3F00
4100
C000
8000
8000
8300
8100
C780
4100
3300
0C00
ENDCHAR
STARTCHAR 01E5
ENCODING 485
SWIDTH 523 0
DWIDTH 8 0
BBX 7 10 0 -4
BITMAP
7E
44
44
68
50
78
26
FE
C4
78
ENDCHAR
STARTCHAR 01E6
ENCODING 486
SWIDTH 654 0
DWIDTH 10 0
BBX 9 14 1 -1
BITMAP
1600
0800
0000
3F00
4100
C000
8000
8000
8000
8780
C100
4100
3300
0C00
ENDCHAR
STARTCHAR 01E7
ENCODING 487
SWIDTH 523 0
DWIDTH 8 0
BBX 7 15 0 -4
BITMAP
08
50
30
00
00
7E
44
44
68
50
78
26
42
C4
78
ENDCHAR
STARTCHAR 01E8
ENCODING 488
SWIDTH 654 0
DWIDTH 10 0
BBX 9 13 0 0
BITMAP
2C00
1000
0000
F700
4400
4800
5000
5000
7000
4800
4400
4600
E780
ENDCHAR
STARTCHAR 01E9
ENCODING 489
SWIDTH 523 0
DWIDTH 8 0
BBX 7 14 0 0
BITMAP
B0
40
00
20
60
60
60
60
64
68
70
68
6C
66
ENDCHAR
STARTCHAR 01EA
ENCODING 490
SWIDTH 654 0
DWIDTH 10 0
BBX 9 13 0 -3
BITMAP
3E00
4300
8180
8080
8080
8080
8080
C180
4100
3600
1800
2000
3000
ENDCHAR
STARTCHAR 01EB
ENCODING 491
SWIDTH 458 0
DWIDTH 7 0
BBX 6 9 0 -3
BITMAP
78
88
84
84
88
58
20
40
60
ENDCHAR
STARTCHAR 01EC
ENCODING 492
SWIDTH 654 0
DWIDTH 10 0
BBX 9 15 0 -3
BITMAP
1C00
0000
3E00
4300
8180
8080
8080
8080
8080
C180
4100
3600
1800
2000
3000
ENDCHAR
STARTCHAR 01ED
ENCODING 493
SWIDTH 458 0
DWIDTH 7 0
BBX 6 12 0 -3
BITMAP
F0
00
00
78
88
84
84
88
58
20
40
60
ENDCHAR
STARTCHAR 01EE
ENCODING 494
SWIDTH 458 0
DWIDTH 7 0
BBX 6 14 0 -1
BITMAP
58
20
00
FC
08
10
20
58
0C
04
04
8C
D8
20
ENDCHAR
STARTCHAR 01EF
ENCODING 495
SWIDTH 523 0
DWIDTH 8 0
BBX 7 15 0 -4
BITMAP
04
28
18
00
00
7C
08
10
38
44
04
06
04
84
78
ENDCHAR
STARTCHAR 01F0
ENCODING 496
SWIDTH 327 0
DWIDTH 5 0
BBX 5 15 -1 -4
BITMAP
08
50
30
00
00
30
30
30
30
30
30
30
20
20
C0
ENDCHAR
STARTCHAR 01F1
ENCODING 497
SWIDTH 1309 0
DWIDTH 20 0
BBX 19 11 0 -1
BITMAP
FE1FE0
411040
418080
408180
408300
408200
408400
408C00
410820
E61FE0
180000
ENDCHAR
STARTCHAR 01F2
ENCODING 498
SWIDTH 1047 0
DWIDTH 16 0
BBX 15 11 0 -1
BITMAP
FE00
4100
4180
4080
40BE
40A4
4088
4088
4112
E612
180C
ENDCHAR
STARTCHAR 01F3
ENCODING 499
SWIDTH 785 0
DWIDTH 12 0
BBX 11 11 0 -1
BITMAP
0800
0800
0800
0800
7BE0
8A40
8880
8880
8920
FD20
00C0
ENDCHAR
STARTCHAR 01F4
ENCODING 500
SWIDTH 654 0
DWIDTH 10 0
BBX 9 15 0 -1
BITMAP
0100
0600
0800
0000
3F00
4100
C000
8000
8000
8000
8780
C100
4100
3300
0C00
ENDCHAR
STARTCHAR 01F5
ENCODING 501
SWIDTH 523 0
DWIDTH 8 0
BBX 7 14 0 -4
BITMAP
08
10
00
00
7E
44
44
68
50
78
26
42
C4
78
ENDCHAR
STARTCHAR 01F6
ENCODING 502
SWIDTH 981 0
DWIDTH 15 0
BBX 14 11 0 -1
BITMAP
F3C0
4080
4080
4080
4098
7F88
4088
408C
4088
E0D0
0020
ENDCHAR
STARTCHAR 01F7
ENCODING 503
SWIDTH 589 0
DWIDTH 9 0
BBX 8 13 0 -3
BITMAP
FF
21
22
22
24
28
28
30
30
20
20
20
60
ENDCHAR
STARTCHAR 01F8
ENCODING 504
SWIDTH 720 0
DWIDTH 11 0
BBX 10 14 0 0
BITMAP
1000
0800
0600
0000
E0C0
3080
5880
4880
4480
4680
4380
4180
4080
7080
ENDCHAR
STARTCHAR 01F9
ENCODING 505
SWIDTH 458 0
DWIDTH 7 0
BBX 6 10 0 0
BITMAP
20
20
00
00
F8
CC
CC
CC
CC
CC
ENDCHAR
STARTCHAR 01FA
ENCODING 506
SWIDTH 720 0
DWIDTH 11 0
BBX 10 16 0 0
BITMAP
0100
0600
0800
0000
0E00
0C00
0400
0C00
1600
1200
1200
2300
3D00
2100
4180
E1C0
ENDCHAR
STARTCHAR 01FB
ENCODING 507
SWIDTH 392 0
DWIDTH 6 0
BBX 5 13 0 0
BITMAP
20
40
00
60
A0
60
00
F0
10
30
D0
90
F8
ENDCHAR
STARTCHAR 01FC
ENCODING 508
SWIDTH 850 0
DWIDTH 13 0
BBX 13 15 -1 -1
BITMAP
0020
00C0
0100
0000
07F8
0508
0508
0900
0920
1FE0
2120
2100
4108
E798
0060
ENDCHAR
STARTCHAR 01FD
ENCODING 509
SWIDTH 589 0
DWIDTH 9 0
BBX 8 10 0 0
BITMAP
04
08
00
00
FF
9A
1C
78
48
7F
ENDCHAR
STARTCHAR 01FE
ENCODING 510
SWIDTH 654 0
DWIDTH 10 0
BBX 9 15 0 -1
BITMAP
0200
0C00
1000
0000
3E80
4300
8380
8480
8880
8880
9080
E180
4100
B600
0800
ENDCHAR
STARTCHAR 01FF
ENCODING 511
SWIDTH 458 0
DWIDTH 7 0
BBX 6 11 0 -1
BITMAP
10
20
00
08
78
98
A4
C4
C8
D8
20
ENDCHAR
STARTCHAR 0200
ENCODING 512
SWIDTH 720 0
DWIDTH 11 0
BBX 10 14 0 0
BITMAP
1400
1400
0000
0000
0C00
0C00
1600
1200
1200
2300
3D00
2100
4180
E1C0
ENDCHAR
STARTCHAR 0201
ENCODING 513
SWIDTH 392 0
DWIDTH 6 0
BBX 5 10 0 0
BITMAP
A0
A0
00
00
F0
10
30
D0
90
F8
ENDCHAR
STARTCHAR 0202
ENCODING 514
SWIDTH 720 0
DWIDTH 11 0
BBX 10 13 0 0
BITMAP
1E00
0000
0000
0C00
0C00
1600
1200
1200
2300
3D00
2100
4180
E1C0
ENDCHAR
STARTCHAR 0203
ENCODING 515
SWIDTH 392 0
DWIDTH 6 0
BBX 5 9 0 0
BITMAP
F0
00
00
F0
10
30
D0
90
F8
ENDCHAR
STARTCHAR 0204
ENCODING 516
SWIDTH 523 0
DWIDTH 8 0
BBX 7 15 0 -1
BITMAP
28
28
00
00
FE
42
42
40
40
78
40
40
42
E6
18
ENDCHAR
STARTCHAR 0205
ENCODING 517
SWIDTH 392 0
DWIDTH 6 0
BBX 5 10 0 0
BITMAP
A0
A0
00
00
F0
88
F0
80
80
70
ENDCHAR
STARTCHAR 0206
ENCODING 518
SWIDTH 523 0
DWIDTH 8 0
BBX 7 14 0 -1
BITMAP
3C
00
00
FE
42
42
40
40
78
40
40
42
E6
18
ENDCHAR
STARTCHAR 0207
ENCODING 519
SWIDTH 392 0
DWIDTH 6 0
BBX 5 9 0 0
BITMAP
F0
00
00
F0
88
F0
80
80
70
ENDCHAR
STARTCHAR 0208
ENCODING 520
SWIDTH 392 0
DWIDTH 6 0
BBX 5 14 0 0
BITMAP
A0
A0
00
00
78
20
20
20
20
20
20
20
20
70
ENDCHAR
STARTCHAR 0209
ENCODING 521
SWIDTH 261 0
DWIDTH 4 0
BBX 3 10 0 0
BITMAP
A0
A0
00
00
60
60
60
60
60
60
ENDCHAR
STARTCHAR 020A
ENCODING 522
SWIDTH 392 0
DWIDTH 6 0
BBX 5 13 0 0
BITMAP
F0
00
00
78
20
20
20
20
20
20
20
20
70
ENDCHAR
STARTCHAR 020B
ENCODING 523
SWIDTH 327 0
DWIDTH 5 0
BBX 4 9 0 0
BITMAP
F0
00
00
60
60
60
60
60
60
ENDCHAR
STARTCHAR 020C
ENCODING 524
SWIDTH 654 0
DWIDTH 10 0
BBX 9 15 0 -1
BITMAP
2800
2800
0000
0000
3E00
4300
8180
8080
8080
8080
8080
C180
4100
3600
0800
ENDCHAR
STARTCHAR 020D
ENCODING 525
SWIDTH 458 0
DWIDTH 7 0
BBX 6 11 0 -1
BITMAP
90
90
00
00
78
88
84
84
88
58
20
ENDCHAR
STARTCHAR 020E
ENCODING 526
SWIDTH 654 0
DWIDTH 10 0
BBX 9 14 0 -1
BITMAP
3C00
0000
0000
3E00
4300
8180
8080
8080
8080
8080
C180
4100
3600
0800
ENDCHAR
STARTCHAR 020F
ENCODING 527
SWIDTH 458 0
DWIDTH 7 0
BBX 6 10 0 -1
BITMAP
78
00
00
78
88
84
84
88
58
20
ENDCHAR
STARTCHAR 0210
ENCODING 528
SWIDTH 523 0
DWIDTH 8 0
BBX 8 14 0 0
BITMAP
50
50
00
00
FC
42
42
42
46
78
4C
46
42
F1
ENDCHAR
STARTCHAR 0211
ENCODING 529
SWIDTH 392 0
DWIDTH 6 0
BBX 5 10 0 0
BITMAP
90
90
00
00
58
60
40
40
40
60
ENDCHAR
STARTCHAR 0212
ENCODING 530
SWIDTH 589 0
DWIDTH 9 0
BBX 8 13 0 0
BITMAP
3C
00
00
FC
42
42
42
46
78
4C
46
42
F1
ENDCHAR
STARTCHAR 0213
ENCODING 531
SWIDTH 327 0
DWIDTH 5 0
BBX 4 9 0 0
BITMAP
F0
00
00
B0
C0
80
80
80
C0
ENDCHAR
STARTCHAR 0214
ENCODING 532
SWIDTH 785 0
DWIDTH 12 0
BBX 11 15 0 -1
BITMAP
1200
1200
0000
0000
F9E0
2080
2080
2080
2080
2080
2080
2080
2080
1900
0600
ENDCHAR
STARTCHAR 0215
ENCODING 533
SWIDTH 458 0
DWIDTH 7 0
BBX 6 10 0 0
BITMAP
90
90
00
00
88
88
88
88
C8
7C
ENDCHAR
STARTCHAR 0216
ENCODING 534
SWIDTH 785 0
DWIDTH 12 0
BBX 11 14 0 -1
BITMAP
0F00
0000
0000
F9E0
2080
2080
2080
2080
2080
2080
2080
2080
1900
0600
ENDCHAR
STARTCHAR 0217
ENCODING 535
SWIDTH 458 0
DWIDTH 7 0
BBX 6 9 0 0
BITMAP
78
00
00
88
88
88
88
C8
7C
ENDCHAR
STARTCHAR 0218
ENCODING 536
SWIDTH 458 0
DWIDTH 7 0
BBX 6 14 0 -4
BITMAP
78
80
80
C0
70
18
04
04
84
C8
30
10
10
10
ENDCHAR
STARTCHAR 0219
ENCODING 537
SWIDTH 327 0
DWIDTH 5 0
BBX 4 10 0 -4
BITMAP
70
80
E0
30
10
A0
40
40
40
40
ENDCHAR
STARTCHAR 021A
ENCODING 538
SWIDTH 785 0
DWIDTH 12 0
BBX 11 14 0 -4
BITMAP
FFE0
8420
8400
0400
0400
0400
0400
0400
0400
0F00
0000
0400
0400
0400
ENDCHAR
STARTCHAR 021B
ENCODING 539
SWIDTH 392 0
DWIDTH 6 0
BBX 5 11 0 -4
BITMAP
20
F0
60
60
60
60
38
00
10
10
10
ENDCHAR
STARTCHAR 021C
ENCODING 540
SWIDTH 392 0
DWIDTH 6 0
BBX 5 11 0 -1
BITMAP
70
88
08
10
30
48
08
08
08
30
40
ENDCHAR
STARTCHAR 021D
ENCODING 541
SWIDTH 327 0
DWIDTH 5 0
BBX 4 10 0 -4
BITMAP
F0
10
10
20
F0
10
10
10
20
C0
ENDCHAR
STARTCHAR 021E
ENCODING 542
SWIDTH 720 0
DWIDTH 11 0
BBX 10 13 0 0
BITMAP
1600
0800
0000
F3C0
4080
4080
4080
4080
7F80
4080
4080
4080
E1C0
ENDCHAR
STARTCHAR 021F
ENCODING 543
SWIDTH 458 0
DWIDTH 7 0
BBX 6 14 0 0
BITMAP
58
20
00
40
C0
C0
C0
C0
F8
C4
C4
C4
C4
CC
ENDCHAR
STARTCHAR 0220
ENCODING 544
SWIDTH 654 0
DWIDTH 10 0
BBX 10 13 0 -3
BITMAP
EF00
3080
2080
2080
2080
2080
2080
2080
2080
7080
0080
0080
00C0
ENDCHAR
STARTCHAR 0222
ENCODING 546
SWIDTH 523 0
DWIDTH 8 0
BBX 7 11 0 -1
BITMAP
28
44
84
44
38
58
C4
86
C4
68
10
ENDCHAR
STARTCHAR 0223
ENCODING 547
SWIDTH 392 0
DWIDTH 6 0
BBX 5 11 0 -1
BITMAP
50
88
88
C8
70
70
88
88
88
50
20
ENDCHAR
STARTCHAR 0224
ENCODING 548
SWIDTH 589 0
DWIDTH 9 0
BBX 8 12 0 -2
BITMAP
FF
82
04
0C
18
10
20
60
40
FE
01
01
ENDCHAR
STARTCHAR 0225
ENCODING 549
SWIDTH 458 0
DWIDTH 7 0
BBX 6 9 0 -3
BITMAP
F8
90
20
20
40
40
3C
04
08
ENDCHAR
STARTCHAR 0226
ENCODING 550
SWIDTH 720 0
DWIDTH 11 0
BBX 10 13 0 0
BITMAP
0400
0000
0000
0C00
0C00
1600
1200
1200
2300
3D00
2100
4180
E1C0
ENDCHAR
STARTCHAR 0227
ENCODING 551
SWIDTH 392 0
DWIDTH 6 0
BBX 5 9 0 0
BITMAP
40
00
00
F0
10
30
D0
90
F8
ENDCHAR
STARTCHAR 0228
ENCODING 552
SWIDTH 523 0
DWIDTH 8 0
BBX 7 14 0 -4
BITMAP
FE
42
42
40
40
78
40
40
42
E6
18
30
10
20
ENDCHAR
STARTCHAR 0229
ENCODING 553
SWIDTH 392 0
DWIDTH 6 0
BBX 5 10 0 -4
BITMAP
F0
88
F0
80
80
70
00
60
20
40
ENDCHAR
STARTCHAR 022A
ENCODING 554
SWIDTH 654 0
DWIDTH 10 0
BBX 9 15 0 -1
BITMAP
1C00
2400
2400
0000
3E00
4300
8180
8080
8080
8080
8080
C180
4100
3600
0800
ENDCHAR
STARTCHAR 022B
ENCODING 555
SWIDTH 458 0
DWIDTH 7 0
BBX 6 12 0 -1
BITMAP
F0
00
48
00
00
78
88
84
84
88
58
20
ENDCHAR
STARTCHAR 022C
ENCODING 556
SWIDTH 654 0
DWIDTH 10 0
BBX 9 16 0 -1
BITMAP
3C00
0000
1400
2800
0000
3E00
4300
8180
8080
8080
8080
8080
C180
4100
3600
0800
ENDCHAR
STARTCHAR 022D
ENCODING 557
SWIDTH 458 0
DWIDTH 7 0
BBX 6 12 0 -1
BITMAP
78
00
28
50
00
78
88
84
84
88
58
20
ENDCHAR
STARTCHAR 022E
ENCODING 558
SWIDTH 654 0
DWIDTH 10 0
BBX 9 14 0 -1
BITMAP
0800
0000
0000
3E00
4300
8180
8080
8080
8080
8080
C180
4100
3600
0800
ENDCHAR
STARTCHAR 022F
ENCODING 559
SWIDTH 458 0
DWIDTH 7 0
BBX 6 10 0 -1
BITMAP
20
00
00
78
88
84
84
88
58
20
ENDCHAR
STARTCHAR 0230
ENCODING 560
SWIDTH 654 0
DWIDTH 10 0
BBX 9 15 0 -1
BITMAP
1C00
0000
0800
0000
3E00
4300
8180
8080
8080
8080
8080
C180
4100
3600
0800
ENDCHAR
STARTCHAR 0231
ENCODING 561
SWIDTH 458 0
DWIDTH 7 0
BBX 6 12 0 -1
BITMAP
78
00
20
00
00
78
88
84
84
88
58
20
ENDCHAR
STARTCHAR 0232
ENCODING 562
SWIDTH 654 0
DWIDTH 10 0
BBX 9 12 0 0
BITMAP
1C00
0000
E380
6100
2200
1400
1400
0800
0800
0800
0800
1C00
ENDCHAR
STARTCHAR 0233
ENCODING 563
SWIDTH 392 0
DWIDTH 6 0
BBX 5 13 0 -4
BITMAP
78
00
00
48
48
48
30
30
30
20
20
40
C0
ENDCHAR
STARTCHAR 0237
ENCODING 567
SWIDTH 261 0
DWIDTH 4 0
BBX 4 10 -1 -4
BITMAP
30
30
30
30
30
30
30
20
20
C0
ENDCHAR
STARTCHAR 0248
ENCODING 584
SWIDTH 392 0
DWIDTH 6 0
BBX 6 13 -1 -3
BITMAP
3C
10
10
10
7C
10
10
10
10
10
10
10
E0
ENDCHAR
STARTCHAR 0249
ENCODING 585
SWIDTH 327 0
DWIDTH 5 0
BBX 5 13 -1 -4
BITMAP
30
00
00
30
30
78
30
30
30
30
20
20
C0
ENDCHAR
STARTCHAR 0250
ENCODING 592
SWIDTH 458 0
DWIDTH 7 0
BBX 6 7 0 -1
BITMAP
F8
68
70
60
64
28
10
ENDCHAR
STARTCHAR 0251
ENCODING 593
SWIDTH 458 0
DWIDTH 7 0
BBX 6 6 0 0
BITMAP
78
88
88
88
98
EC
ENDCHAR
STARTCHAR 0252
ENCODING 594
SWIDTH 523 0
DWIDTH 8 0
BBX 7 7 0 -1
BITMAP
BC
62
62
62
62
64
18
ENDCHAR
STARTCHAR 0253
ENCODING 595
SWIDTH 458 0
DWIDTH 7 0
BBX 6 12 0 -1
BITMAP
20
C0
80
80
80
F8
8C
84
84
8C
C8
30
ENDCHAR
STARTCHAR 0254
ENCODING 596
SWIDTH 392 0
DWIDTH 6 0
BBX 5 6 0 0
BITMAP
F0
18
08
08
18
F0
ENDCHAR
STARTCHAR 0255
ENCODING 597
SWIDTH 392 0
DWIDTH 6 0
BBX 5 7 0 -1
BITMAP
78
80
80
90
E8
78
80
ENDCHAR
STARTCHAR 0256
ENCODING 598
SWIDTH 589 0
DWIDTH 9 0
BBX 8 14 0 -4
BITMAP
08
08
08
08
78
88
88
88
88
F8
08
08
08
07
ENDCHAR
STARTCHAR 0257
ENCODING 599
SWIDTH 523 0
DWIDTH 8 0
BBX 7 11 0 0
BITMAP
02
0C
08
08
08
78
88
88
88
88
FC
ENDCHAR
STARTCHAR 0258
ENCODING 600
SWIDTH 392 0
DWIDTH 6 0
BBX 5 6 0 0
BITMAP
F0
90
F8
18
10
F0
ENDCHAR
STARTCHAR 0259
ENCODING 601
SWIDTH 392 0
DWIDTH 6 0
BBX 5 7 0 -1
BITMAP
F0
10
08
08
F0
90
60
ENDCHAR
STARTCHAR 025A
ENCODING 602
SWIDTH 523 0
DWIDTH 8 0
BBX 7 7 0 -1
BITMAP
F0
10
0C
7C
92
90
60
ENDCHAR
STARTCHAR 025B
ENCODING 603
SWIDTH 392 0
DWIDTH 6 0
BBX 5 6 0 0
BITMAP
78
40
70
40
C0
78
ENDCHAR
STARTCHAR 025C
ENCODING 604
SWIDTH 327 0
DWIDTH 5 0
BBX 4 6 0 0
BITMAP
F0
10
60
10
10
F0
ENDCHAR
STARTCHAR 025D
ENCODING 605
SWIDTH 458 0
DWIDTH 7 0
BBX 6 6 0 0
BITMAP
F0
18
6C
10
10
F0
ENDCHAR
STARTCHAR 025E
ENCODING 606
SWIDTH 392 0
DWIDTH 6 0
BBX 5 6 0 0
BITMAP
78
88
B0
88
C8
78
ENDCHAR
STARTCHAR 025F
ENCODING 607
SWIDTH 327 0
DWIDTH 5 0
BBX 5 10 -1 -4
BITMAP
30
30
78
30
30
30
30
20
20
C0
ENDCHAR
STARTCHAR 0260
ENCODING 608
SWIDTH 523 0
DWIDTH 8 0
BBX 7 12 0 -4
BITMAP
02
0E
F8
88
88
88
88
58
28
08
08
F0
ENDCHAR
STARTCHAR 0261
ENCODING 609
SWIDTH 392 0
DWIDTH 6 0
BBX 5 10 0 -4
BITMAP
F8
88
88
88
88
58
28
08
08
F0
ENDCHAR
STARTCHAR 0262
ENCODING 610
SWIDTH 523 0
DWIDTH 8 0
BBX 7 7 0 -1
BITMAP
7C
40
C0
CE
44
24
18
ENDCHAR
STARTCHAR 0263
ENCODING 611
SWIDTH 392 0
DWIDTH 6 0
BBX 5 10 0 -4
BITMAP
88
90
50
60
60
20
20
60
90
70
ENDCHAR
STARTCHAR 0264
ENCODING 612
SWIDTH 589 0
DWIDTH 9 0
BBX 8 7 0 -1
BITMAP
E6
A9
10
18
28
28
10
ENDCHAR
STARTCHAR 0265
ENCODING 613
SWIDTH 458 0
DWIDTH 7 0
BBX 6 10 0 -4
BITMAP
C4
44
44
44
44
7C
04
04
04
04
ENDCHAR
STARTCHAR 0266
ENCODING 614
SWIDTH 523 0
DWIDTH 8 0
BBX 6 11 1 0
BITMAP
38
48
40
40
C0
F8
C4
C4
C4
C4
CC
ENDCHAR
STARTCHAR 0267
ENCODING 615
SWIDTH 458 0
DWIDTH 7 0
BBX 6 15 0 -4
BITMAP
38
48
40
40
C0
F8
C4
C4
C4
C4
C4
04
04
08
38
ENDCHAR
STARTCHAR 0268
ENCODING 616
SWIDTH 327 0
DWIDTH 5 0
BBX 4 10 0 0
BITMAP
60
00
00
00
60
60
F0
60
60
60
ENDCHAR
STARTCHAR 0269
ENCODING 617
SWIDTH 261 0
DWIDTH 4 0
BBX 3 6 0 0
BITMAP
C0
C0
C0
C0
C0
60
ENDCHAR
STARTCHAR 026A
ENCODING 618
SWIDTH 327 0
DWIDTH 5 0
BBX 2 6 1 0
BITMAP
C0
C0
C0
C0
C0
C0
ENDCHAR
STARTCHAR 026B
ENCODING 619
SWIDTH 327 0
DWIDTH 5 0
BBX 4 11 0 0
BITMAP
20
60
60
60
60
F0
60
60
60
60
60
ENDCHAR
STARTCHAR 026C
ENCODING 620
SWIDTH 327 0
DWIDTH 5 0
BBX 5 11 -1 0
BITMAP
10
30
30
30
30
F0
B0
78
30
30
30
ENDCHAR
STARTCHAR 026D
ENCODING 621
SWIDTH 327 0
DWIDTH 5 0
BBX 4 15 0 -4
BITMAP
40
C0
C0
C0
C0
C0
C0
C0
C0
C0
C0
40
40
40
30
ENDCHAR
STARTCHAR 026E
ENCODING 622
SWIDTH 589 0
DWIDTH 9 0
BBX 8 16 0 -5
BITMAP
40
C0
C0
C0
C0
FE
C4
C8
DC
C2
C3
03
03
62
34
08
ENDCHAR
STARTCHAR 026F
ENCODING 623
SWIDTH 720 0
DWIDTH 11 0
BBX 10 6 0 0
BITMAP
CCC0
CCC0
CCC0
CCC0
CCC0
77C0
ENDCHAR
STARTCHAR 0270
ENCODING 624
SWIDTH 720 0
DWIDTH 11 0
BBX 10 10 0 -4
BITMAP
CCC0
CC80
CC80
CC80
CC80
7780
0080
0080
00C0
0080
ENDCHAR
STARTCHAR 0271
ENCODING 625
SWIDTH 720 0
DWIDTH 11 0
BBX 10 10 0 -4
BITMAP
FF80
CCC0
CCC0
CCC0
CCC0
CCC0
0080
0080
0280
0100
ENDCHAR
STARTCHAR 0272
ENCODING 626
SWIDTH 523 0
DWIDTH 8 0
BBX 8 10 -1 -4
BITMAP
3E
33
33
33
33
33
30
20
20
C0
ENDCHAR
STARTCHAR 0273
ENCODING 627
SWIDTH 589 0
DWIDTH 9 0
BBX 8 10 0 -4
BITMAP
F8
CC
CC
CC
CC
CC
0C
04
04
03
ENDCHAR
STARTCHAR 0274
ENCODING 628
SWIDTH 458 0
DWIDTH 7 0
BBX 6 6 0 0
BITMAP
8C
C8
A8
98
98
88
ENDCHAR
STARTCHAR 0275
ENCODING 629
SWIDTH 458 0
DWIDTH 7 0
BBX 6 6 0 0
BITMAP
78
84
FC
84
84
78
ENDCHAR
STARTCHAR 0276
ENCODING 630
SWIDTH 720 0
DWIDTH 11 0
BBX 10 6 0 0
BITMAP
3FC0
4440
C400
C780
4440
3FC0
ENDCHAR
STARTCHAR 0277
ENCODING 631
SWIDTH 589 0
DWIDTH 9 0
BBX 8 7 0 -1
BITMAP
42
93
91
91
91
EA
04
ENDCHAR
STARTCHAR 0278
ENCODING 632
SWIDTH 458 0
DWIDTH 7 0
BBX 6 13 0 -3
BITMAP
70
20
20
20
78
A8
A4
A4
A8
78
20
20
20
ENDCHAR
STARTCHAR 0279
ENCODING 633
SWIDTH 327 0
DWIDTH 5 0
BBX 4 6 0 0
BITMAP
10
10
10
10
30
D0
ENDCHAR
STARTCHAR 027A
ENCODING 634
SWIDTH 327 0
DWIDTH 5 0
BBX 4 10 0 0
BITMAP
10
10
10
10
10
10
10
10
30
D0
ENDCHAR
STARTCHAR 027B
ENCODING 635
SWIDTH 458 0
DWIDTH 7 0
BBX 6 10 0 -4
BITMAP
10
10
10
10
30
D0
10
10
14
08
ENDCHAR
STARTCHAR 027C
ENCODING 636
SWIDTH 327 0
DWIDTH 5 0
BBX 4 10 0 -4
BITMAP
B0
C0
80
80
80
80
80
80
80
C0
ENDCHAR
STARTCHAR 027D
ENCODING 637
SWIDTH 327 0
DWIDTH 5 0
BBX 4 10 0 -4
BITMAP
B0
C0
80
80
80
80
80
80
80
70
ENDCHAR
STARTCHAR 027E
ENCODING 638
SWIDTH 327 0
DWIDTH 5 0
BBX 4 6 0 0
BITMAP
70
40
80
80
80
C0
ENDCHAR
STARTCHAR 027F
ENCODING 639
SWIDTH 327 0
DWIDTH 5 0
BBX 4 6 0 0
BITMAP
E0
10
10
10
10
10
ENDCHAR
STARTCHAR 0280
ENCODING 640
SWIDTH 458 0
DWIDTH 7 0
BBX 6 7 0 -1
BITMAP
F0
88
98
F0
90
C8
04
ENDCHAR
STARTCHAR 0281
ENCODING 641
SWIDTH 392 0
DWIDTH 6 0
BBX 5 7 0 -1
BITMAP
88
90
A0
D0
88
90
60
ENDCHAR
STARTCHAR 0282
ENCODING 642
SWIDTH 327 0
DWIDTH 5 0
BBX 4 8 0 -2
BITMAP
70
80
E0
30
10
A0
C0
60
ENDCHAR
STARTCHAR 0283
ENCODING 643
SWIDTH 392 0
DWIDTH 6 0
BBX 6 15 -1 -4
BITMAP
0C
10
10
10
30
30
30
30
30
30
30
30
20
20
E0
ENDCHAR
STARTCHAR 0284
ENCODING 644
SWIDTH 392 0
DWIDTH 6 0
BBX 7 15 -2 -4
BITMAP
02
0C
08
08
08
08
08
08
08
08
1C
08
08
10
E0
ENDCHAR
STARTCHAR 0285
ENCODING 645
SWIDTH 392 0
DWIDTH 6 0
BBX 6 9 -1 0
BITMAP
E0
20
20
30
30
10
10
10
0C
ENDCHAR
STARTCHAR 0286
ENCODING 646
SWIDTH 392 0
DWIDTH 6 0
BBX 6 16 -1 -5
BITMAP
0C
14
10
10
10
30
30
30
30
30
30
30
20
E0
B0
40
ENDCHAR
STARTCHAR 0287
ENCODING 647
SWIDTH 392 0
DWIDTH 6 0
BBX 5 7 0 -1
BITMAP
E0
10
10
10
10
F8
10
ENDCHAR
STARTCHAR 0288
ENCODING 648
SWIDTH 392 0
DWIDTH 6 0
BBX 5 11 0 -4
BITMAP
20
F0
60
60
60
60
60
60
60
60
38
ENDCHAR
STARTCHAR 0289
ENCODING 649
SWIDTH 523 0
DWIDTH 8 0
BBX 7 6 0 0
BITMAP
44
44
FE
44
64
3A
ENDCHAR
STARTCHAR 028A
ENCODING 650
SWIDTH 523 0
DWIDTH 8 0
BBX 7 7 0 -1
BITMAP
EE
44
82
82
44
6C
10
ENDCHAR
STARTCHAR 028B
ENCODING 651
SWIDTH 458 0
DWIDTH 7 0
BBX 6 7 0 -1
BITMAP
D8
C4
C4
C4
CC
48
30
ENDCHAR
STARTCHAR 028C
ENCODING 652
SWIDTH 392 0
DWIDTH 6 0
BBX 5 6 0 0
BITMAP
20
60
A0
90
90
98
ENDCHAR
STARTCHAR 028D
ENCODING 653
SWIDTH 589 0
DWIDTH 9 0
BBX 8 6 0 0
BITMAP
24
66
AA
9B
91
99
ENDCHAR
STARTCHAR 028E
ENCODING 654
SWIDTH 458 0
DWIDTH 7 0
BBX 6 10 0 0
BITMAP
0C
10
10
10
30
30
58
48
88
8C
ENDCHAR
STARTCHAR 028F
ENCODING 655
SWIDTH 392 0
DWIDTH 6 0
BBX 5 6 0 0
BITMAP
88
90
60
60
60
60
ENDCHAR
STARTCHAR 0290
ENCODING 656
SWIDTH 523 0
DWIDTH 8 0
BBX 7 10 0 -4
BITMAP
F0
90
20
20
48
F8
08
08
08
06
ENDCHAR
STARTCHAR 0291
ENCODING 657
SWIDTH 458 0
DWIDTH 7 0
BBX 6 7 0 -1
BITMAP
F0
90
20
28
54
FC
10
ENDCHAR
STARTCHAR 0292
ENCODING 658
SWIDTH 523 0
DWIDTH 8 0
BBX 7 10 0 -4
BITMAP
7C
08
10
38
44
04
06
04
84
78
ENDCHAR
STARTCHAR 0293
ENCODING 659
SWIDTH 523 0
DWIDTH 8 0
BBX 7 11 0 -5
BITMAP
7C
08
10
38
44
04
06
74
8C
5C
24
ENDCHAR
STARTCHAR 0294
ENCODING 660
SWIDTH 458 0
DWIDTH 7 0
BBX 6 11 0 0
BITMAP
30
C8
C4
04
0C
18
30
30
30
30
30
ENDCHAR
STARTCHAR 0295
ENCODING 661
SWIDTH 392 0
DWIDTH 6 0
BBX 6 11 0 0
BITMAP
38
44
C4
C0
40
60
10
10
10
10
30
ENDCHAR
STARTCHAR 0296
ENCODING 662
SWIDTH 458 0
DWIDTH 7 0
BBX 6 12 0 -1
BITMAP
38
30
30
30
30
30
08
04
C4
8C
48
30
ENDCHAR
STARTCHAR 0297
ENCODING 663
SWIDTH 392 0
DWIDTH 6 0
BBX 5 10 0 -4
BITMAP
78
80
80
80
80
80
80
80
80
78
ENDCHAR
STARTCHAR 0298
ENCODING 664
SWIDTH 720 0
DWIDTH 11 0
BBX 10 12 0 -1
BITMAP
1E00
6100
4180
8080
80C0
8CC0
8CC0
C0C0
C080
6100
3200
0C00
ENDCHAR
STARTCHAR 0299
ENCODING 665
SWIDTH 392 0
DWIDTH 6 0
BBX 5 6 0 0
BITMAP
F0
90
F0
90
88
F0
ENDCHAR
STARTCHAR 029A
ENCODING 666
SWIDTH 392 0
DWIDTH 6 0
BBX 5 7 0 -1
BITMAP
78
C8
68
48
88
58
20
ENDCHAR
STARTCHAR 029B
ENCODING 667
SWIDTH 654 0
DWIDTH 10 0
BBX 9 10 0 -1
BITMAP
0180
0200
0200
3E00
4200
C000
CE00
4200
2600
1800
ENDCHAR
STARTCHAR 029C
ENCODING 668
SWIDTH 523 0
DWIDTH 8 0
BBX 7 6 0 0
BITMAP
86
84
84
FC
84
C4
ENDCHAR
STARTCHAR 029D
ENCODING 669
SWIDTH 327 0
DWIDTH 5 0
BBX 5 15 -1 -5
BITMAP
30
00
00
00
30
30
30
30
30
30
30
78
A0
A0
40
ENDCHAR
STARTCHAR 029E
ENCODING 670
SWIDTH 392 0
DWIDTH 6 0
BBX 5 10 0 -4
BITMAP
C8
68
28
38
48
C8
08
08
08
08
ENDCHAR
STARTCHAR 029F
ENCODING 671
SWIDTH 392 0
DWIDTH 6 0
BBX 5 6 0 0
BITMAP
80
80
80
80
88
F8
ENDCHAR
STARTCHAR 02A0
ENCODING 672
SWIDTH 523 0
DWIDTH 8 0
BBX 7 12 0 -4
BITMAP
06
08
F8
88
88
88
88
58
28
08
08
08
ENDCHAR
STARTCHAR 02A1
ENCODING 673
SWIDTH 458 0
DWIDTH 7 0
BBX 6 11 0 0
BITMAP
30
C8
C4
04
0C
18
30
30
30
30
30
ENDCHAR
STARTCHAR 02A2
ENCODING 674
SWIDTH 458 0
DWIDTH 7 0
BBX 6 11 0 0
BITMAP
38
44
C4
C0
40
60
10
38
10
10
30
ENDCHAR
STARTCHAR 02A3
ENCODING 675
SWIDTH 720 0
DWIDTH 11 0
BBX 10 10 0 0
BITMAP
0800
0800
0800
0800
7F80
8880
8900
8900
8A40
FFC0
ENDCHAR
STARTCHAR 02A4
ENCODING 676
SWIDTH 785 0
DWIDTH 12 0
BBX 11 15 0 -5
BITMAP
0800
0800
0800
0800
7FE0
8840
8880
8980
8860
FC20
0020
0020
0460
0680
0100
ENDCHAR
STARTCHAR 02A5
ENCODING 677
SWIDTH 785 0
DWIDTH 12 0
BBX 11 11 0 -1
BITMAP
0800
0800
0800
0800
7F80
8980
8900
8A40
8AA0
FFE0
0100
ENDCHAR
STARTCHAR 02A6
ENCODING 678
SWIDTH 523 0
DWIDTH 8 0
BBX 7 8 0 -1
BITMAP
20
7C
F0
6C
62
62
22
1C
ENDCHAR
STARTCHAR 02A7
ENCODING 679
SWIDTH 589 0
DWIDTH 9 0
BBX 8 15 0 -4
BITMAP
03
04
04
04
24
FC
64
64
64
64
3C
04
04
08
38
ENDCHAR
STARTCHAR 02A8
ENCODING 680
SWIDTH 654 0
DWIDTH 10 0
BBX 9 7 0 0
BITMAP
2000
F780
6800
6800
6980
6E80
3F80
ENDCHAR
STARTCHAR 02A9
ENCODING 681
SWIDTH 785 0
DWIDTH 12 0
BBX 11 15 0 -4
BITMAP
1C00
2400
2000
2000
6000
FFC0
6640
6660
6660
6660
6660
0060
0040
0040
0180
ENDCHAR
STARTCHAR 02AA
ENCODING 682
SWIDTH 458 0
DWIDTH 7 0
BBX 6 12 0 -1
BITMAP
40
C0
C0
C0
C0
FC
E0
F8
CC
C4
E8
10
ENDCHAR
STARTCHAR 02AB
ENCODING 683
SWIDTH 458 0
DWIDTH 7 0
BBX 6 11 0 0
BITMAP
40
C0
C0
C0
C0
FC
C8
D8
D0
F4
FC
ENDCHAR
STARTCHAR 02AC
ENCODING 684
SWIDTH 589 0
DWIDTH 9 0
BBX 8 10 0 0
BITMAP
DB
5A
6C
6C
24
DB
5A
6C
6C
24
ENDCHAR
STARTCHAR 02AD
ENCODING 685
SWIDTH 523 0
DWIDTH 8 0
BBX 7 6 0 1
BITMAP
FE
82
00
00
FE
82
ENDCHAR
STARTCHAR 02B0
ENCODING 688
SWIDTH 327 0
DWIDTH 5 0
BBX 4 7 0 3
BITMAP
80
80
C0
A0
A0
A0
10
ENDCHAR
STARTCHAR 02B1
ENCODING 689
SWIDTH 261 0
DWIDTH 4 0
BBX 3 6 0 4
BITMAP
C0
80
C0
A0
A0
A0
ENDCHAR
STARTCHAR 02B2
ENCODING 690
SWIDTH 196 0
DWIDTH 3 0
BBX 2 8 0 2
BITMAP
40
00
40
40
40
40
40
80
ENDCHAR
STARTCHAR 02B3
ENCODING 691
SWIDTH 261 0
DWIDTH 4 0
BBX 3 4 0 4
BITMAP
A0
C0
80
80
ENDCHAR
STARTCHAR 02B4
ENCODING 692
SWIDTH 261 0
DWIDTH 4 0
BBX 3 4 0 4
BITMAP
80
80
C0
A0
ENDCHAR
STARTCHAR 02B5
ENCODING 693
SWIDTH 327 0
DWIDTH 5 0
BBX 4 6 0 2
BITMAP
60
40
40
C0
40
30
ENDCHAR
STARTCHAR 02B6
ENCODING 694
SWIDTH 327 0
DWIDTH 5 0
BBX 4 5 0 3
BITMAP
90
A0
E0
90
E0
ENDCHAR
STARTCHAR 02B7
ENCODING 695
SWIDTH 458 0
DWIDTH 7 0
BBX 6 4 0 4
BITMAP
A4
A8
F8
48
ENDCHAR
STARTCHAR 02B8
ENCODING 696
SWIDTH 327 0
DWIDTH 5 0
BBX 4 7 0 1
BITMAP
B0
A0
E0
40
40
40
80
ENDCHAR
STARTCHAR 02B9
ENCODING 697
SWIDTH 327 0
DWIDTH 5 0
BBX 2 2 1 8
BITMAP
40
80
ENDCHAR
STARTCHAR 02BA
ENCODING 698
SWIDTH 392 0
DWIDTH 6 0
BBX 5 2 0 8
BITMAP
48
90
ENDCHAR
STARTCHAR 02BB
ENCODING 699
SWIDTH 196 0
DWIDTH 3 0
BBX 2 4 0 7
BITMAP
40
40
80
40
ENDCHAR
STARTCHAR 02BC
ENCODING 700
SWIDTH 196 0
DWIDTH 3 0
BBX 2 4 0 7
BITMAP
80
80
40
80
ENDCHAR
STARTCHAR 02BD
ENCODING 701
SWIDTH 196 0
DWIDTH 3 0
BBX 2 4 0 7
BITMAP
40
C0
80
40
ENDCHAR
STARTCHAR 02BE
ENCODING 702
SWIDTH 261 0
DWIDTH 4 0
BBX 3 4 0 7
BITMAP
C0
20
20
C0
ENDCHAR
STARTCHAR 02BF
ENCODING 703
SWIDTH 261 0
DWIDTH 4 0
BBX 3 4 0 7
BITMAP
60
80
80
60
ENDCHAR
STARTCHAR 02C0
ENCODING 704
SWIDTH 327 0
DWIDTH 5 0
BBX 4 6 0 4
BITMAP
E0
90
20
40
40
40
ENDCHAR
STARTCHAR 02C1
ENCODING 705
SWIDTH 261 0
DWIDTH 4 0
BBX 3 5 0 5
BITMAP
E0
80
80
40
40
ENDCHAR
STARTCHAR 02C2
ENCODING 706
SWIDTH 327 0
DWIDTH 5 0
BBX 4 3 0 4
BITMAP
30
C0
30
ENDCHAR
STARTCHAR 02C3
ENCODING 707
SWIDTH 327 0
DWIDTH 5 0
BBX 4 3 0 4
BITMAP
C0
30
C0
ENDCHAR
STARTCHAR 02C4
ENCODING 708
SWIDTH 261 0
DWIDTH 4 0
BBX 3 4 0 4
BITMAP
40
40
A0
A0
ENDCHAR
STARTCHAR 02C5
ENCODING 709
SWIDTH 261 0
DWIDTH 4 0
BBX 3 4 0 4
BITMAP
A0
A0
40
40
ENDCHAR
STARTCHAR 02C6
ENCODING 710
SWIDTH 392 0
DWIDTH 6 0
BBX 5 3 0 7
BITMAP
20
50
88
ENDCHAR
STARTCHAR 02C7
ENCODING 711
SWIDTH 392 0
DWIDTH 6 0
BBX 5 3 0 8
BITMAP
88
50
20
ENDCHAR
STARTCHAR 02C8
ENCODING 712
SWIDTH 261 0
DWIDTH 4 0
BBX 1 3 1 7
BITMAP
80
80
80
ENDCHAR
STARTCHAR 02C9
ENCODING 713
SWIDTH 327 0
DWIDTH 5 0
BBX 4 1 0 8
BITMAP
F0
ENDCHAR
STARTCHAR 02CA
ENCODING 714
SWIDTH 261 0
DWIDTH 4 0
BBX 2 2 1 8
BITMAP
40
80
ENDCHAR
STARTCHAR 02CB
ENCODING 715
SWIDTH 261 0
DWIDTH 4 0
BBX 2 2 1 8
BITMAP
80
40
ENDCHAR
STARTCHAR 02CC
ENCODING 716
SWIDTH 261 0
DWIDTH 4 0
BBX 1 3 1 -2
BITMAP
80
80
80
ENDCHAR
STARTCHAR 02CD
ENCODING 717
SWIDTH 458 0
DWIDTH 7 0
BBX 4 1 1 -2
BITMAP
F0
ENDCHAR
STARTCHAR 02CE
ENCODING 718
SWIDTH 327 0
DWIDTH 5 0
BBX 4 2 0 -3
BITMAP
C0
30
ENDCHAR
STARTCHAR 02CF
ENCODING 719
SWIDTH 327 0
DWIDTH 5 0
BBX 4 3 0 -4
BITMAP
30
40
80
ENDCHAR
STARTCHAR 02D0
ENCODING 720
SWIDTH 261 0
DWIDTH 4 0
BBX 3 6 0 0
BITMAP
E0
40
00
00
40
E0
ENDCHAR
STARTCHAR 02D1
ENCODING 721
SWIDTH 261 0
DWIDTH 4 0
BBX 3 2 0 4
BITMAP
E0
40
ENDCHAR
STARTCHAR 02D2
ENCODING 722
SWIDTH 196 0
DWIDTH 3 0
BBX 2 4 0 4
BITMAP
80
40
40
80
ENDCHAR
STARTCHAR 02D3
ENCODING 723
SWIDTH 196 0
DWIDTH 3 0
BBX 2 4 0 4
BITMAP
40
80
80
40
ENDCHAR
STARTCHAR 02D4
ENCODING 724
SWIDTH 392 0
DWIDTH 6 0
BBX 5 4 0 2
BITMAP
20
20
20
F8
ENDCHAR
STARTCHAR 02D5
ENCODING 725
SWIDTH 392 0
DWIDTH 6 0
BBX 5 3 0 0
BITMAP
F8
20
20
ENDCHAR
STARTCHAR 02D6
ENCODING 726
SWIDTH 392 0
DWIDTH 6 0
BBX 5 6 0 0
BITMAP
20
20
20
F8
20
20
ENDCHAR
STARTCHAR 02D7
ENCODING 727
SWIDTH 327 0
DWIDTH 5 0
BBX 4 3 0 2
BITMAP
90
F0
90
ENDCHAR
STARTCHAR 02D8
ENCODING 728
SWIDTH 327 0
DWIDTH 5 0
BBX 4 2 0 7
BITMAP
90
60
ENDCHAR
STARTCHAR 02D9
ENCODING 729
SWIDTH 261 0
DWIDTH 4 0
BBX 1 1 1 8
BITMAP
80
ENDCHAR
STARTCHAR 02DA
ENCODING 730
SWIDTH 261 0
DWIDTH 4 0
BBX 3 3 0 7
BITMAP
40
A0
40
ENDCHAR
STARTCHAR 02DB
ENCODING 731
SWIDTH 327 0
DWIDTH 5 0
BBX 2 3 1 -3
BITMAP
40
80
C0
ENDCHAR
STARTCHAR 02DC
ENCODING 732
SWIDTH 392 0
DWIDTH 6 0
BBX 5 2 0 8
BITMAP
68
B0
ENDCHAR
STARTCHAR 02DD
ENCODING 733
SWIDTH 392 0
DWIDTH 6 0
BBX 5 2 0 8
BITMAP
48
90
ENDCHAR
STARTCHAR 02DE
ENCODING 734
SWIDTH 196 0
DWIDTH 3 0
BBX 3 3 -1 1
BITMAP
40
C0
20
ENDCHAR
STARTCHAR 02DF
ENCODING 735
SWIDTH 261 0
DWIDTH 4 0
BBX 3 3 0 7
BITMAP
A0
40
A0
ENDCHAR
STARTCHAR 02E0
ENCODING 736
SWIDTH 261 0
DWIDTH 4 0
BBX 3 7 0 1
BITMAP
A0
A0
E0
40
40
A0
40
ENDCHAR
STARTCHAR 02E1
ENCODING 737
SWIDTH 130 0
DWIDTH 2 0
BBX 1 6 0 4
BITMAP
80
80
80
80
80
80
ENDCHAR
STARTCHAR 02E2
ENCODING 738
SWIDTH 261 0
DWIDTH 4 0
BBX 3 5 0 3
BITMAP
60
80
60
A0
40
ENDCHAR
STARTCHAR 02E3
ENCODING 739
SWIDTH 392 0
DWIDTH 6 0
BBX 5 4 0 4
BITMAP
D0
60
30
58
ENDCHAR
STARTCHAR 02E4
ENCODING 740
SWIDTH 261 0
DWIDTH 4 0
BBX 3 5 0 5
BITMAP
E0
80
80
40
40
ENDCHAR
STARTCHAR 02E5
ENCODING 741
SWIDTH 458 0
DWIDTH 7 0
BBX 6 11 0 -1
BITMAP
FC
04
04
04
04
04
04
04
04
04
04
ENDCHAR
STARTCHAR 02E6
ENCODING 742
SWIDTH 458 0
DWIDTH 7 0
BBX 6 11 0 -1
BITMAP
04
04
FC
04
04
04
04
04
04
04
04
ENDCHAR
STARTCHAR 02E7
ENCODING 743
SWIDTH 458 0
DWIDTH 7 0
BBX 6 11 0 -1
BITMAP
04
04
04
04
04
FC
04
04
04
04
04
ENDCHAR
STARTCHAR 02E8
ENCODING 744
SWIDTH 458 0
DWIDTH 7 0
BBX 6 11 0 -1
BITMAP
04
04
04
04
04
04
04
04
FC
04
04
ENDCHAR
STARTCHAR 02E9
ENCODING 745
SWIDTH 458 0
DWIDTH 7 0
BBX 6 11 0 -1
BITMAP
04
04
04
04
04
04
04
04
04
04
FC
ENDCHAR
STARTCHAR 02EA
ENCODING 746
SWIDTH 392 0
DWIDTH 6 0
BBX 5 5 0 0
BITMAP
80
80
80
80
F8
ENDCHAR
STARTCHAR 02EB
ENCODING 747
SWIDTH 392 0
DWIDTH 6 0
BBX 5 5 0 0
BITMAP
80
80
F8
80
80
ENDCHAR
STARTCHAR 02EC
ENCODING 748
SWIDTH 392 0
DWIDTH 6 0
BBX 5 3 0 -3
BITMAP
88
50
20
ENDCHAR
STARTCHAR 02ED
ENCODING 749
SWIDTH 327 0
DWIDTH 5 0
BBX 4 4 0 8
BITMAP
F0
00
00
F0
ENDCHAR
STARTCHAR 02EE
ENCODING 750
SWIDTH 327 0
DWIDTH 5 0
BBX 4 3 0 8
BITMAP
90
90
90
ENDCHAR
STARTCHAR 0300
ENCODING 768
SWIDTH 0 0
DWIDTH 0 0
BBX 2 2 -4 8
BITMAP
80
40
ENDCHAR
STARTCHAR 0301
ENCODING 769
SWIDTH 0 0
DWIDTH 0 0
BBX 2 2 -4 8
BITMAP
40
80
ENDCHAR
STARTCHAR 0302
ENCODING 770
SWIDTH 0 0
DWIDTH 0 0
BBX 5 3 -5 7
BITMAP
20
50
88
ENDCHAR
STARTCHAR 0303
ENCODING 771
SWIDTH 0 0
DWIDTH 0 0
BBX 5 2 -5 8
BITMAP
68
B0
ENDCHAR
STARTCHAR 0304
ENCODING 772
SWIDTH 0 0
DWIDTH 0 0
BBX 4 1 -5 8
BITMAP
F0
ENDCHAR
STARTCHAR 0305
ENCODING 773
SWIDTH 0 0
DWIDTH 0 0
BBX 6 1 -6 8
BITMAP
FC
ENDCHAR
STARTCHAR 0306
ENCODING 774
SWIDTH 0 0
DWIDTH 0 0
BBX 4 3 -5 7
BITMAP
90
90
60
ENDCHAR
STARTCHAR 0307
ENCODING 775
SWIDTH 0 0
DWIDTH 0 0
BBX 1 1 -4 8
BITMAP
80
ENDCHAR
STARTCHAR 0308
ENCODING 776
SWIDTH 0 0
DWIDTH 0 0
BBX 4 1 -5 8
BITMAP
90
ENDCHAR
STARTCHAR 0309
ENCODING 777
SWIDTH 0 0
DWIDTH 0 0
BBX 2 4 -3 7
BITMAP
80
40
80
80
ENDCHAR
STARTCHAR 030A
ENCODING 778
SWIDTH 0 0
DWIDTH 0 0
BBX 3 3 -5 7
BITMAP
E0
A0
E0
ENDCHAR
STARTCHAR 030B
ENCODING 779
SWIDTH 0 0
DWIDTH 0 0
BBX 4 2 -4 8
BITMAP
50
A0
ENDCHAR
STARTCHAR 030C
ENCODING 780
SWIDTH 0 0
DWIDTH 0 0
BBX 5 3 -5 8
BITMAP
88
50
20
ENDCHAR
STARTCHAR 030D
ENCODING 781
SWIDTH 0 0
DWIDTH 0 0
BBX 1 3 -3 7
BITMAP
80
80
80
ENDCHAR
STARTCHAR 030E
ENCODING 782
SWIDTH 0 0
DWIDTH 0 0
BBX 3 3 -4 7
BITMAP
A0
A0
A0
ENDCHAR
STARTCHAR 030F
ENCODING 783
SWIDTH 0 0
DWIDTH 0 0
BBX 4 2 -5 8
BITMAP
A0
50
ENDCHAR
STARTCHAR 0310
ENCODING 784
SWIDTH 0 0
DWIDTH 0 0
BBX 4 5 -5 7
BITMAP
40
00
90
90
60
ENDCHAR
STARTCHAR 0311
ENCODING 785
SWIDTH 0 0
DWIDTH 0 0
BBX 4 2 -5 8
BITMAP
60
90
ENDCHAR
STARTCHAR 0312
ENCODING 786
SWIDTH 0 0
DWIDTH 0 0
BBX 2 4 -4 7
BITMAP
40
40
80
40
ENDCHAR
STARTCHAR 0313
ENCODING 787
SWIDTH 0 0
DWIDTH 0 0
BBX 2 4 -3 7
BITMAP
80
40
80
80
ENDCHAR
STARTCHAR 0314
ENCODING 788
SWIDTH 0 0
DWIDTH 0 0
BBX 2 4 -4 7
BITMAP
40
C0
80
40
ENDCHAR
STARTCHAR 0315
ENCODING 789
SWIDTH 196 0
DWIDTH 3 0
BBX 2 4 0 7
BITMAP
80
C0
40
80
ENDCHAR
STARTCHAR 0316
ENCODING 790
SWIDTH 0 0
DWIDTH 0 0
BBX 4 2 -5 -3
BITMAP
C0
30
ENDCHAR
STARTCHAR 0317
ENCODING 791
SWIDTH 0 0
DWIDTH 0 0
BBX 4 3 -5 -4
BITMAP
30
40
80
ENDCHAR
STARTCHAR 0318
ENCODING 792
SWIDTH 0 0
DWIDTH 0 0
BBX 2 3 -4 -4
BITMAP
40
C0
40
ENDCHAR
STARTCHAR 0319
ENCODING 793
SWIDTH 0 0
DWIDTH 0 0
BBX 2 3 -4 -4
BITMAP
80
C0
80
ENDCHAR
STARTCHAR 031A
ENCODING 794
SWIDTH 0 0
DWIDTH 0 0
BBX 4 2 -5 7
BITMAP
F0
10
ENDCHAR
STARTCHAR 031B
ENCODING 795
SWIDTH 130 0
DWIDTH 2 0
BBX 3 3 -2 5
BITMAP
60
20
C0
ENDCHAR
STARTCHAR 031C
ENCODING 796
SWIDTH 0 0
DWIDTH 0 0
BBX 2 4 -4 -4
BITMAP
40
80
80
40
ENDCHAR
STARTCHAR 031D
ENCODING 797
SWIDTH 0 0
DWIDTH 0 0
BBX 3 2 -4 -3
BITMAP
40
E0
ENDCHAR
STARTCHAR 031E
ENCODING 798
SWIDTH 0 0
DWIDTH 0 0
BBX 3 2 -4 -3
BITMAP
E0
40
ENDCHAR
STARTCHAR 031F
ENCODING 799
SWIDTH 0 0
DWIDTH 0 0
BBX 3 3 -4 -4
BITMAP
40
E0
40
ENDCHAR
STARTCHAR 0320
ENCODING 800
SWIDTH 0 0
DWIDTH 0 0
BBX 4 1 -5 -2
BITMAP
F0
ENDCHAR
STARTCHAR 0321
ENCODING 801
SWIDTH 0 0
DWIDTH 0 0
BBX 1 4 -2 -2
BITMAP
80
80
80
80
ENDCHAR
STARTCHAR 0322
ENCODING 802
SWIDTH 0 0
DWIDTH 0 0
BBX 1 4 -2 -2
BITMAP
80
80
80
80
ENDCHAR
STARTCHAR 0323
ENCODING 803
SWIDTH 0 0
DWIDTH 0 0
BBX 2 1 -4 -2
BITMAP
C0
ENDCHAR
STARTCHAR 0324
ENCODING 804
SWIDTH 0 0
DWIDTH 0 0
BBX 4 1 -5 -3
BITMAP
90
ENDCHAR
STARTCHAR 0325
ENCODING 805
SWIDTH 0 0
DWIDTH 0 0
BBX 4 3 -5 -4
BITMAP
60
90
60
ENDCHAR
STARTCHAR 0326
ENCODING 806
SWIDTH 0 0
DWIDTH 0 0
BBX 2 3 -4 -4
BITMAP
C0
40
40
ENDCHAR
STARTCHAR 0327
ENCODING 807
SWIDTH 0 0
DWIDTH 0 0
BBX 3 4 -4 -4
BITMAP
20
40
20
C0
ENDCHAR
STARTCHAR 0328
ENCODING 808
SWIDTH 0 0
DWIDTH 0 0
BBX 2 3 -5 -3
BITMAP
40
80
C0
ENDCHAR
STARTCHAR 0329
ENCODING 809
SWIDTH 0 0
DWIDTH 0 0
BBX 1 3 -3 -4
BITMAP
80
80
80
ENDCHAR
STARTCHAR 032A
ENCODING 810
SWIDTH 0 0
DWIDTH 0 0
BBX 4 2 -5 -3
BITMAP
F0
90
ENDCHAR
STARTCHAR 032B
ENCODING 811
SWIDTH 0 0
DWIDTH 0 0
BBX 6 2 -6 -3
BITMAP
94
78
ENDCHAR
STARTCHAR 032C
ENCODING 812
SWIDTH 0 0
DWIDTH 0 0
BBX 5 3 -6 -3
BITMAP
88
50
20
ENDCHAR
STARTCHAR 032D
ENCODING 813
SWIDTH 0 0
DWIDTH 0 0
BBX 5 3 -6 -4
BITMAP
20
50
88
ENDCHAR
STARTCHAR 032E
ENCODING 814
SWIDTH 0 0
DWIDTH 0 0
BBX 5 2 -5 -3
BITMAP
88
70
ENDCHAR
STARTCHAR 032F
ENCODING 815
SWIDTH 0 0
DWIDTH 0 0
BBX 5 2 -5 -3
BITMAP
70
88
ENDCHAR
STARTCHAR 0330
ENCODING 816
SWIDTH 0 0
DWIDTH 0 0
BBX 5 2 -5 -2
BITMAP
68
B0
ENDCHAR
STARTCHAR 0331
ENCODING 817
SWIDTH 0 0
DWIDTH 0 0
BBX 4 1 -5 -2
BITMAP
F0
ENDCHAR
STARTCHAR 0332
ENCODING 818
SWIDTH 65 0
DWIDTH 1 0
BBX 7 1 -7 -2
BITMAP
FE
ENDCHAR
STARTCHAR 0333
ENCODING 819
SWIDTH 65 0
DWIDTH 1 0
BBX 7 3 -7 -4
BITMAP
FE
00
FE
ENDCHAR
STARTCHAR 0334
ENCODING 820
SWIDTH 0 0
DWIDTH 0 0
BBX 4 1 -5 4
BITMAP
F0
ENDCHAR
STARTCHAR 0335
ENCODING 821
SWIDTH 0 0
DWIDTH 0 0
BBX 4 1 -5 3
BITMAP
F0
ENDCHAR
STARTCHAR 0336
ENCODING 822
SWIDTH 65 0
DWIDTH 1 0
BBX 7 1 -7 3
BITMAP
FE
ENDCHAR
STARTCHAR 0337
ENCODING 823
SWIDTH 0 0
DWIDTH 0 0
BBX 5 7 -6 0
BITMAP
08
10
10
20
40
40
80
ENDCHAR
STARTCHAR 0338
ENCODING 824
SWIDTH 0 0
DWIDTH 0 0
BBX 9 10 -10 0
BITMAP
0080
0100
0200
0400
0800
0800
1000
2000
4000
8000
ENDCHAR
STARTCHAR 0339
ENCODING 825
SWIDTH 0 0
DWIDTH 0 0
BBX 2 4 -4 -4
BITMAP
80
40
40
80
ENDCHAR
STARTCHAR 033A
ENCODING 826
SWIDTH 0 0
DWIDTH 0 0
BBX 4 3 -5 -4
BITMAP
90
90
F0
ENDCHAR
STARTCHAR 033B
ENCODING 827
SWIDTH 0 0
DWIDTH 0 0
BBX 3 3 -4 -4
BITMAP
E0
A0
E0
ENDCHAR
STARTCHAR 033C
ENCODING 828
SWIDTH 0 0
DWIDTH 0 0
BBX 6 2 -6 -3
BITMAP
78
B4
ENDCHAR
STARTCHAR 033D
ENCODING 829
SWIDTH 0 0
DWIDTH 0 0
BBX 3 3 -4 7
BITMAP
A0
40
A0
ENDCHAR
STARTCHAR 033E
ENCODING 830
SWIDTH 0 0
DWIDTH 0 0
BBX 2 5 -4 6
BITMAP
80
40
C0
80
40
ENDCHAR
STARTCHAR 033F
ENCODING 831
SWIDTH 65 0
DWIDTH 1 0
BBX 6 3 -6 6
BITMAP
FC
00
FC
ENDCHAR
STARTCHAR 0340
ENCODING 832
SWIDTH 0 0
DWIDTH 0 0
BBX 2 2 -3 8
BITMAP
80
40
ENDCHAR
STARTCHAR 0341
ENCODING 833
SWIDTH 0 0
DWIDTH 0 0
BBX 2 2 -4 8
BITMAP
40
80
ENDCHAR
STARTCHAR 0342
ENCODING 834
SWIDTH 0 0
DWIDTH 0 0
BBX 5 2 -5 7
BITMAP
68
B0
ENDCHAR
STARTCHAR 0343
ENCODING 835
SWIDTH 0 0
DWIDTH 0 0
BBX 1 3 -3 8
BITMAP
80
80
80
ENDCHAR
STARTCHAR 0344
ENCODING 836
SWIDTH 0 0
DWIDTH 0 0
BBX 4 4 -5 7
BITMAP
10
20
00
90
ENDCHAR
STARTCHAR 0345
ENCODING 837
SWIDTH 0 0
DWIDTH 0 0
BBX 1 3 -3 -4
BITMAP
80
80
80
ENDCHAR
STARTCHAR 0346
ENCODING 838
SWIDTH 0 0
DWIDTH 0 0
BBX 4 2 -5 7
BITMAP
F0
90
ENDCHAR
STARTCHAR 0347
ENCODING 839
SWIDTH 65 0
DWIDTH 1 0
BBX 6 3 -6 -4
BITMAP
FC
00
FC
ENDCHAR
STARTCHAR 0348
ENCODING 840
SWIDTH 0 0
DWIDTH 0 0
BBX 3 3 -4 -4
BITMAP
A0
A0
A0
ENDCHAR
STARTCHAR 0349
ENCODING 841
SWIDTH 0 0
DWIDTH 0 0
BBX 2 2 -4 -3
BITMAP
C0
40
ENDCHAR
STARTCHAR 034A
ENCODING 842
SWIDTH 0 0
DWIDTH 0 0
BBX 5 4 -5 6
BITMAP
10
68
B0
40
ENDCHAR
STARTCHAR 034B
ENCODING 843
SWIDTH 0 0
DWIDTH 0 0
BBX 5 6 -5 5
BITMAP
20
00
68
B0
00
20
ENDCHAR
STARTCHAR 034C
ENCODING 844
SWIDTH 0 0
DWIDTH 0 0
BBX 4 5 -5 6
BITMAP
50
A0
00
50
A0
ENDCHAR
STARTCHAR 034D
ENCODING 845
SWIDTH 0 0
DWIDTH 0 0
BBX 5 3 -5 -4
BITMAP
50
F8
50
ENDCHAR
STARTCHAR 034E
ENCODING 846
SWIDTH 0 0
DWIDTH 0 0
BBX 3 3 -4 -4
BITMAP
40
E0
40
ENDCHAR
STARTCHAR 0350
ENCODING 848
SWIDTH 0 0
DWIDTH 0 0
BBX 2 3 -4 7
BITMAP
80
40
80
ENDCHAR
STARTCHAR 0351
ENCODING 849
SWIDTH 0 0
DWIDTH 0 0
BBX 2 3 -4 7
BITMAP
40
80
40
ENDCHAR
STARTCHAR 0352
ENCODING 850
SWIDTH 0 0
DWIDTH 0 0
BBX 5 3 -5 7
BITMAP
70
88
20
ENDCHAR
STARTCHAR 0353
ENCODING 851
SWIDTH 0 0
DWIDTH 0 0
BBX 3 3 -4 -4
BITMAP
A0
40
A0
ENDCHAR
STARTCHAR 0354
ENCODING 852
SWIDTH 0 0
DWIDTH 0 0
BBX 2 3 -4 -4
BITMAP
40
80
40
ENDCHAR
STARTCHAR 0355
ENCODING 853
SWIDTH 0 0
DWIDTH 0 0
BBX 2 3 -4 -4
BITMAP
80
40
80
ENDCHAR
STARTCHAR 0356
ENCODING 854
SWIDTH 0 0
DWIDTH 0 0
BBX 5 3 -5 -4
BITMAP
90
68
80
ENDCHAR
STARTCHAR 0357
ENCODING 855
SWIDTH 0 0
DWIDTH 0 0
BBX 2 3 -4 7
BITMAP
80
40
80
ENDCHAR
STARTCHAR 0359
ENCODING 857
SWIDTH 0 0
DWIDTH 0 0
BBX 4 2 -6 -4
BITMAP
60
D0
ENDCHAR
STARTCHAR 035B
ENCODING 859
SWIDTH 0 0
DWIDTH 0 0
BBX 4 5 -5 7
BITMAP
40
80
F0
10
20
ENDCHAR
STARTCHAR 035C
ENCODING 860
SWIDTH 327 0
DWIDTH 5 0
BBX 8 2 -4 -3
BITMAP
81
7E
ENDCHAR
STARTCHAR 035D
ENCODING 861
SWIDTH 261 0
DWIDTH 4 0
BBX 6 2 -3 7
BITMAP
84
78
ENDCHAR
STARTCHAR 035E
ENCODING 862
SWIDTH 327 0
DWIDTH 5 0
BBX 8 1 -4 7
BITMAP
FF
ENDCHAR
STARTCHAR 035F
ENCODING 863
SWIDTH 327 0
DWIDTH 5 0
BBX 8 1 -4 -2
BITMAP
FF
ENDCHAR
STARTCHAR 0360
ENCODING 864
SWIDTH 327 0
DWIDTH 5 0
BBX 8 1 -4 7
BITMAP
FF
ENDCHAR
STARTCHAR 0361
ENCODING 865
SWIDTH 327 0
DWIDTH 5 0
BBX 8 2 -4 7
BITMAP
7E
81
ENDCHAR
STARTCHAR 0362
ENCODING 866
SWIDTH 392 0
DWIDTH 6 0
BBX 8 3 -3 -4
BITMAP
02
FF
02
ENDCHAR
STARTCHAR 0363
ENCODING 867
SWIDTH 0 0
DWIDTH 0 0
BBX 4 4 -5 6
BITMAP
E0
60
A0
70
ENDCHAR
STARTCHAR 0364
ENCODING 868
SWIDTH 0 0
DWIDTH 0 0
BBX 3 4 -5 6
BITMAP
E0
E0
80
60
ENDCHAR
STARTCHAR 0365
ENCODING 869
SWIDTH 0 0
DWIDTH 0 0
BBX 1 5 -3 7
BITMAP
80
00
80
80
80
ENDCHAR
STARTCHAR 0366
ENCODING 870
SWIDTH 0 0
DWIDTH 0 0
BBX 4 4 -5 6
BITMAP
60
90
90
60
ENDCHAR
STARTCHAR 0367
ENCODING 871
SWIDTH 0 0
DWIDTH 0 0
BBX 4 4 -5 6
BITMAP
A0
A0
A0
50
ENDCHAR
STARTCHAR 0368
ENCODING 872
SWIDTH 0 0
DWIDTH 0 0
BBX 3 4 -5 6
BITMAP
60
80
80
60
ENDCHAR
STARTCHAR 0369
ENCODING 873
SWIDTH 0 0
DWIDTH 0 0
BBX 4 7 -5 6
BITMAP
10
10
10
70
90
90
70
ENDCHAR
STARTCHAR 036A
ENCODING 874
SWIDTH 0 0
DWIDTH 0 0
BBX 4 5 -5 7
BITMAP
80
80
E0
90
90
ENDCHAR
STARTCHAR 036B
ENCODING 875
SWIDTH 0 0
DWIDTH 0 0
BBX 6 3 -6 7
BITMAP
FC
A4
A4
ENDCHAR
STARTCHAR 036C
ENCODING 876
SWIDTH 0 0
DWIDTH 0 0
BBX 3 3 -4 7
BITMAP
A0
C0
80
ENDCHAR
STARTCHAR 036D
ENCODING 877
SWIDTH 0 0
DWIDTH 0 0
BBX 3 5 -5 6
BITMAP
40
E0
40
40
20
ENDCHAR
STARTCHAR 036E
ENCODING 878
SWIDTH 0 0
DWIDTH 0 0
BBX 3 3 -4 8
BITMAP
A0
A0
40
ENDCHAR
STARTCHAR 036F
ENCODING 879
SWIDTH 0 0
DWIDTH 0 0
BBX 3 3 -4 7
BITMAP
A0
40
A0
ENDCHAR
STARTCHAR 037E
ENCODING 894
SWIDTH 261 0
DWIDTH 4 0
BBX 3 9 1 -3
BITMAP
C0
00
00
00
40
60
40
40
80
ENDCHAR
STARTCHAR 0384
ENCODING 900
SWIDTH 261 0
DWIDTH 4 0
BBX 1 3 2 8
BITMAP
80
80
80
ENDCHAR
STARTCHAR 0385
ENCODING 901
SWIDTH 327 0
DWIDTH 5 0
BBX 5 4 1 8
BITMAP
20
20
20
98
ENDCHAR
STARTCHAR 0386
ENCODING 902
SWIDTH 654 0
DWIDTH 10 0
BBX 10 11 0 0
BITMAP
4000
4C00
4C00
1600
1200
1200
2300
3D00
2100
4180
E1C0
ENDCHAR
STARTCHAR 0387
ENCODING 903
SWIDTH 327 0
DWIDTH 5 0
BBX 2 1 2 4
BITMAP
C0
ENDCHAR
STARTCHAR 0388
ENCODING 904
SWIDTH 720 0
DWIDTH 11 0
BBX 10 12 1 -1
BITMAP
8000
BF80
9080
1000
1000
1000
1E00
1100
1040
1840
39C0
0600
ENDCHAR
STARTCHAR 0389
ENCODING 905
SWIDTH 916 0
DWIDTH 14 0
BBX 13 11 1 0
BITMAP
8000
BC78
9820
1820
1820
1820
1FE0
1820
1820
1820
3C78
ENDCHAR
STARTCHAR 038A
ENCODING 906
SWIDTH 458 0
DWIDTH 7 0
BBX 6 11 1 0
BITMAP
80
BC
90
10
10
10
10
10
10
10
3C
ENDCHAR
STARTCHAR 038C
ENCODING 908
SWIDTH 785 0
DWIDTH 12 0
BBX 11 12 1 -1
BITMAP
8000
8F00
9080
2040
6040
6060
6060
6060
2040
30C0
1900
0600
ENDCHAR
STARTCHAR 038E
ENCODING 910
SWIDTH 720 0
DWIDTH 11 0
BBX 10 11 1 0
BITMAP
8000
B9C0
0600
0600
0600
0600
0600
0600
0600
0600
0F00
ENDCHAR
STARTCHAR 038F
ENCODING 911
SWIDTH 850 0
DWIDTH 13 0
BBX 12 12 1 -1
BITMAP
8000
8F00
90C0
2040
6060
6060
6060
2040
2050
9090
E970
1080
ENDCHAR
STARTCHAR 0390
ENCODING 912
SWIDTH 196 0
DWIDTH 3 0
BBX 5 11 0 0
BITMAP
20
20
D8
00
00
20
40
40
80
C0
C0
ENDCHAR
STARTCHAR 0391
ENCODING 913
SWIDTH 654 0
DWIDTH 10 0
BBX 10 10 0 0
BITMAP
0C00
0C00
1600
1200
1200
2300
3D00
2100
4180
E1C0
ENDCHAR
STARTCHAR 0392
ENCODING 914
SWIDTH 589 0
DWIDTH 9 0
BBX 7 11 1 -1
BITMAP
FC
44
46
44
78
44
42
42
42
EC
10
ENDCHAR
STARTCHAR 0393
ENCODING 915
SWIDTH 589 0
DWIDTH 9 0
BBX 7 10 1 0
BITMAP
FE
42
42
40
40
40
40
40
40
E0
ENDCHAR
STARTCHAR 0394
ENCODING 916
SWIDTH 523 0
DWIDTH 8 0
BBX 8 10 0 0
BITMAP
08
1C
14
24
26
22
42
43
43
FF
ENDCHAR
STARTCHAR 0395
ENCODING 917
SWIDTH 589 0
DWIDTH 9 0
BBX 7 11 1 -1
BITMAP
FE
42
42
40
40
78
40
40
42
E6
18
ENDCHAR
STARTCHAR 0396
ENCODING 918
SWIDTH 589 0
DWIDTH 9 0
BBX 8 11 1 -1
BITMAP
FF
82
04
0C
18
10
20
60
41
DF
20
ENDCHAR
STARTCHAR 0397
ENCODING 919
SWIDTH 720 0
DWIDTH 11 0
BBX 10 10 1 0
BITMAP
F3C0
4080
4080
4080
4080
7F80
4080
4080
4080
E1C0
ENDCHAR
STARTCHAR 0398
ENCODING 920
SWIDTH 654 0
DWIDTH 10 0
BBX 9 11 1 -1
BITMAP
3E00
4300
8180
A280
BE80
BC80
8080
C180
4100
3600
0800
ENDCHAR
STARTCHAR 0399
ENCODING 921
SWIDTH 327 0
DWIDTH 5 0
BBX 4 10 1 0
BITMAP
F0
40
40
40
40
40
40
40
40
E0
ENDCHAR
STARTCHAR 039A
ENCODING 922
SWIDTH 589 0
DWIDTH 9 0
BBX 9 10 1 0
BITMAP
F700
4400
4800
5000
5000
7000
4800
4400
4600
E780
ENDCHAR
STARTCHAR 039B
ENCODING 923
SWIDTH 654 0
DWIDTH 10 0
BBX 10 10 0 0
BITMAP
0400
0C00
1600
1200
1200
2300
2100
2100
4180
E1C0
ENDCHAR
STARTCHAR 039C
ENCODING 924
SWIDTH 850 0
DWIDTH 13 0
BBX 12 10 1 0
BITMAP
C030
6060
6060
70E0
5160
9160
8A60
8A60
8460
C4F0
ENDCHAR
STARTCHAR 039D
ENCODING 925
SWIDTH 654 0
DWIDTH 10 0
BBX 10 10 0 0
BITMAP
E0C0
3080
5880
4880
4480
4680
4380
4180
4080
7000
ENDCHAR
STARTCHAR 039E
ENCODING 926
SWIDTH 523 0
DWIDTH 8 0
BBX 7 11 1 -1
BITMAP
82
FE
00
00
44
7C
04
00
80
FE
82
ENDCHAR
STARTCHAR 039F
ENCODING 927
SWIDTH 654 0
DWIDTH 10 0
BBX 9 11 1 -1
BITMAP
3E00
4300
8180
8080
8080
8080
8080
C180
4100
3600
0800
ENDCHAR
STARTCHAR 03A0
ENCODING 928
SWIDTH 654 0
DWIDTH 10 0
BBX 9 10 1 0
BITMAP
FF80
4100
4100
4100
4100
4100
4100
4100
4100
E780
ENDCHAR
STARTCHAR 03A1
ENCODING 929
SWIDTH 523 0
DWIDTH 8 0
BBX 7 10 1 0
BITMAP
FC
46
42
42
46
78
40
40
40
F0
ENDCHAR
STARTCHAR 03A3
ENCODING 931
SWIDTH 523 0
DWIDTH 8 0
BBX 8 10 0 0
BITMAP
FF
61
21
30
18
08
10
20
41
7F
ENDCHAR
STARTCHAR 03A4
ENCODING 932
SWIDTH 589 0
DWIDTH 9 0
BBX 9 10 0 0
BITMAP
FF80
8880
8800
0800
0800
0800
0800
0800
0800
1E00
ENDCHAR
STARTCHAR 03A5
ENCODING 933
SWIDTH 589 0
DWIDTH 9 0
BBX 8 10 0 0
BITMAP
73
94
08
08
08
08
08
08
08
1E
ENDCHAR
STARTCHAR 03A6
ENCODING 934
SWIDTH 654 0
DWIDTH 10 0
BBX 9 10 1 0
BITMAP
3C00
0800
3E00
C980
8880
8880
C980
6A00
1C00
1C00
ENDCHAR
STARTCHAR 03A7
ENCODING 935
SWIDTH 589 0
DWIDTH 9 0
BBX 10 10 0 0
BITMAP
F1C0
2100
1200
1C00
0800
0C00
1600
2200
4100
E3C0
ENDCHAR
STARTCHAR 03A8
ENCODING 936
SWIDTH 720 0
DWIDTH 11 0
BBX 9 10 1 0
BITMAP
BC80
8980
8980
8980
8900
4900
3E00
0800
0800
3C00
ENDCHAR
STARTCHAR 03A9
ENCODING 937
SWIDTH 785 0
DWIDTH 12 0
BBX 12 11 0 -1
BITMAP
0F00
10C0
2040
6060
6060
6060
2040
2050
9090
E970
1080
ENDCHAR
STARTCHAR 03AA
ENCODING 938
SWIDTH 327 0
DWIDTH 5 0
BBX 5 13 0 0
BITMAP
D8
08
00
78
20
20
20
20
20
20
20
20
70
ENDCHAR
STARTCHAR 03AB
ENCODING 939
SWIDTH 589 0
DWIDTH 9 0
BBX 8 13 0 0
BITMAP
32
12
00
73
94
08
08
08
08
08
08
08
1E
ENDCHAR
STARTCHAR 03AC
ENCODING 940
SWIDTH 523 0
DWIDTH 8 0
BBX 8 11 0 0
BITMAP
08
08
00
00
00
3A
66
44
88
98
77
ENDCHAR
STARTCHAR 03AD
ENCODING 941
SWIDTH 261 0
DWIDTH 4 0
BBX 4 12 0 0
BITMAP
10
10
20
20
00
00
70
80
B0
40
90
60
ENDCHAR
STARTCHAR 03AE
ENCODING 942
SWIDTH 392 0
DWIDTH 6 0
BBX 5 13 1 -1
BITMAP
10
10
10
00
00
80
98
A8
48
C8
90
90
10
ENDCHAR
STARTCHAR 03AF
ENCODING 943
SWIDTH 196 0
DWIDTH 3 0
BBX 4 12 0 0
BITMAP
10
20
20
20
00
00
20
40
40
80
C0
C0
ENDCHAR
STARTCHAR 03B0
ENCODING 944
SWIDTH 392 0
DWIDTH 6 0
BBX 6 12 0 0
BITMAP
08
10
10
7C
00
00
C4
44
44
48
58
70
ENDCHAR
STARTCHAR 03B1
ENCODING 945
SWIDTH 523 0
DWIDTH 8 0
BBX 8 6 0 0
BITMAP
3A
66
44
88
98
77
ENDCHAR
STARTCHAR 03B2
ENCODING 946
SWIDTH 523 0
DWIDTH 8 0
BBX 8 13 0 -3
BITMAP
0C
12
22
22
42
46
45
41
61
9E
80
80
80
ENDCHAR
STARTCHAR 03B3
ENCODING 947
SWIDTH 589 0
DWIDTH 9 0
BBX 9 9 0 -3
BITMAP
7080
8900
8900
8A00
0C00
0800
1000
3000
7000
ENDCHAR
STARTCHAR 03B4
ENCODING 948
SWIDTH 261 0
DWIDTH 4 0
BBX 5 11 0 0
BITMAP
40
60
50
28
10
10
30
68
48
90
60
ENDCHAR
STARTCHAR 03B5
ENCODING 949
SWIDTH 261 0
DWIDTH 4 0
BBX 4 6 0 0
BITMAP
70
80
B0
40
90
60
ENDCHAR
STARTCHAR 03B6
ENCODING 950
SWIDTH 261 0
DWIDTH 4 0
BBX 5 14 0 -3
BITMAP
18
28
08
18
10
20
40
40
80
80
60
38
08
18
ENDCHAR
STARTCHAR 03B7
ENCODING 951
SWIDTH 392 0
DWIDTH 6 0
BBX 5 8 1 -1
BITMAP
80
98
A8
48
C8
90
90
10
ENDCHAR
STARTCHAR 03B8
ENCODING 952
SWIDTH 392 0
DWIDTH 6 0
BBX 5 12 1 -1
BITMAP
10
28
48
48
88
F8
88
90
90
90
A0
40
ENDCHAR
STARTCHAR 03B9
ENCODING 953
SWIDTH 196 0
DWIDTH 3 0
BBX 3 6 0 0
BITMAP
20
40
40
80
C0
C0
ENDCHAR
STARTCHAR 03BA
ENCODING 954
SWIDTH 458 0
DWIDTH 7 0
BBX 7 6 0 0
BITMAP
64
28
50
70
52
9C
ENDCHAR
STARTCHAR 03BB
ENCODING 955
SWIDTH 392 0
DWIDTH 6 0
BBX 7 7 0 0
BITMAP
30
08
18
18
28
64
C2
ENDCHAR
STARTCHAR 03BC
ENCODING 956
SWIDTH 523 0
DWIDTH 8 0
BBX 9 9 0 -3
BITMAP
2200
6200
4400
4400
8880
F700
8000
8000
8000
ENDCHAR
STARTCHAR 03BD
ENCODING 957
SWIDTH 261 0
DWIDTH 4 0
BBX 3 6 1 0
BITMAP
80
A0
A0
E0
C0
80
ENDCHAR
STARTCHAR 03BE
ENCODING 958
SWIDTH 327 0
DWIDTH 5 0
BBX 6 13 0 -2
BITMAP
6C
38
20
60
48
38
20
40
40
80
78
08
18
ENDCHAR
STARTCHAR 03BF
ENCODING 959
SWIDTH 327 0
DWIDTH 5 0
BBX 5 6 0 0
BITMAP
30
68
48
48
98
70
ENDCHAR
STARTCHAR 03C0
ENCODING 960
SWIDTH 589 0
DWIDTH 9 0
BBX 9 7 0 0
BITMAP
0080
FF80
8C00
1400
1400
2600
0600
ENDCHAR
STARTCHAR 03C1
ENCODING 961
SWIDTH 327 0
DWIDTH 5 0
BBX 6 11 0 -5
BITMAP
3C
24
48
78
60
80
80
60
10
30
20
ENDCHAR
STARTCHAR 03C2
ENCODING 962
SWIDTH 261 0
DWIDTH 4 0
BBX 5 8 0 -2
BITMAP
38
40
80
80
70
10
20
40
ENDCHAR
STARTCHAR 03C3
ENCODING 963
SWIDTH 392 0
DWIDTH 6 0
BBX 6 6 0 0
BITMAP
3C
68
48
48
98
70
ENDCHAR
STARTCHAR 03C4
ENCODING 964
SWIDTH 458 0
DWIDTH 7 0
BBX 7 6 0 0
BITMAP
7E
88
10
10
18
10
ENDCHAR
STARTCHAR 03C5
ENCODING 965
SWIDTH 392 0
DWIDTH 6 0
BBX 6 6 0 0
BITMAP
C4
44
44
48
58
70
ENDCHAR
STARTCHAR 03C6
ENCODING 966
SWIDTH 523 0
DWIDTH 8 0
BBX 8 12 0 -4
BITMAP
1E
3F
49
91
91
92
52
7C
20
20
20
20
ENDCHAR
STARTCHAR 03C7
ENCODING 967
SWIDTH 458 0
DWIDTH 7 0
BBX 9 9 -1 -3
BITMAP
3180
0B00
0A00
0C00
0800
1800
3800
6480
C780
ENDCHAR
STARTCHAR 03C8
ENCODING 968
SWIDTH 523 0
DWIDTH 8 0
BBX 8 14 0 -3
BITMAP
04
04
04
04
04
04
C8
48
28
29
1E
08
08
08
ENDCHAR
STARTCHAR 03C9
ENCODING 969
SWIDTH 523 0
DWIDTH 8 0
BBX 8 6 0 0
BITMAP
31
61
4D
89
9B
7E
ENDCHAR
STARTCHAR 03CA
ENCODING 970
SWIDTH 196 0
DWIDTH 3 0
BBX 5 9 0 0
BITMAP
D8
00
00
20
40
40
80
C0
C0
ENDCHAR
STARTCHAR 03CB
ENCODING 971
SWIDTH 392 0
DWIDTH 6 0
BBX 6 9 0 0
BITMAP
6C
00
00
C4
44
44
48
58
70
ENDCHAR
STARTCHAR 03CC
ENCODING 972
SWIDTH 327 0
DWIDTH 5 0
BBX 5 11 0 0
BITMAP
10
10
10
00
00
30
68
48
48
98
70
ENDCHAR
STARTCHAR 03CD
ENCODING 973
SWIDTH 392 0
DWIDTH 6 0
BBX 6 12 0 0
BITMAP
08
10
10
10
00
00
C4
44
44
48
58
70
ENDCHAR
STARTCHAR 03CE
ENCODING 974
SWIDTH 523 0
DWIDTH 8 0
BBX 8 12 0 0
BITMAP
02
02
04
04
00
00
31
61
4D
89
9B
7E
ENDCHAR
STARTCHAR 03D0
ENCODING 976
SWIDTH 458 0
DWIDTH 7 0
BBX 6 11 0 0
BITMAP
18
34
3C
40
40
80
80
80
70
48
30
ENDCHAR
STARTCHAR 03D1
ENCODING 977
SWIDTH 589 0
DWIDTH 9 0
BBX 8 10 0 0
BITMAP
78
48
44
35
0E
02
02
44
E4
18
ENDCHAR
STARTCHAR 03D5
ENCODING 981
SWIDTH 654 0
DWIDTH 10 0
BBX 9 13 0 -4
BITMAP
0400
0400
3E00
6D00
4880
8880
8980
4900
3E00
0800
0800
1000
1000
ENDCHAR
STARTCHAR 03D6
ENCODING 982
SWIDTH 654 0
DWIDTH 10 0
BBX 10 7 -1 0
BITMAP
0040
7FC0
B080
6680
4480
4D80
3F00
ENDCHAR
STARTCHAR 03D7
ENCODING 983
SWIDTH 654 0
DWIDTH 10 0
BBX 9 16 0 -4
BITMAP
0100
0100
0100
0080
0000
0000
6400
2800
5000
7080
5380
9C80
0080
0100
0100
0E00
ENDCHAR
STARTCHAR 03DB
ENCODING 987
SWIDTH 523 0
DWIDTH 8 0
BBX 7 9 0 -2
BITMAP
02
3E
40
80
80
E0
10
20
40
ENDCHAR
STARTCHAR 03F0
ENCODING 1008
SWIDTH 523 0
DWIDTH 8 0
BBX 7 6 0 0
BITMAP
64
28
50
70
52
9C
ENDCHAR
STARTCHAR 10FB
ENCODING 4347
SWIDTH 458 0
DWIDTH 7 0
BBX 6 6 0 0
BITMAP
C0
00
0C
08
00
C0
ENDCHAR
STARTCHAR 16A0
ENCODING 5792
SWIDTH 392 0
DWIDTH 6 0
BBX 5 11 0 0
BITMAP
88
90
A0
C8
90
A0
C0
80
80
80
80
ENDCHAR
STARTCHAR 16A1
ENCODING 5793
SWIDTH 458 0
DWIDTH 7 0
BBX 6 11 0 0
BITMAP
E8
94
94
E8
90
E0
80
80
80
80
80
ENDCHAR
STARTCHAR 16A2
ENCODING 5794
SWIDTH 458 0
DWIDTH 7 0
BBX 6 11 0 0
BITMAP
80
80
C0
C0
A0
A0
90
90
88
88
84
ENDCHAR
STARTCHAR 16A3
ENCODING 5795
SWIDTH 458 0
DWIDTH 7 0
BBX 6 11 0 0
BITMAP
80
80
C0
C0
A0
A0
90
90
A8
A8
A4
ENDCHAR
STARTCHAR 16A4
ENCODING 5796
SWIDTH 458 0
DWIDTH 7 0
BBX 6 11 0 0
BITMAP
80
80
C0
C0
A0
A0
90
90
A8
A8
84
ENDCHAR
STARTCHAR 16A5
ENCODING 5797
SWIDTH 458 0
DWIDTH 7 0
BBX 6 11 0 0
BITMAP
80
80
C0
C0
A0
A0
D0
D0
A8
A8
94
ENDCHAR
STARTCHAR 16A6
ENCODING 5798
SWIDTH 392 0
DWIDTH 6 0
BBX 5 11 0 0
BITMAP
80
80
80
C0
B0
88
B0
C0
80
80
80
ENDCHAR
STARTCHAR 16A7
ENCODING 5799
SWIDTH 392 0
DWIDTH 6 0
BBX 5 11 0 0
BITMAP
80
80
E0
90
88
A8
90
E0
80
80
80
ENDCHAR
STARTCHAR 16A8
ENCODING 5800
SWIDTH 261 0
DWIDTH 4 0
BBX 3 11 0 0
BITMAP
80
C0
A0
80
C0
A0
80
80
80
80
80
ENDCHAR
STARTCHAR 16A9
ENCODING 5801
SWIDTH 392 0
DWIDTH 6 0
BBX 5 11 0 0
BITMAP
88
D0
A0
88
D0
A0
80
80
80
80
80
ENDCHAR
STARTCHAR 16AA
ENCODING 5802
SWIDTH 392 0
DWIDTH 6 0
BBX 5 11 0 0
BITMAP
88
D0
A0
80
C0
A0
80
80
80
80
80
ENDCHAR
STARTCHAR 16AB
ENCODING 5803
SWIDTH 392 0
DWIDTH 6 0
BBX 5 11 0 0
BITMAP
80
C0
A0
98
C0
A0
98
80
80
80
80
ENDCHAR
STARTCHAR 16AC
ENCODING 5804
SWIDTH 458 0
DWIDTH 7 0
BBX 6 9 0 1
BITMAP
20
20
E0
38
E4
38
24
20
20
ENDCHAR
STARTCHAR 16AD
ENCODING 5805
SWIDTH 261 0
DWIDTH 4 0
BBX 3 11 0 0
BITMAP
80
80
80
C0
A0
80
C0
A0
80
80
80
ENDCHAR
STARTCHAR 16AE
ENCODING 5806
SWIDTH 261 0
DWIDTH 4 0
BBX 3 11 0 0
BITMAP
20
20
20
60
A0
20
60
A0
20
20
20
ENDCHAR
STARTCHAR 16AF
ENCODING 5807
SWIDTH 458 0
DWIDTH 7 0
BBX 6 11 0 0
BITMAP
20
20
2C
70
A0
2C
70
A0
20
20
20
ENDCHAR
STARTCHAR 16B0
ENCODING 5808
SWIDTH 458 0
DWIDTH 7 0
BBX 6 11 0 0
BITMAP
20
24
38
60
A0
20
60
A0
20
20
20
ENDCHAR
STARTCHAR 16B1
ENCODING 5809
SWIDTH 327 0
DWIDTH 5 0
BBX 4 11 0 0
BITMAP
80
C0
B0
B0
C0
80
80
C0
A0
A0
90
ENDCHAR
STARTCHAR 16B2
ENCODING 5810
SWIDTH 327 0
DWIDTH 5 0
BBX 4 8 0 1
BITMAP
10
20
40
80
C0
60
30
10
ENDCHAR
STARTCHAR 16B3
ENCODING 5811
SWIDTH 392 0
DWIDTH 6 0
BBX 5 11 0 0
BITMAP
80
80
80
80
80
80
80
C0
A0
90
88
ENDCHAR
STARTCHAR 16B4
ENCODING 5812
SWIDTH 392 0
DWIDTH 6 0
BBX 5 11 0 0
BITMAP
88
90
A0
C0
80
80
80
80
80
80
80
ENDCHAR
STARTCHAR 16B5
ENCODING 5813
SWIDTH 392 0
DWIDTH 6 0
BBX 5 11 0 0
BITMAP
A8
A8
88
90
E0
80
80
80
80
80
80
ENDCHAR
STARTCHAR 16B6
ENCODING 5814
SWIDTH 523 0
DWIDTH 8 0
BBX 7 10 0 1
BITMAP
42
44
48
F0
E0
E0
40
40
40
40
ENDCHAR
STARTCHAR 16B7
ENCODING 5815
SWIDTH 392 0
DWIDTH 6 0
BBX 5 11 0 0
BITMAP
80
88
48
50
30
20
20
50
50
88
88
ENDCHAR
STARTCHAR 16B8
ENCODING 5816
SWIDTH 392 0
DWIDTH 6 0
BBX 5 11 0 0
BITMAP
80
88
48
50
70
A8
70
50
50
88
88
ENDCHAR
STARTCHAR 16B9
ENCODING 5817
SWIDTH 327 0
DWIDTH 5 0
BBX 4 11 0 0
BITMAP
80
C0
B0
A0
C0
80
80
80
80
80
80
ENDCHAR
STARTCHAR 16BA
ENCODING 5818
SWIDTH 523 0
DWIDTH 8 0
BBX 7 11 0 0
BITMAP
82
82
82
82
C2
B2
8A
86
82
82
82
ENDCHAR
STARTCHAR 16BB
ENCODING 5819
SWIDTH 523 0
DWIDTH 8 0
BBX 7 11 0 0
BITMAP
82
82
82
C2
B2
CA
B6
8A
86
82
82
ENDCHAR
STARTCHAR 16BC
ENCODING 5820
SWIDTH 327 0
DWIDTH 5 0
BBX 4 9 0 1
BITMAP
40
40
D0
60
60
D0
40
40
40
ENDCHAR
STARTCHAR 16BD
ENCODING 5821
SWIDTH 261 0
DWIDTH 4 0
BBX 3 11 0 0
BITMAP
40
40
40
40
E0
E0
40
40
40
40
40
ENDCHAR
STARTCHAR 16BE
ENCODING 5822
SWIDTH 392 0
DWIDTH 6 0
BBX 5 11 0 0
BITMAP
20
20
20
A0
60
30
28
20
20
20
20
ENDCHAR
STARTCHAR 16BF
ENCODING 5823
SWIDTH 392 0
DWIDTH 6 0
BBX 3 11 1 0
BITMAP
80
80
80
80
80
C0
A0
80
80
80
80
ENDCHAR
STARTCHAR 16C0
ENCODING 5824
SWIDTH 392 0
DWIDTH 6 0
BBX 5 11 0 0
BITMAP
20
20
20
20
F0
78
20
20
20
20
20
ENDCHAR
STARTCHAR 16C1
ENCODING 5825
SWIDTH 261 0
DWIDTH 4 0
BBX 1 11 1 0
BITMAP
80
80
80
80
80
80
80
80
80
80
80
ENDCHAR
STARTCHAR 16C2
ENCODING 5826
SWIDTH 261 0
DWIDTH 4 0
BBX 3 11 0 0
BITMAP
40
40
40
40
E0
E0
40
40
40
40
40
ENDCHAR
STARTCHAR 16C3
ENCODING 5827
SWIDTH 458 0
DWIDTH 7 0
BBX 6 7 0 1
BITMAP
20
40
90
48
24
08
10
ENDCHAR
STARTCHAR 16C4
ENCODING 5828
SWIDTH 392 0
DWIDTH 6 0
BBX 5 11 0 0
BITMAP
20
20
20
20
70
A8
70
20
20
20
20
ENDCHAR
STARTCHAR 16C5
ENCODING 5829
SWIDTH 392 0
DWIDTH 6 0
BBX 5 11 0 0
BITMAP
20
20
20
28
30
60
A0
20
20
20
20
ENDCHAR
STARTCHAR 16C6
ENCODING 5830
SWIDTH 261 0
DWIDTH 4 0
BBX 3 11 0 0
BITMAP
20
20
20
20
20
60
A0
20
20
20
20
ENDCHAR
STARTCHAR 16C7
ENCODING 5831
SWIDTH 392 0
DWIDTH 6 0
BBX 5 11 0 0
BITMAP
30
28
20
20
20
20
20
20
20
A0
60
ENDCHAR
STARTCHAR 16C8
ENCODING 5832
SWIDTH 327 0
DWIDTH 5 0
BBX 4 11 0 0
BITMAP
D0
A0
80
80
80
80
80
80
80
A0
D0
ENDCHAR
STARTCHAR 16C9
ENCODING 5833
SWIDTH 523 0
DWIDTH 8 0
BBX 7 11 0 0
BITMAP
92
54
38
10
10
10
10
10
10
10
10
ENDCHAR
STARTCHAR 16CA
ENCODING 5834
SWIDTH 327 0
DWIDTH 5 0
BBX 4 11 0 0
BITMAP
10
60
80
80
40
30
20
C0
80
40
30
ENDCHAR
STARTCHAR 16CB
ENCODING 5835
SWIDTH 458 0
DWIDTH 7 0
BBX 6 11 0 0
BITMAP
80
80
80
80
8C
B4
C4
04
04
04
04
ENDCHAR
STARTCHAR 16CC
ENCODING 5836
SWIDTH 261 0
DWIDTH 4 0
BBX 1 6 1 5
BITMAP
80
80
80
80
80
80
ENDCHAR
STARTCHAR 16CD
ENCODING 5837
SWIDTH 261 0
DWIDTH 4 0
BBX 3 7 0 4
BITMAP
40
40
40
40
E0
E0
40
ENDCHAR
STARTCHAR 16CE
ENCODING 5838
SWIDTH 392 0
DWIDTH 6 0
BBX 5 8 0 3
BITMAP
20
20
20
20
20
A8
70
20
ENDCHAR
STARTCHAR 16CF
ENCODING 5839
SWIDTH 392 0
DWIDTH 6 0
BBX 5 11 0 0
BITMAP
20
70
A8
20
20
20
20
20
20
20
20
ENDCHAR
STARTCHAR 16D0
ENCODING 5840
SWIDTH 261 0
DWIDTH 4 0
BBX 3 11 0 0
BITMAP
20
60
A0
20
20
20
20
20
20
20
20
ENDCHAR
STARTCHAR 16D1
ENCODING 5841
SWIDTH 327 0
DWIDTH 5 0
BBX 4 11 0 0
BITMAP
20
60
A0
20
60
70
70
20
20
20
20
ENDCHAR
STARTCHAR 16D2
ENCODING 5842
SWIDTH 327 0
DWIDTH 5 0
BBX 4 11 0 0
BITMAP
C0
A0
90
A0
C0
C0
A0
90
90
A0
C0
ENDCHAR
STARTCHAR 16D3
ENCODING 5843
SWIDTH 327 0
DWIDTH 5 0
BBX 4 11 0 0
BITMAP
80
80
B0
C0
80
B0
C0
80
80
80
80
ENDCHAR
STARTCHAR 16D4
ENCODING 5844
SWIDTH 327 0
DWIDTH 5 0
BBX 4 11 0 0
BITMAP
E0
90
D0
90
90
E0
B0
90
D0
90
E0
ENDCHAR
STARTCHAR 16D5
ENCODING 5845
SWIDTH 392 0
DWIDTH 6 0
BBX 5 11 0 0
BITMAP
88
90
A0
A0
C0
80
C0
C0
A0
90
88
ENDCHAR
STARTCHAR 16D6
ENCODING 5846
SWIDTH 589 0
DWIDTH 9 0
BBX 8 11 0 0
BITMAP
83
C5
B9
81
81
81
81
81
81
81
81
ENDCHAR
STARTCHAR 16D7
ENCODING 5847
SWIDTH 589 0
DWIDTH 9 0
BBX 8 11 0 0
BITMAP
81
E7
99
E5
83
81
81
81
81
81
81
ENDCHAR
STARTCHAR 16D8
ENCODING 5848
SWIDTH 523 0
DWIDTH 8 0
BBX 7 11 0 0
BITMAP
92
92
54
38
10
10
10
10
10
10
10
ENDCHAR
STARTCHAR 16D9
ENCODING 5849
SWIDTH 261 0
DWIDTH 4 0
BBX 3 11 0 0
BITMAP
C0
E0
E0
40
40
40
40
40
40
40
40
ENDCHAR
STARTCHAR 16DA
ENCODING 5850
SWIDTH 327 0
DWIDTH 5 0
BBX 4 11 0 0
BITMAP
80
C0
A0
90
80
80
80
80
80
80
80
ENDCHAR
STARTCHAR 16DB
ENCODING 5851
SWIDTH 392 0
DWIDTH 6 0
BBX 5 11 0 0
BITMAP
40
60
50
48
40
E0
E0
40
40
40
40
ENDCHAR
STARTCHAR 16DC
ENCODING 5852
SWIDTH 392 0
DWIDTH 6 0
BBX 5 6 0 2
BITMAP
20
50
88
88
50
20
ENDCHAR
STARTCHAR 16DD
ENCODING 5853
SWIDTH 523 0
DWIDTH 8 0
BBX 7 11 0 0
BITMAP
82
64
18
38
44
82
44
28
18
24
C2
ENDCHAR
STARTCHAR 16DE
ENCODING 5854
SWIDTH 589 0
DWIDTH 9 0
BBX 8 11 0 0
BITMAP
82
C3
C5
A5
99
91
99
A9
C5
C3
83
ENDCHAR
STARTCHAR 16DF
ENCODING 5855
SWIDTH 523 0
DWIDTH 8 0
BBX 7 11 0 0
BITMAP
10
28
44
82
82
44
28
10
28
44
82
ENDCHAR
STARTCHAR 16E0
ENCODING 5856
SWIDTH 654 0
DWIDTH 10 0
BBX 9 11 0 0
BITMAP
8880
5D00
2A00
0800
0800
0800
0800
0800
0800
0800
0800
ENDCHAR
STARTCHAR 16E1
ENCODING 5857
SWIDTH 327 0
DWIDTH 5 0
BBX 4 9 0 1
BITMAP
40
40
D0
60
60
D0
40
40
40
ENDCHAR
STARTCHAR 16E2
ENCODING 5858
SWIDTH 654 0
DWIDTH 10 0
BBX 9 11 0 0
BITMAP
0C80
0B00
0800
0800
0800
0800
0800
0800
0800
6800
9800
ENDCHAR
STARTCHAR 16E3
ENCODING 5859
SWIDTH 523 0
DWIDTH 8 0
BBX 7 11 0 0
BITMAP
10
10
10
10
10
10
10
10
38
54
92
ENDCHAR
STARTCHAR 16E4
ENCODING 5860
SWIDTH 523 0
DWIDTH 8 0
BBX 7 11 0 0
BITMAP
92
54
54
38
38
54
38
38
54
54
92
ENDCHAR
STARTCHAR 16E5
ENCODING 5861
SWIDTH 589 0
DWIDTH 9 0
BBX 8 11 0 0
BITMAP
81
E7
99
E5
83
81
81
E7
99
A5
C3
ENDCHAR
STARTCHAR 16E6
ENCODING 5862
SWIDTH 523 0
DWIDTH 8 0
BBX 7 11 0 0
BITMAP
10
10
10
10
10
10
10
10
38
54
92
ENDCHAR
STARTCHAR 16E7
ENCODING 5863
SWIDTH 261 0
DWIDTH 4 0
BBX 1 5 1 0
BITMAP
80
80
80
80
80
ENDCHAR
STARTCHAR 16E8
ENCODING 5864
SWIDTH 523 0
DWIDTH 8 0
BBX 7 11 0 0
BITMAP
38
54
92
10
10
10
10
10
92
54
38
ENDCHAR
STARTCHAR 16E9
ENCODING 5865
SWIDTH 327 0
DWIDTH 5 0
BBX 4 11 0 0
BITMAP
30
50
90
50
30
10
10
10
10
10
10
ENDCHAR
STARTCHAR 16EA
ENCODING 5866
SWIDTH 589 0
DWIDTH 9 0
BBX 8 11 0 0
BITMAP
40
E0
40
40
46
4A
72
42
02
07
02
ENDCHAR
STARTCHAR 16EB
ENCODING 5867
SWIDTH 196 0
DWIDTH 3 0
BBX 2 2 0 5
BITMAP
80
C0
ENDCHAR
STARTCHAR 16EC
ENCODING 5868
SWIDTH 196 0
DWIDTH 3 0
BBX 2 7 0 2
BITMAP
80
C0
00
00
00
80
C0
ENDCHAR
STARTCHAR 16ED
ENCODING 5869
SWIDTH 392 0
DWIDTH 6 0
BBX 5 7 0 2
BITMAP
20
20
20
F8
20
20
20
ENDCHAR
STARTCHAR 16EE
ENCODING 5870
SWIDTH 458 0
DWIDTH 7 0
BBX 6 11 0 0
BITMAP
20
30
2C
24
20
60
A0
20
20
20
20
ENDCHAR
STARTCHAR 16EF
ENCODING 5871
SWIDTH 523 0
DWIDTH 8 0
BBX 7 11 0 0
BITMAP
92
92
54
38
10
10
10
10
7C
92
92
ENDCHAR
STARTCHAR 16F0
ENCODING 5872
SWIDTH 523 0
DWIDTH 8 0
BBX 7 11 0 0
BITMAP
10
10
10
7C
92
92
92
92
7C
10
10
ENDCHAR
STARTCHAR 1D00
ENCODING 7424
SWIDTH 458 0
DWIDTH 7 0
BBX 6 6 0 0
BITMAP
10
30
28
78
44
C4
ENDCHAR
STARTCHAR 1D01
ENCODING 7425
SWIDTH 589 0
DWIDTH 9 0
BBX 8 6 0 0
BITMAP
1F
28
28
5E
88
8F
ENDCHAR
STARTCHAR 1D02
ENCODING 7426
SWIDTH 523 0
DWIDTH 8 0
BBX 7 7 0 -1
BITMAP
EE
12
14
18
F2
BC
40
ENDCHAR
STARTCHAR 1D03
ENCODING 7427
SWIDTH 458 0
DWIDTH 7 0
BBX 6 6 0 0
BITMAP
78
48
FC
48
44
78
ENDCHAR
STARTCHAR 1D04
ENCODING 7428
SWIDTH 458 0
DWIDTH 7 0
BBX 6 8 0 -1
BITMAP
18
64
40
C0
C0
40
24
18
ENDCHAR
STARTCHAR 1D05
ENCODING 7429
SWIDTH 458 0
DWIDTH 7 0
BBX 6 7 0 -1
BITMAP
F8
84
84
84
84
D8
20
ENDCHAR
STARTCHAR 1D06
ENCODING 7430
SWIDTH 523 0
DWIDTH 8 0
BBX 7 7 0 -1
BITMAP
7C
42
42
E2
42
6C
10
ENDCHAR
STARTCHAR 1D07
ENCODING 7431
SWIDTH 392 0
DWIDTH 6 0
BBX 5 6 0 0
BITMAP
F0
80
90
F0
80
F8
ENDCHAR
STARTCHAR 1D08
ENCODING 7432
SWIDTH 392 0
DWIDTH 6 0
BBX 5 8 0 -1
BITMAP
60
90
08
08
30
08
90
60
ENDCHAR
STARTCHAR 1D09
ENCODING 7433
SWIDTH 196 0
DWIDTH 3 0
BBX 2 10 0 -4
BITMAP
C0
C0
C0
C0
C0
80
00
00
00
C0
ENDCHAR
STARTCHAR 1D0A
ENCODING 7434
SWIDTH 261 0
DWIDTH 4 0
BBX 3 8 0 -2
BITMAP
E0
60
60
40
40
40
40
80
ENDCHAR
STARTCHAR 1D0B
ENCODING 7435
SWIDTH 392 0
DWIDTH 6 0
BBX 5 6 0 0
BITMAP
90
A0
C0
A0
90
88
ENDCHAR
STARTCHAR 1D0C
ENCODING 7436
SWIDTH 458 0
DWIDTH 7 0
BBX 6 7 0 -1
BITMAP
40
40
60
C0
40
64
18
ENDCHAR
STARTCHAR 1D0D
ENCODING 7437
SWIDTH 523 0
DWIDTH 8 0
BBX 7 6 0 0
BITMAP
82
C6
CA
AA
B2
96
ENDCHAR
STARTCHAR 1D0E
ENCODING 7438
SWIDTH 523 0
DWIDTH 8 0
BBX 7 7 0 -1
BITMAP
44
8C
94
A4
64
44
02
ENDCHAR
STARTCHAR 1D0F
ENCODING 7439
SWIDTH 458 0
DWIDTH 7 0
BBX 6 6 0 0
BITMAP
78
CC
84
84
CC
78
ENDCHAR
STARTCHAR 1D10
ENCODING 7440
SWIDTH 458 0
DWIDTH 7 0
BBX 6 7 0 -1
BITMAP
78
84
04
04
84
48
30
ENDCHAR
STARTCHAR 1D11
ENCODING 7441
SWIDTH 523 0
DWIDTH 8 0
BBX 7 6 0 0
BITMAP
38
44
82
82
44
38
ENDCHAR
STARTCHAR 1D12
ENCODING 7442
SWIDTH 523 0
DWIDTH 8 0
BBX 7 5 0 0
BITMAP
38
64
C2
82
44
ENDCHAR
STARTCHAR 1D13
ENCODING 7443
SWIDTH 589 0
DWIDTH 9 0
BBX 8 7 0 -1
BITMAP
BC
46
A2
9A
46
3E
01
ENDCHAR
STARTCHAR 1D14
ENCODING 7444
SWIDTH 654 0
DWIDTH 10 0
BBX 9 7 0 -1
BITMAP
FF00
1880
1880
1880
F880
A500
4200
ENDCHAR
STARTCHAR 1D15
ENCODING 7445
SWIDTH 392 0
DWIDTH 6 0
BBX 5 7 0 -1
BITMAP
88
50
70
88
88
D8
70
ENDCHAR
STARTCHAR 1D16
ENCODING 7446
SWIDTH 458 0
DWIDTH 7 0
BBX 6 3 0 3
BITMAP
78
84
84
ENDCHAR
STARTCHAR 1D17
ENCODING 7447
SWIDTH 458 0
DWIDTH 7 0
BBX 6 3 0 0
BITMAP
84
84
78
ENDCHAR
STARTCHAR 1D18
ENCODING 7448
SWIDTH 392 0
DWIDTH 6 0
BBX 5 6 0 0
BITMAP
F0
88
88
F0
80
C0
ENDCHAR
STARTCHAR 1D19
ENCODING 7449
SWIDTH 458 0
DWIDTH 7 0
BBX 6 7 0 -1
BITMAP
3C
44
24
3C
24
44
80
ENDCHAR
STARTCHAR 1D1A
ENCODING 7450
SWIDTH 392 0
DWIDTH 6 0
BBX 5 7 0 -1
BITMAP
88
48
28
58
88
48
30
ENDCHAR
STARTCHAR 1D1B
ENCODING 7451
SWIDTH 523 0
DWIDTH 8 0
BBX 7 6 0 0
BITMAP
FE
10
10
10
10
10
ENDCHAR
STARTCHAR 1D1C
ENCODING 7452
SWIDTH 458 0
DWIDTH 7 0
BBX 6 7 0 -1
BITMAP
8C
88
88
88
88
48
30
ENDCHAR
STARTCHAR 1D1D
ENCODING 7453
SWIDTH 523 0
DWIDTH 8 0
BBX 7 6 0 0
BITMAP
02
FE
04
02
02
FC
ENDCHAR
STARTCHAR 1D1E
ENCODING 7454
SWIDTH 654 0
DWIDTH 10 0
BBX 9 6 0 0
BITMAP
0080
1F80
C080
0080
C080
1F00
ENDCHAR
STARTCHAR 1D1F
ENCODING 7455
SWIDTH 458 0
DWIDTH 7 0
BBX 6 10 0 -2
BITMAP
FC
FC
04
04
FC
F8
04
04
FC
F0
ENDCHAR
STARTCHAR 1D20
ENCODING 7456
SWIDTH 392 0
DWIDTH 6 0
BBX 5 6 0 0
BITMAP
88
90
50
60
60
20
ENDCHAR
STARTCHAR 1D21
ENCODING 7457
SWIDTH 654 0
DWIDTH 10 0
BBX 9 6 0 0
BITMAP
A980
9A00
5200
5A00
2C00
2400
ENDCHAR
STARTCHAR 1D22
ENCODING 7458
SWIDTH 392 0
DWIDTH 6 0
BBX 5 6 0 0
BITMAP
F8
10
20
40
88
F8
ENDCHAR
STARTCHAR 1D23
ENCODING 7459
SWIDTH 327 0
DWIDTH 5 0
BBX 4 7 0 -1
BITMAP
F0
20
50
10
10
D0
20
ENDCHAR
STARTCHAR 1D24
ENCODING 7460
SWIDTH 392 0
DWIDTH 6 0
BBX 5 12 0 -2
BITMAP
30
C8
C8
08
08
30
20
40
80
88
C8
70
ENDCHAR
STARTCHAR 1D25
ENCODING 7461
SWIDTH 654 0
DWIDTH 10 0
BBX 9 7 0 -1
BITMAP
3E00
3F00
3F00
3E00
9C80
4D00
3200
ENDCHAR
STARTCHAR 1D26
ENCODING 7462
SWIDTH 392 0
DWIDTH 6 0
BBX 5 6 0 0
BITMAP
F8
80
80
80
80
C0
ENDCHAR
STARTCHAR 1D27
ENCODING 7463
SWIDTH 392 0
DWIDTH 6 0
BBX 5 6 0 0
BITMAP
20
60
50
90
88
88
ENDCHAR
STARTCHAR 1D28
ENCODING 7464
SWIDTH 589 0
DWIDTH 9 0
BBX 8 6 0 0
BITMAP
FF
46
46
46
46
66
ENDCHAR
STARTCHAR 1D29
ENCODING 7465
SWIDTH 392 0
DWIDTH 6 0
BBX 5 6 0 0
BITMAP
F0
88
88
F0
80
C0
ENDCHAR
STARTCHAR 1D2A
ENCODING 7466
SWIDTH 392 0
DWIDTH 6 0
BBX 5 7 0 0
BITMAP
20
A8
A8
A8
70
20
70
ENDCHAR
STARTCHAR 1D2B
ENCODING 7467
SWIDTH 458 0
DWIDTH 7 0
BBX 6 7 0 -1
BITMAP
FC
48
48
48
48
5C
80
ENDCHAR
STARTCHAR 1D2C
ENCODING 7468
SWIDTH 392 0
DWIDTH 6 0
BBX 5 6 0 4
BITMAP
10
30
50
48
78
88
ENDCHAR
STARTCHAR 1D2D
ENCODING 7469
SWIDTH 523 0
DWIDTH 8 0
BBX 7 6 0 4
BITMAP
1E
30
50
7C
90
9E
ENDCHAR
STARTCHAR 1D2E
ENCODING 7470
SWIDTH 392 0
DWIDTH 6 0
BBX 5 7 0 3
BITMAP
F0
48
50
68
48
48
30
ENDCHAR
STARTCHAR 1D2F
ENCODING 7471
SWIDTH 458 0
DWIDTH 7 0
BBX 6 7 0 3
BITMAP
F0
48
50
EC
48
48
30
ENDCHAR
STARTCHAR 1D30
ENCODING 7472
SWIDTH 458 0
DWIDTH 7 0
BBX 6 7 0 3
BITMAP
F8
44
44
44
44
48
30
ENDCHAR
STARTCHAR 1D31
ENCODING 7473
SWIDTH 392 0
DWIDTH 6 0
BBX 5 6 0 4
BITMAP
F8
48
40
70
48
78
ENDCHAR
STARTCHAR 1D32
ENCODING 7474
SWIDTH 392 0
DWIDTH 6 0
BBX 5 7 0 3
BITMAP
F8
90
10
70
10
90
F8
ENDCHAR
STARTCHAR 1D33
ENCODING 7475
SWIDTH 458 0
DWIDTH 7 0
BBX 6 7 0 3
BITMAP
38
44
80
80
4C
48
30
ENDCHAR
STARTCHAR 1D34
ENCODING 7476
SWIDTH 523 0
DWIDTH 8 0
BBX 7 6 0 4
BITMAP
EE
44
44
7C
44
44
ENDCHAR
STARTCHAR 1D35
ENCODING 7477
SWIDTH 261 0
DWIDTH 4 0
BBX 3 6 0 4
BITMAP
E0
40
40
40
40
40
ENDCHAR
STARTCHAR 1D36
ENCODING 7478
SWIDTH 261 0
DWIDTH 4 0
BBX 3 8 0 2
BITMAP
E0
40
40
40
40
40
40
80
ENDCHAR
STARTCHAR 1D37
ENCODING 7479
SWIDTH 392 0
DWIDTH 6 0
BBX 5 6 0 4
BITMAP
E8
50
60
60
50
48
ENDCHAR
STARTCHAR 1D38
ENCODING 7480
SWIDTH 458 0
DWIDTH 7 0
BBX 6 6 0 4
BITMAP
E0
40
40
40
44
7C
ENDCHAR
STARTCHAR 1D39
ENCODING 7481
SWIDTH 589 0
DWIDTH 9 0
BBX 8 6 0 4
BITMAP
C3
42
66
AA
9A
92
ENDCHAR
STARTCHAR 1D3A
ENCODING 7482
SWIDTH 458 0
DWIDTH 7 0
BBX 6 6 0 4
BITMAP
C4
A4
A4
94
8C
84
ENDCHAR
STARTCHAR 1D3B
ENCODING 7483
SWIDTH 458 0
DWIDTH 7 0
BBX 6 6 0 4
BITMAP
CC
88
98
A8
C8
88
ENDCHAR
STARTCHAR 1D3C
ENCODING 7484
SWIDTH 458 0
DWIDTH 7 0
BBX 6 7 0 3
BITMAP
30
48
84
84
84
48
30
ENDCHAR
STARTCHAR 1D3D
ENCODING 7485
SWIDTH 392 0
DWIDTH 6 0
BBX 5 7 0 3
BITMAP
88
50
70
88
88
50
20
ENDCHAR
STARTCHAR 1D3E
ENCODING 7486
SWIDTH 392 0
DWIDTH 6 0
BBX 5 6 0 4
BITMAP
F0
48
48
70
40
40
ENDCHAR
STARTCHAR 1D3F
ENCODING 7487
SWIDTH 392 0
DWIDTH 6 0
BBX 5 6 0 4
BITMAP
F0
48
48
70
50
48
ENDCHAR
STARTCHAR 1D40
ENCODING 7488
SWIDTH 523 0
DWIDTH 8 0
BBX 7 6 0 4
BITMAP
FE
92
10
10
10
10
ENDCHAR
STARTCHAR 1D41
ENCODING 7489
SWIDTH 523 0
DWIDTH 8 0
BBX 7 7 0 3
BITMAP
EE
44
44
44
44
48
30
ENDCHAR
STARTCHAR 1D42
ENCODING 7490
SWIDTH 654 0
DWIDTH 10 0
BBX 9 6 0 4
BITMAP
D580
5900
4A00
2A00
3400
1400
ENDCHAR
STARTCHAR 1D43
ENCODING 7491
SWIDTH 327 0
DWIDTH 5 0
BBX 4 5 0 3
BITMAP
40
A0
60
A0
50
ENDCHAR
STARTCHAR 1D44
ENCODING 7492
SWIDTH 327 0
DWIDTH 5 0
BBX 4 5 0 3
BITMAP
A0
50
60
50
20
ENDCHAR
STARTCHAR 1D45
ENCODING 7493
SWIDTH 392 0
DWIDTH 6 0
BBX 5 5 0 3
BITMAP
70
90
90
90
68
ENDCHAR
STARTCHAR 1D46
ENCODING 7494
SWIDTH 392 0
DWIDTH 6 0
BBX 5 5 0 3
BITMAP
50
28
30
E8
50
ENDCHAR
STARTCHAR 1D47
ENCODING 7495
SWIDTH 327 0
DWIDTH 5 0
BBX 4 6 0 3
BITMAP
80
A0
D0
90
D0
A0
ENDCHAR
STARTCHAR 1D48
ENCODING 7496
SWIDTH 327 0
DWIDTH 5 0
BBX 4 7 0 3
BITMAP
10
10
70
90
90
90
70
ENDCHAR
STARTCHAR 1D49
ENCODING 7497
SWIDTH 261 0
DWIDTH 4 0
BBX 3 4 0 4
BITMAP
60
E0
80
40
ENDCHAR
STARTCHAR 1D4A
ENCODING 7498
SWIDTH 261 0
DWIDTH 4 0
BBX 3 5 0 3
BITMAP
40
20
20
E0
40
ENDCHAR
STARTCHAR 1D4B
ENCODING 7499
SWIDTH 261 0
DWIDTH 4 0
BBX 3 5 0 3
BITMAP
60
80
60
80
60
ENDCHAR
STARTCHAR 1D4C
ENCODING 7500
SWIDTH 261 0
DWIDTH 4 0
BBX 3 5 0 3
BITMAP
C0
20
C0
20
C0
ENDCHAR
STARTCHAR 1D4D
ENCODING 7501
SWIDTH 327 0
DWIDTH 5 0
BBX 4 7 0 1
BITMAP
60
A0
A0
C0
F0
90
60
ENDCHAR
STARTCHAR 1D4E
ENCODING 7502
SWIDTH 261 0
DWIDTH 4 0
BBX 3 7 0 1
BITMAP
E0
40
40
60
00
00
40
ENDCHAR
STARTCHAR 1D4F
ENCODING 7503
SWIDTH 261 0
DWIDTH 4 0
BBX 3 6 0 4
BITMAP
80
80
A0
C0
C0
A0
ENDCHAR
STARTCHAR 1D50
ENCODING 7504
SWIDTH 392 0
DWIDTH 6 0
BBX 5 4 0 4
BITMAP
D8
A8
A8
A8
ENDCHAR
STARTCHAR 1D51
ENCODING 7505
SWIDTH 261 0
DWIDTH 4 0
BBX 3 7 0 1
BITMAP
C0
A0
A0
A0
20
20
40
ENDCHAR
STARTCHAR 1D52
ENCODING 7506
SWIDTH 327 0
DWIDTH 5 0
BBX 4 5 0 3
BITMAP
60
90
90
90
60
ENDCHAR
STARTCHAR 1D53
ENCODING 7507
SWIDTH 261 0
DWIDTH 4 0
BBX 3 5 0 3
BITMAP
C0
20
20
20
C0
ENDCHAR
STARTCHAR 1D54
ENCODING 7508
SWIDTH 327 0
DWIDTH 5 0
BBX 4 2 0 6
BITMAP
60
90
ENDCHAR
STARTCHAR 1D55
ENCODING 7509
SWIDTH 327 0
DWIDTH 5 0
BBX 4 3 0 3
BITMAP
90
90
60
ENDCHAR
STARTCHAR 1D56
ENCODING 7510
SWIDTH 327 0
DWIDTH 5 0
BBX 4 6 0 1
BITMAP
E0
90
90
E0
80
80
ENDCHAR
STARTCHAR 1D57
ENCODING 7511
SWIDTH 261 0
DWIDTH 4 0
BBX 3 5 0 4
BITMAP
40
E0
40
40
60
ENDCHAR
STARTCHAR 1D58
ENCODING 7512
SWIDTH 392 0
DWIDTH 6 0
BBX 5 4 0 4
BITMAP
90
90
90
68
ENDCHAR
STARTCHAR 1D59
ENCODING 7513
SWIDTH 327 0
DWIDTH 5 0
BBX 4 4 0 3
BITMAP
F0
10
10
E0
ENDCHAR
STARTCHAR 1D5A
ENCODING 7514
SWIDTH 523 0
DWIDTH 8 0
BBX 7 5 0 3
BITMAP
D6
54
54
56
28
ENDCHAR
STARTCHAR 1D5B
ENCODING 7515
SWIDTH 327 0
DWIDTH 5 0
BBX 4 4 0 4
BITMAP
90
A0
60
40
ENDCHAR
STARTCHAR 1D5C
ENCODING 7516
SWIDTH 392 0
DWIDTH 6 0
BBX 5 5 0 3
BITMAP
30
78
70
A8
50
ENDCHAR
STARTCHAR 1D5D
ENCODING 7517
SWIDTH 327 0
DWIDTH 5 0
BBX 4 8 0 2
BITMAP
60
90
A0
90
90
E0
80
80
ENDCHAR
STARTCHAR 1D5E
ENCODING 7518
SWIDTH 327 0
DWIDTH 5 0
BBX 4 6 0 2
BITMAP
90
60
60
40
40
40
ENDCHAR
STARTCHAR 1D5F
ENCODING 7519
SWIDTH 327 0
DWIDTH 5 0
BBX 4 6 0 3
BITMAP
E0
80
60
90
90
60
ENDCHAR
STARTCHAR 1D60
ENCODING 7520
SWIDTH 458 0
DWIDTH 7 0
BBX 6 6 0 2
BITMAP
48
94
94
94
78
10
ENDCHAR
STARTCHAR 1D61
ENCODING 7521
SWIDTH 392 0
DWIDTH 6 0
BBX 5 7 0 1
BITMAP
50
D0
20
20
60
68
90
ENDCHAR
STARTCHAR 1D62
ENCODING 7522
SWIDTH 196 0
DWIDTH 3 0
BBX 2 6 0 -2
BITMAP
40
00
C0
40
40
C0
ENDCHAR
STARTCHAR 1D63
ENCODING 7523
SWIDTH 261 0
DWIDTH 4 0
BBX 3 4 0 -2
BITMAP
E0
80
80
C0
ENDCHAR
STARTCHAR 1D64
ENCODING 7524
SWIDTH 327 0
DWIDTH 5 0
BBX 4 4 0 -2
BITMAP
90
90
90
70
ENDCHAR
STARTCHAR 1D65
ENCODING 7525
SWIDTH 261 0
DWIDTH 4 0
BBX 3 3 0 -1
BITMAP
A0
40
40
ENDCHAR
STARTCHAR 1D66
ENCODING 7526
SWIDTH 327 0
DWIDTH 5 0
BBX 4 8 0 -4
BITMAP
60
A0
E0
90
90
E0
80
80
ENDCHAR
STARTCHAR 1D67
ENCODING 7527
SWIDTH 327 0
DWIDTH 5 0
BBX 4 6 0 -4
BITMAP
D0
60
40
40
40
40
ENDCHAR
STARTCHAR 1D68
ENCODING 7528
SWIDTH 327 0
DWIDTH 5 0
BBX 4 6 0 -4
BITMAP
E0
90
90
E0
80
80
ENDCHAR
STARTCHAR 1D69
ENCODING 7529
SWIDTH 458 0
DWIDTH 7 0
BBX 6 6 0 -4
BITMAP
5C
94
94
74
18
10
ENDCHAR
STARTCHAR 1D6A
ENCODING 7530
SWIDTH 392 0
DWIDTH 6 0
BBX 5 6 0 -4
BITMAP
D8
60
20
20
68
90
ENDCHAR
STARTCHAR 1D6B
ENCODING 7531
SWIDTH 720 0
DWIDTH 11 0
BBX 9 6 1 0
BITMAP
8F80
8F80
8800
8800
CC00
7780
ENDCHAR
STARTCHAR 1E00
ENCODING 7680
SWIDTH 720 0
DWIDTH 11 0
BBX 10 14 0 -4
BITMAP
0C00
0C00
1600
1200
1200
2300
3D00
2100
4180
E1C0
0000
0C00
1400
0C00
ENDCHAR
STARTCHAR 1E01
ENCODING 7681
SWIDTH 392 0
DWIDTH 6 0
BBX 5 10 0 -4
BITMAP
F0
10
30
D0
90
F8
00
60
A0
60
ENDCHAR
STARTCHAR 1E02
ENCODING 7682
SWIDTH 523 0
DWIDTH 8 0
BBX 7 14 0 -1
BITMAP
20
00
00
FC
44
46
44
78
44
42
42
42
EC
10
ENDCHAR
STARTCHAR 1E03
ENCODING 7683
SWIDTH 458 0
DWIDTH 7 0
BBX 6 11 0 -1
BITMAP
80
90
80
80
F8
8C
84
84
8C
C8
30
ENDCHAR
STARTCHAR 1E04
ENCODING 7684
SWIDTH 523 0
DWIDTH 8 0
BBX 7 12 0 -2
BITMAP
FC
44
46
44
78
44
42
42
42
FC
00
30
ENDCHAR
STARTCHAR 1E05
ENCODING 7685
SWIDTH 458 0
DWIDTH 7 0
BBX 6 12 0 -2
BITMAP
80
80
80
80
F8
8C
84
84
8C
F8
00
30
ENDCHAR
STARTCHAR 1E06
ENCODING 7686
SWIDTH 523 0
DWIDTH 8 0
BBX 7 13 0 -3
BITMAP
FC
44
46
44
78
44
42
42
42
EC
10
00
78
ENDCHAR
STARTCHAR 1E07
ENCODING 7687
SWIDTH 458 0
DWIDTH 7 0
BBX 6 13 0 -3
BITMAP
80
80
80
80
F8
8C
84
84
8C
C8
30
00
F0
ENDCHAR
STARTCHAR 1E08
ENCODING 7688
SWIDTH 589 0
DWIDTH 9 0
BBX 8 18 0 -4
BITMAP
01
06
08
00
3F
41
C0
80
80
80
80
C0
40
33
0C
18
08
10
ENDCHAR
STARTCHAR 1E09
ENCODING 7689
SWIDTH 392 0
DWIDTH 6 0
BBX 5 14 0 -4
BITMAP
10
20
00
00
78
80
80
80
80
70
40
60
20
40
ENDCHAR
STARTCHAR 1E0A
ENCODING 7690
SWIDTH 654 0
DWIDTH 10 0
BBX 9 14 0 -1
BITMAP
0800
0000
0000
FE00
4100
4180
4080
4080
4080
4080
4080
4100
E600
1800
ENDCHAR
STARTCHAR 1E0B
ENCODING 7691
SWIDTH 458 0
DWIDTH 7 0
BBX 6 10 0 0
BITMAP
08
48
08
08
78
88
88
88
88
FC
ENDCHAR
STARTCHAR 1E0C
ENCODING 7692
SWIDTH 654 0
DWIDTH 10 0
BBX 9 12 0 -2
BITMAP
FE00
4100
4180
4080
4080
4080
4080
4080
4100
FE00
0000
1800
ENDCHAR
STARTCHAR 1E0D
ENCODING 7693
SWIDTH 458 0
DWIDTH 7 0
BBX 6 12 0 -2
BITMAP
08
08
08
08
78
88
88
88
88
FC
00
30
ENDCHAR
STARTCHAR 1E0E
ENCODING 7694
SWIDTH 654 0
DWIDTH 10 0
BBX 9 13 0 -3
BITMAP
FE00
4100
4180
4080
4080
4080
4080
4080
4100
E600
1800
0000
3C00
ENDCHAR
STARTCHAR 1E0F
ENCODING 7695
SWIDTH 458 0
DWIDTH 7 0
BBX 6 13 0 -3
BITMAP
08
08
08
08
78
88
88
88
88
FC
00
00
78
ENDCHAR
STARTCHAR 1E10
ENCODING 7696
SWIDTH 654 0
DWIDTH 10 0
BBX 9 14 0 -4
BITMAP
FE00
4100
4180
4080
4080
4080
4080
4080
4100
E600
1800
1800
0800
1000
ENDCHAR
STARTCHAR 1E11
ENCODING 7697
SWIDTH 458 0
DWIDTH 7 0
BBX 6 14 0 -4
BITMAP
08
08
08
08
78
88
88
88
88
FC
40
60
20
40
ENDCHAR
STARTCHAR 1E12
ENCODING 7698
SWIDTH 654 0
DWIDTH 10 0
BBX 9 14 0 -4
BITMAP
FE00
4100
4180
4080
4080
4080
4080
4080
4100
E600
1800
1800
2800
0400
ENDCHAR
STARTCHAR 1E13
ENCODING 7699
SWIDTH 458 0
DWIDTH 7 0
BBX 6 14 0 -4
BITMAP
08
08
08
08
78
88
88
88
88
FC
00
30
50
08
ENDCHAR
STARTCHAR 1E14
ENCODING 7700
SWIDTH 523 0
DWIDTH 8 0
BBX 7 17 0 -1
BITMAP
40
20
18
00
38
00
FE
42
42
40
40
78
40
40
42
E6
18
ENDCHAR
STARTCHAR 1E15
ENCODING 7701
SWIDTH 392 0
DWIDTH 6 0
BBX 5 12 0 0
BITMAP
40
40
00
F0
00
00
F0
F8
80
80
80
70
ENDCHAR
STARTCHAR 1E16
ENCODING 7702
SWIDTH 523 0
DWIDTH 8 0
BBX 7 17 0 -1
BITMAP
04
18
20
00
38
00
FE
42
42
40
40
78
40
40
42
E6
18
ENDCHAR
STARTCHAR 1E17
ENCODING 7703
SWIDTH 392 0
DWIDTH 6 0
BBX 5 12 0 0
BITMAP
10
20
00
F0
00
00
F0
F8
80
80
80
70
ENDCHAR
STARTCHAR 1E18
ENCODING 7704
SWIDTH 523 0
DWIDTH 8 0
BBX 7 14 0 -4
BITMAP
FE
42
42
40
40
78
40
40
42
E6
18
18
28
04
ENDCHAR
STARTCHAR 1E19
ENCODING 7705
SWIDTH 392 0
DWIDTH 6 0
BBX 5 10 0 -4
BITMAP
F0
F8
80
80
80
70
00
60
A0
10
ENDCHAR
STARTCHAR 1E1A
ENCODING 7706
SWIDTH 523 0
DWIDTH 8 0
BBX 7 13 0 -3
BITMAP
FE
42
42
40
40
78
40
40
42
E6
18
00
78
ENDCHAR
STARTCHAR 1E1B
ENCODING 7707
SWIDTH 392 0
DWIDTH 6 0
BBX 5 9 0 -3
BITMAP
F0
F8
80
80
80
70
00
00
F0
ENDCHAR
STARTCHAR 1E1C
ENCODING 7708
SWIDTH 523 0
DWIDTH 8 0
BBX 7 18 0 -4
BITMAP
24
24
18
00
FE
42
42
40
40
78
40
40
42
E6
18
30
10
20
ENDCHAR
STARTCHAR 1E1D
ENCODING 7709
SWIDTH 392 0
DWIDTH 6 0
BBX 5 14 0 -4
BITMAP
48
48
30
00
F0
F8
80
80
80
70
40
60
20
40
ENDCHAR
STARTCHAR 1E1E
ENCODING 7710
SWIDTH 523 0
DWIDTH 8 0
BBX 7 13 0 0
BITMAP
10
00
00
FE
42
40
48
48
78
48
40
40
F0
ENDCHAR
STARTCHAR 1E1F
ENCODING 7711
SWIDTH 458 0
DWIDTH 7 0
BBX 6 13 0 0
BITMAP
08
00
1C
24
20
20
F8
60
60
60
60
60
60
ENDCHAR
STARTCHAR 1E20
ENCODING 7712
SWIDTH 654 0
DWIDTH 10 0
BBX 9 13 0 -1
BITMAP
1C00
0000
3F00
4100
C000
8000
8000
8000
8780
C100
4100
3300
0C00
ENDCHAR
STARTCHAR 1E21
ENCODING 7713
SWIDTH 523 0
DWIDTH 8 0
BBX 7 13 0 -4
BITMAP
78
00
00
7E
44
44
68
50
78
26
42
C4
78
ENDCHAR
STARTCHAR 1E22
ENCODING 7714
SWIDTH 720 0
DWIDTH 11 0
BBX 10 13 0 0
BITMAP
0800
0000
0000
F3C0
4080
4080
4080
4080
7F80
4080
4080
4080
E1C0
ENDCHAR
STARTCHAR 1E23
ENCODING 7715
SWIDTH 458 0
DWIDTH 7 0
BBX 6 13 0 0
BITMAP
10
00
40
C0
C0
C0
C0
F8
C4
C4
C4
C4
CC
ENDCHAR
STARTCHAR 1E24
ENCODING 7716
SWIDTH 720 0
DWIDTH 11 0
BBX 10 12 0 -2
BITMAP
F3C0
4080
4080
4080
4080
7F80
4080
4080
4080
E1C0
0000
0C00
ENDCHAR
STARTCHAR 1E25
ENCODING 7717
SWIDTH 458 0
DWIDTH 7 0
BBX 6 13 0 -2
BITMAP
40
C0
C0
C0
C0
F8
C4
C4
C4
C4
CC
00
30
ENDCHAR
STARTCHAR 1E26
ENCODING 7718
SWIDTH 720 0
DWIDTH 11 0
BBX 10 13 0 0
BITMAP
1200
1200
0000
F3C0
4080
4080
4080
4080
7F80
4080
4080
4080
E1C0
ENDCHAR
STARTCHAR 1E27
ENCODING 7719
SWIDTH 458 0
DWIDTH 7 0
BBX 6 13 0 0
BITMAP
48
00
40
C0
C0
C0
C0
F8
C4
C4
C4
C4
CC
ENDCHAR
STARTCHAR 1E28
ENCODING 7720
SWIDTH 720 0
DWIDTH 11 0
BBX 10 14 0 -4
BITMAP
F3C0
4080
4080
4080
4080
7F80
4080
4080
4080
E1C0
2000
3000
1000
2000
ENDCHAR
STARTCHAR 1E29
ENCODING 7721
SWIDTH 458 0
DWIDTH 7 0
BBX 6 15 0 -4
BITMAP
40
C0
C0
C0
C0
F8
C4
C4
C4
C4
CC
40
60
20
40
ENDCHAR
STARTCHAR 1E2A
ENCODING 7722
SWIDTH 720 0
DWIDTH 11 0
BBX 10 14 0 -4
BITMAP
F3C0
4080
4080
4080
4080
7F80
4080
4080
4080
E1C0
0000
1200
1200
0C00
ENDCHAR
STARTCHAR 1E2B
ENCODING 7723
SWIDTH 458 0
DWIDTH 7 0
BBX 6 15 0 -4
BITMAP
40
C0
C0
C0
C0
F8
C4
C4
C4
C4
CC
00
48
48
30
ENDCHAR
STARTCHAR 1E2C
ENCODING 7724
SWIDTH 392 0
DWIDTH 6 0
BBX 5 13 0 -3
BITMAP
F8
20
20
20
20
20
20
20
20
F8
00
68
B0
ENDCHAR
STARTCHAR 1E2D
ENCODING 7725
SWIDTH 392 0
DWIDTH 6 0
BBX 5 12 0 -3
BITMAP
60
00
00
60
60
60
60
60
60
00
68
B0
ENDCHAR
STARTCHAR 1E2E
ENCODING 7726
SWIDTH 458 0
DWIDTH 7 0
BBX 6 16 0 0
BITMAP
04
18
20
48
00
00
F8
20
20
20
20
20
20
20
20
F8
ENDCHAR
STARTCHAR 1E2F
ENCODING 7727
SWIDTH 327 0
DWIDTH 5 0
BBX 4 12 0 0
BITMAP
10
20
00
90
00
00
60
60
60
60
60
60
ENDCHAR
STARTCHAR 1E30
ENCODING 7728
SWIDTH 654 0
DWIDTH 10 0
BBX 9 14 0 0
BITMAP
0200
0C00
1000
0000
F700
4400
4800
5000
5000
7000
4800
4400
4600
E780
ENDCHAR
STARTCHAR 1E31
ENCODING 7729
SWIDTH 458 0
DWIDTH 7 0
BBX 6 15 0 0
BITMAP
10
60
80
00
40
C0
C0
C0
C0
C8
D0
E0
D0
D8
CC
ENDCHAR
STARTCHAR 1E32
ENCODING 7730
SWIDTH 654 0
DWIDTH 10 0
BBX 9 12 0 -2
BITMAP
F700
4400
4800
5000
5000
7000
4800
4400
4600
E780
0000
1800
ENDCHAR
STARTCHAR 1E33
ENCODING 7731
SWIDTH 458 0
DWIDTH 7 0
BBX 6 13 0 -2
BITMAP
40
C0
C0
C0
C0
C8
D0
E0
D0
D8
CC
00
30
ENDCHAR
STARTCHAR 1E34
ENCODING 7732
SWIDTH 654 0
DWIDTH 10 0
BBX 9 13 0 -3
BITMAP
F700
4400
4800
5000
5000
7000
4800
4400
4600
E780
0000
0000
3C00
ENDCHAR
STARTCHAR 1E35
ENCODING 7733
SWIDTH 458 0
DWIDTH 7 0
BBX 6 14 0 -3
BITMAP
40
C0
C0
C0
C0
C8
D0
E0
D0
D8
CC
00
00
78
ENDCHAR
STARTCHAR 1E36
ENCODING 7734
SWIDTH 589 0
DWIDTH 9 0
BBX 8 12 0 -2
BITMAP
F0
40
40
40
40
40
40
40
41
FF
00
18
ENDCHAR
STARTCHAR 1E37
ENCODING 7735
SWIDTH 196 0
DWIDTH 3 0
BBX 2 13 0 -2
BITMAP
40
C0
C0
C0
C0
C0
C0
C0
C0
C0
C0
00
C0
ENDCHAR
STARTCHAR 1E38
ENCODING 7736
SWIDTH 589 0
DWIDTH 9 0
BBX 8 16 0 -3
BITMAP
E0
00
00
F0
40
40
40
40
40
40
40
41
E7
18
00
08
ENDCHAR
STARTCHAR 1E39
ENCODING 7737
SWIDTH 327 0
DWIDTH 5 0
BBX 4 16 0 -3
BITMAP
F0
00
20
60
60
60
60
60
60
60
60
60
60
00
00
40
ENDCHAR
STARTCHAR 1E3A
ENCODING 7738
SWIDTH 589 0
DWIDTH 9 0
BBX 8 13 0 -3
BITMAP
F0
40
40
40
40
40
40
40
41
E7
18
00
78
ENDCHAR
STARTCHAR 1E3B
ENCODING 7739
SWIDTH 327 0
DWIDTH 5 0
BBX 4 14 0 -3
BITMAP
20
60
60
60
60
60
60
60
60
60
60
00
00
F0
ENDCHAR
STARTCHAR 1E3C
ENCODING 7740
SWIDTH 589 0
DWIDTH 9 0
BBX 8 14 0 -4
BITMAP
F0
40
40
40
40
40
40
40
41
E7
18
18
28
04
ENDCHAR
STARTCHAR 1E3D
ENCODING 7741
SWIDTH 327 0
DWIDTH 5 0
BBX 4 15 0 -4
BITMAP
20
60
60
60
60
60
60
60
60
60
60
00
60
A0
10
ENDCHAR
STARTCHAR 1E3E
ENCODING 7742
SWIDTH 850 0
DWIDTH 13 0
BBX 12 14 0 0
BITMAP
0100
0600
0800
0000
C030
6060
6060
70E0
5160
9160
8A60
8A60
8460
C4F0
ENDCHAR
STARTCHAR 1E3F
ENCODING 7743
SWIDTH 720 0
DWIDTH 11 0
BBX 10 10 0 0
BITMAP
0200
0400
0000
0000
FF80
CCC0
CCC0
CCC0
CCC0
CCC0
ENDCHAR
STARTCHAR 1E40
ENCODING 7744
SWIDTH 850 0
DWIDTH 13 0
BBX 12 13 0 0
BITMAP
0400
0000
0000
C030
6060
6060
70E0
5160
9160
8A60
8A60
8460
C4F0
ENDCHAR
STARTCHAR 1E41
ENCODING 7745
SWIDTH 720 0
DWIDTH 11 0
BBX 10 9 0 0
BITMAP
0400
0000
0000
FF80
CCC0
CCC0
CCC0
CCC0
CCC0
ENDCHAR
STARTCHAR 1E42
ENCODING 7746
SWIDTH 850 0
DWIDTH 13 0
BBX 12 12 0 -2
BITMAP
C030
6060
6060
70E0
5160
9160
8A60
8A60
8460
C4F0
0000
0600
ENDCHAR
STARTCHAR 1E43
ENCODING 7747
SWIDTH 720 0
DWIDTH 11 0
BBX 10 8 0 -2
BITMAP
FF80
CCC0
CCC0
CCC0
CCC0
CCC0
0000
0C00
ENDCHAR
STARTCHAR 1E44
ENCODING 7748
SWIDTH 720 0
DWIDTH 11 0
BBX 10 13 0 0
BITMAP
0400
0000
0000
E0C0
3080
5880
4880
4480
4680
4380
4180
4080
7080
ENDCHAR
STARTCHAR 1E45
ENCODING 7749
SWIDTH 458 0
DWIDTH 7 0
BBX 6 9 0 0
BITMAP
20
00
00
F8
CC
CC
CC
CC
CC
ENDCHAR
STARTCHAR 1E46
ENCODING 7750
SWIDTH 720 0
DWIDTH 11 0
BBX 10 12 0 -2
BITMAP
E0C0
3080
5880
4880
4480
4680
4380
4180
4080
7080
0000
0C00
ENDCHAR
STARTCHAR 1E47
ENCODING 7751
SWIDTH 458 0
DWIDTH 7 0
BBX 6 8 0 -2
BITMAP
F8
CC
CC
CC
CC
CC
00
30
ENDCHAR
STARTCHAR 1E48
ENCODING 7752
SWIDTH 720 0
DWIDTH 11 0
BBX 10 13 0 -3
BITMAP
E0C0
3080
5880
4880
4480
4680
4380
4180
4080
7080
0000
0000
1E00
ENDCHAR
STARTCHAR 1E49
ENCODING 7753
SWIDTH 458 0
DWIDTH 7 0
BBX 6 9 0 -3
BITMAP
F8
CC
CC
CC
CC
CC
00
00
78
ENDCHAR
STARTCHAR 1E4A
ENCODING 7754
SWIDTH 720 0
DWIDTH 11 0
BBX 10 14 0 -4
BITMAP
E0C0
3080
5880
4880
4480
4680
4380
4180
4080
7080
0000
0600
0A00
0100
ENDCHAR
STARTCHAR 1E4B
ENCODING 7755
SWIDTH 458 0
DWIDTH 7 0
BBX 6 10 0 -4
BITMAP
F8
CC
CC
CC
CC
CC
00
30
50
08
ENDCHAR
STARTCHAR 1E4C
ENCODING 7756
SWIDTH 654 0
DWIDTH 10 0
BBX 9 17 0 -1
BITMAP
0100
0600
0800
1A00
2C00
0000
3E00
4300
8180
8080
8080
8080
8080
C180
4100
3600
0800
ENDCHAR
STARTCHAR 1E4D
ENCODING 7757
SWIDTH 458 0
DWIDTH 7 0
BBX 6 13 0 -1
BITMAP
08
10
00
68
B0
00
78
88
84
84
88
58
20
ENDCHAR
STARTCHAR 1E4E
ENCODING 7758
SWIDTH 654 0
DWIDTH 10 0
BBX 9 16 0 -1
BITMAP
2400
2400
1A00
2C00
0000
3E00
4300
8180
8080
8080
8080
8080
C180
4100
3600
0800
ENDCHAR
STARTCHAR 1E4F
ENCODING 7759
SWIDTH 458 0
DWIDTH 7 0
BBX 6 12 0 -1
BITMAP
48
00
68
B0
00
78
88
84
84
88
58
20
ENDCHAR
STARTCHAR 1E50
ENCODING 7760
SWIDTH 654 0
DWIDTH 10 0
BBX 9 17 0 -1
BITMAP
2000
1000
0C00
0000
1C00
0000
3E00
4300
8180
8080
8080
8080
8080
C180
4100
3600
0800
ENDCHAR
STARTCHAR 1E51
ENCODING 7761
SWIDTH 458 0
DWIDTH 7 0
BBX 6 13 0 -1
BITMAP
20
10
00
78
00
00
78
88
84
84
88
58
20
ENDCHAR
STARTCHAR 1E52
ENCODING 7762
SWIDTH 654 0
DWIDTH 10 0
BBX 9 17 0 -1
BITMAP
0200
0C00
1000
0000
1C00
0000
3E00
4300
8180
8080
8080
8080
8080
C180
4100
3600
0800
ENDCHAR
STARTCHAR 1E53
ENCODING 7763
SWIDTH 458 0
DWIDTH 7 0
BBX 6 13 0 -1
BITMAP
10
20
00
78
00
00
78
88
84
84
88
58
20
ENDCHAR
STARTCHAR 1E54
ENCODING 7764
SWIDTH 523 0
DWIDTH 8 0
BBX 7 14 0 0
BITMAP
04
18
20
00
FC
46
42
42
46
78
40
40
40
F0
ENDCHAR
STARTCHAR 1E55
ENCODING 7765
SWIDTH 458 0
DWIDTH 7 0
BBX 6 14 0 -4
BITMAP
10
20
00
00
F8
8C
84
84
8C
C8
B0
80
80
C0
ENDCHAR
STARTCHAR 1E56
ENCODING 7766
SWIDTH 523 0
DWIDTH 8 0
BBX 7 13 0 0
BITMAP
10
00
00
FC
46
42
42
46
78
40
40
40
F0
ENDCHAR
STARTCHAR 1E57
ENCODING 7767
SWIDTH 458 0
DWIDTH 7 0
BBX 6 13 0 -4
BITMAP
20
00
00
F8
8C
84
84
8C
C8
B0
80
80
C0
ENDCHAR
STARTCHAR 1E58
ENCODING 7768
SWIDTH 589 0
DWIDTH 9 0
BBX 8 13 0 0
BITMAP
10
00
00
FC
42
42
42
46
78
4C
46
42
F1
ENDCHAR
STARTCHAR 1E59
ENCODING 7769
SWIDTH 327 0
DWIDTH 5 0
BBX 4 9 0 0
BITMAP
40
00
00
B0
C0
80
80
80
C0
ENDCHAR
STARTCHAR 1E5A
ENCODING 7770
SWIDTH 589 0
DWIDTH 9 0
BBX 8 12 0 -2
BITMAP
FC
42
42
42
46
78
4C
46
42
F1
00
18
ENDCHAR
STARTCHAR 1E5B
ENCODING 7771
SWIDTH 327 0
DWIDTH 5 0
BBX 4 8 0 -2
BITMAP
B0
C0
80
80
80
C0
00
60
ENDCHAR
STARTCHAR 1E5C
ENCODING 7772
SWIDTH 589 0
DWIDTH 9 0
BBX 8 15 0 -3
BITMAP
38
00
FC
42
42
42
46
78
4C
46
42
F1
00
00
10
ENDCHAR
STARTCHAR 1E5D
ENCODING 7773
SWIDTH 327 0
DWIDTH 5 0
BBX 4 12 0 -3
BITMAP
F0
00
00
B0
C0
80
80
80
C0
00
00
80
ENDCHAR
STARTCHAR 1E5E
ENCODING 7774
SWIDTH 589 0
DWIDTH 9 0
BBX 8 13 0 -3
BITMAP
FC
42
42
42
46
78
4C
46
42
F1
00
00
3C
ENDCHAR
STARTCHAR 1E5F
ENCODING 7775
SWIDTH 392 0
DWIDTH 6 0
BBX 5 9 0 -3
BITMAP
58
60
40
40
40
60
00
00
F0
ENDCHAR
STARTCHAR 1E60
ENCODING 7776
SWIDTH 458 0
DWIDTH 7 0
BBX 6 14 0 -1
BITMAP
20
00
00
78
80
80
C0
70
18
04
04
84
C8
30
ENDCHAR
STARTCHAR 1E61
ENCODING 7777
SWIDTH 327 0
DWIDTH 5 0
BBX 4 10 0 -1
BITMAP
40
00
00
F0
80
E0
30
10
A0
40
ENDCHAR
STARTCHAR 1E62
ENCODING 7778
SWIDTH 458 0
DWIDTH 7 0
BBX 6 12 0 -2
BITMAP
78
80
80
C0
70
18
04
04
84
F8
00
30
ENDCHAR
STARTCHAR 1E63
ENCODING 7779
SWIDTH 327 0
DWIDTH 5 0
BBX 4 8 0 -2
BITMAP
F0
80
E0
30
10
E0
00
60
ENDCHAR
STARTCHAR 1E64
ENCODING 7780
SWIDTH 458 0
DWIDTH 7 0
BBX 6 16 0 -1
BITMAP
20
04
18
20
00
78
80
80
C0
70
18
04
04
84
C8
30
ENDCHAR
STARTCHAR 1E65
ENCODING 7781
SWIDTH 327 0
DWIDTH 5 0
BBX 4 12 0 -1
BITMAP
40
10
20
00
00
F0
80
E0
30
10
A0
40
ENDCHAR
STARTCHAR 1E66
ENCODING 7782
SWIDTH 458 0
DWIDTH 7 0
BBX 6 16 0 -1
BITMAP
20
00
58
20
00
78
80
80
C0
70
18
04
04
84
C8
30
ENDCHAR
STARTCHAR 1E67
ENCODING 7783
SWIDTH 327 0
DWIDTH 5 0
BBX 4 13 0 -1
BITMAP
40
00
B0
40
00
00
F0
80
E0
30
10
A0
40
ENDCHAR
STARTCHAR 1E68
ENCODING 7784
SWIDTH 458 0
DWIDTH 7 0
BBX 6 16 0 -3
BITMAP
20
00
00
78
80
80
C0
70
18
04
04
84
C8
30
00
20
ENDCHAR
STARTCHAR 1E69
ENCODING 7785
SWIDTH 327 0
DWIDTH 5 0
BBX 4 12 0 -3
BITMAP
40
00
00
F0
80
E0
30
10
A0
40
00
40
ENDCHAR
STARTCHAR 1E6A
ENCODING 7786
SWIDTH 785 0
DWIDTH 12 0
BBX 11 13 0 0
BITMAP
0400
0000
0000
FFE0
8420
8400
0400
0400
0400
0400
0400
0400
0F00
ENDCHAR
STARTCHAR 1E6B
ENCODING 7787
SWIDTH 392 0
DWIDTH 6 0
BBX 5 10 0 0
BITMAP
20
00
00
20
F0
60
60
60
60
38
ENDCHAR
STARTCHAR 1E6C
ENCODING 7788
SWIDTH 785 0
DWIDTH 12 0
BBX 11 12 0 -2
BITMAP
FFE0
8420
8400
0400
0400
0400
0400
0400
0400
0F00
0000
0600
ENDCHAR
STARTCHAR 1E6D
ENCODING 7789
SWIDTH 392 0
DWIDTH 6 0
BBX 5 9 0 -2
BITMAP
20
F0
60
60
60
60
38
00
30
ENDCHAR
STARTCHAR 1E6E
ENCODING 7790
SWIDTH 785 0
DWIDTH 12 0
BBX 11 13 0 -3
BITMAP
FFE0
8420
8400
0400
0400
0400
0400
0400
0400
0F00
0000
0000
0F00
ENDCHAR
STARTCHAR 1E6F
ENCODING 7791
SWIDTH 392 0
DWIDTH 6 0
BBX 5 10 0 -3
BITMAP
20
F0
60
60
60
60
38
00
00
78
ENDCHAR
STARTCHAR 1E70
ENCODING 7792
SWIDTH 785 0
DWIDTH 12 0
BBX 11 14 0 -4
BITMAP
FFE0
8420
8400
0400
0400
0400
0400
0400
0400
0F00
0000
0600
0A00
0100
ENDCHAR
STARTCHAR 1E71
ENCODING 7793
SWIDTH 392 0
DWIDTH 6 0
BBX 5 11 0 -4
BITMAP
20
F0
60
60
60
60
38
00
30
50
08
ENDCHAR
STARTCHAR 1E72
ENCODING 7794
SWIDTH 785 0
DWIDTH 12 0
BBX 11 13 0 -3
BITMAP
F9E0
2080
2080
2080
2080
2080
2080
2080
2080
1900
0600
0000
0900
ENDCHAR
STARTCHAR 1E73
ENCODING 7795
SWIDTH 458 0
DWIDTH 7 0
BBX 6 9 0 -3
BITMAP
88
88
88
88
C8
7C
00
00
48
ENDCHAR
STARTCHAR 1E74
ENCODING 7796
SWIDTH 785 0
DWIDTH 12 0
BBX 11 13 0 -3
BITMAP
F9E0
2080
2080
2080
2080
2080
2080
2080
2080
1900
0600
0000
1E00
ENDCHAR
STARTCHAR 1E75
ENCODING 7797
SWIDTH 458 0
DWIDTH 7 0
BBX 6 9 0 -3
BITMAP
88
88
88
88
C8
7C
00
00
78
ENDCHAR
STARTCHAR 1E76
ENCODING 7798
SWIDTH 785 0
DWIDTH 12 0
BBX 11 14 0 -4
BITMAP
F9E0
2080
2080
2080
2080
2080
2080
2080
2080
1900
0600
0600
0A00
0100
ENDCHAR
STARTCHAR 1E77
ENCODING 7799
SWIDTH 458 0
DWIDTH 7 0
BBX 6 10 0 -4
BITMAP
88
88
88
88
C8
7C
00
30
50
08
ENDCHAR
STARTCHAR 1E78
ENCODING 7800
SWIDTH 785 0
DWIDTH 12 0
BBX 11 17 0 -1
BITMAP
0080
0300
0400
0D00
1600
0000
F9E0
2080
2080
2080
2080
2080
2080
2080
2080
1900
0600
ENDCHAR
STARTCHAR 1E79
ENCODING 7801
SWIDTH 458 0
DWIDTH 7 0
BBX 6 13 0 0
BITMAP
08
10
00
68
B0
00
00
88
88
88
88
C8
7C
ENDCHAR
STARTCHAR 1E7A
ENCODING 7802
SWIDTH 785 0
DWIDTH 12 0
BBX 11 16 0 -1
BITMAP
1200
1200
0000
1E00
0000
F9E0
2080
2080
2080
2080
2080
2080
2080
2080
1900
0600
ENDCHAR
STARTCHAR 1E7B
ENCODING 7803
SWIDTH 458 0
DWIDTH 7 0
BBX 6 11 0 0
BITMAP
48
00
78
00
00
88
88
88
88
C8
7C
ENDCHAR
STARTCHAR 1E7C
ENCODING 7804
SWIDTH 720 0
DWIDTH 11 0
BBX 10 13 0 0
BITMAP
1A00
2C00
0000
F1C0
6100
2100
2200
3200
1200
1400
1C00
0800
0800
ENDCHAR
STARTCHAR 1E7D
ENCODING 7805
SWIDTH 458 0
DWIDTH 7 0
BBX 6 9 0 0
BITMAP
68
B0
00
4C
48
28
30
30
10
ENDCHAR
STARTCHAR 1E7E
ENCODING 7806
SWIDTH 720 0
DWIDTH 11 0
BBX 10 12 0 -2
BITMAP
F1C0
6100
2100
2200
3200
1200
1400
1C00
0800
0800
0000
0C00
ENDCHAR
STARTCHAR 1E7F
ENCODING 7807
SWIDTH 392 0
DWIDTH 6 0
BBX 5 8 0 -2
BITMAP
98
90
50
60
60
20
00
60
ENDCHAR
STARTCHAR 1E80
ENCODING 7808
SWIDTH 1047 0
DWIDTH 16 0
BBX 15 14 0 0
BITMAP
0400
0200
0180
0000
EEEE
6688
2288
3310
1110
1110
0AA0
0AA0
04C0
0440
ENDCHAR
STARTCHAR 1E81
ENCODING 7809
SWIDTH 589 0
DWIDTH 9 0
BBX 8 10 0 0
BITMAP
10
10
00
00
89
99
5A
66
66
24
ENDCHAR
STARTCHAR 1E82
ENCODING 7810
SWIDTH 1047 0
DWIDTH 16 0
BBX 15 14 0 0
BITMAP
0020
00C0
0100
0000
EEEE
6688
2288
3310
1110
1110
0AA0
0AA0
04C0
0440
ENDCHAR
STARTCHAR 1E83
ENCODING 7811
SWIDTH 589 0
DWIDTH 9 0
BBX 8 10 0 0
BITMAP
04
08
00
00
89
99
5A
66
66
24
ENDCHAR
STARTCHAR 1E84
ENCODING 7812
SWIDTH 1047 0
DWIDTH 16 0
BBX 15 13 0 0
BITMAP
0480
0480
0000
EEEE
6688
2288
3310
1110
1110
0AA0
0AA0
04C0
0440
ENDCHAR
STARTCHAR 1E85
ENCODING 7813
SWIDTH 589 0
DWIDTH 9 0
BBX 8 9 0 0
BITMAP
24
00
00
89
99
5A
66
66
24
ENDCHAR
STARTCHAR 1E86
ENCODING 7814
SWIDTH 1047 0
DWIDTH 16 0
BBX 15 13 0 0
BITMAP
0100
0000
0000
EEEE
6688
2288
3310
1110
1110
0AA0
0AA0
04C0
0440
ENDCHAR
STARTCHAR 1E87
ENCODING 7815
SWIDTH 589 0
DWIDTH 9 0
BBX 8 9 0 0
BITMAP
08
00
00
89
99
5A
66
66
24
ENDCHAR
STARTCHAR 1E88
ENCODING 7816
SWIDTH 1047 0
DWIDTH 16 0
BBX 15 12 0 -2
BITMAP
EEEE
6688
2288
3310
1110
1110
0AA0
0AA0
04C0
0440
0000
0300
ENDCHAR
STARTCHAR 1E89
ENCODING 7817
SWIDTH 589 0
DWIDTH 9 0
BBX 8 8 0 -2
BITMAP
89
99
5A
66
66
24
00
18
ENDCHAR
STARTCHAR 1E8A
ENCODING 7818
SWIDTH 720 0
DWIDTH 11 0
BBX 10 13 0 0
BITMAP
0400
0000
0000
F1C0
2100
1200
1C00
0800
0C00
1600
2200
4100
E3C0
ENDCHAR
STARTCHAR 1E8B
ENCODING 7819
SWIDTH 392 0
DWIDTH 6 0
BBX 5 9 0 0
BITMAP
20
00
00
C8
50
20
30
D0
88
ENDCHAR
STARTCHAR 1E8C
ENCODING 7820
SWIDTH 720 0
DWIDTH 11 0
BBX 10 13 0 0
BITMAP
1200
1200
0000
F1C0
2100
1200
1C00
0800
0C00
1600
2200
4100
E3C0
ENDCHAR
STARTCHAR 1E8D
ENCODING 7821
SWIDTH 392 0
DWIDTH 6 0
BBX 5 9 0 0
BITMAP
48
00
00
C8
50
20
30
D0
88
ENDCHAR
STARTCHAR 1E8E
ENCODING 7822
SWIDTH 654 0
DWIDTH 10 0
BBX 9 13 0 0
BITMAP
0800
0000
0000
E380
6100
2200
1400
1400
0800
0800
0800
0800
1C00
ENDCHAR
STARTCHAR 1E8F
ENCODING 7823
SWIDTH 392 0
DWIDTH 6 0
BBX 5 13 0 -4
BITMAP
10
00
00
48
48
48
30
30
30
20
20
40
C0
ENDCHAR
STARTCHAR 1E90
ENCODING 7824
SWIDTH 589 0
DWIDTH 9 0
BBX 8 14 0 0
BITMAP
08
18
24
00
FF
82
04
0C
18
10
20
60
41
FF
ENDCHAR
STARTCHAR 1E91
ENCODING 7825
SWIDTH 392 0
DWIDTH 6 0
BBX 5 10 0 0
BITMAP
30
50
08
00
F8
90
20
20
48
F8
ENDCHAR
STARTCHAR 1E92
ENCODING 7826
SWIDTH 589 0
DWIDTH 9 0
BBX 8 12 0 -2
BITMAP
FF
82
04
0C
18
10
20
60
41
FF
00
18
ENDCHAR
STARTCHAR 1E93
ENCODING 7827
SWIDTH 392 0
DWIDTH 6 0
BBX 5 8 0 -2
BITMAP
F8
90
20
20
48
F8
00
30
ENDCHAR
STARTCHAR 1E94
ENCODING 7828
SWIDTH 589 0
DWIDTH 9 0
BBX 8 13 0 -3
BITMAP
FF
82
04
0C
18
10
20
60
41
FF
00
00
3C
ENDCHAR
STARTCHAR 1E95
ENCODING 7829
SWIDTH 392 0
DWIDTH 6 0
BBX 5 9 0 -3
BITMAP
F8
90
20
20
48
F8
00
00
F0
ENDCHAR
STARTCHAR 1E96
ENCODING 7830
SWIDTH 458 0
DWIDTH 7 0
BBX 6 14 0 -3
BITMAP
40
C0
C0
C0
C0
F8
C4
C4
C4
C4
CC
00
00
78
ENDCHAR
STARTCHAR 1E97
ENCODING 7831
SWIDTH 327 0
DWIDTH 5 0
BBX 5 10 0 0
BITMAP
90
00
00
20
F0
60
60
60
60
38
ENDCHAR
STARTCHAR 1E98
ENCODING 7832
SWIDTH 589 0
DWIDTH 9 0
BBX 8 10 0 0
BITMAP
10
28
10
00
89
99
5A
66
66
24
ENDCHAR
STARTCHAR 1E99
ENCODING 7833
SWIDTH 392 0
DWIDTH 6 0
BBX 5 14 0 -4
BITMAP
30
50
30
00
48
48
48
30
30
30
20
20
40
C0
ENDCHAR
STARTCHAR 1E9A
ENCODING 7834
SWIDTH 392 0
DWIDTH 6 0
BBX 5 11 0 0
BITMAP
20
10
10
20
00
F0
10
30
D0
90
F8
ENDCHAR
STARTCHAR 1E9B
ENCODING 7835
SWIDTH 458 0
DWIDTH 7 0
BBX 6 13 0 0
BITMAP
08
00
1C
24
20
20
E0
60
60
60
60
60
60
ENDCHAR
STARTCHAR 1EA0
ENCODING 7840
SWIDTH 720 0
DWIDTH 11 0
BBX 10 12 0 -2
BITMAP
0C00
0C00
1600
1200
1200
2300
3D00
2100
4180
E1C0
0000
0C00
ENDCHAR
STARTCHAR 1EA1
ENCODING 7841
SWIDTH 392 0
DWIDTH 6 0
BBX 5 8 0 -2
BITMAP
F0
10
30
D0
90
F8
00
60
ENDCHAR
STARTCHAR 1EA2
ENCODING 7842
SWIDTH 720 0
DWIDTH 11 0
BBX 10 15 0 0
BITMAP
0400
0200
0400
0400
0000
0C00
0C00
1600
1200
1200
2300
3D00
2100
4180
E1C0
ENDCHAR
STARTCHAR 1EA3
ENCODING 7843
SWIDTH 392 0
DWIDTH 6 0
BBX 5 11 0 0
BITMAP
20
10
20
20
00
F0
10
30
D0
90
F8
ENDCHAR
STARTCHAR 1EA4
ENCODING 7844
SWIDTH 720 0
DWIDTH 11 0
BBX 10 16 0 0
BITMAP
0080
0100
0C00
1400
0200
0000
0C00
0C00
1600
1200
1200
2300
3D00
2100
4180
E1C0
ENDCHAR
STARTCHAR 1EA5
ENCODING 7845
SWIDTH 392 0
DWIDTH 6 0
BBX 5 12 0 0
BITMAP
08
10
60
A0
10
00
F0
10
30
D0
90
F8
ENDCHAR
STARTCHAR 1EA6
ENCODING 7846
SWIDTH 654 0
DWIDTH 10 0
BBX 10 16 0 0
BITMAP
2000
2000
0C00
1400
0200
0000
0C00
0C00
1600
1200
1200
2300
3D00
2100
4180
E1C0
ENDCHAR
STARTCHAR 1EA7
ENCODING 7847
SWIDTH 458 0
DWIDTH 7 0
BBX 6 12 0 0
BITMAP
80
80
30
50
08
00
78
08
18
68
48
7C
ENDCHAR
STARTCHAR 1EA8
ENCODING 7848
SWIDTH 720 0
DWIDTH 11 0
BBX 10 16 0 0
BITMAP
0100
0080
0100
0D00
1200
0000
0C00
0C00
1600
1200
1200
2300
3D00
2100
4180
E1C0
ENDCHAR
STARTCHAR 1EA9
ENCODING 7849
SWIDTH 458 0
DWIDTH 7 0
BBX 6 13 0 0
BITMAP
08
04
08
68
A0
10
00
F0
10
30
D0
90
F8
ENDCHAR
STARTCHAR 1EAA
ENCODING 7850
SWIDTH 720 0
DWIDTH 11 0
BBX 10 15 0 0
BITMAP
1E00
0000
0C00
0200
0000
0C00
0C00
1600
1200
1200
2300
3D00
2100
4180
E1C0
ENDCHAR
STARTCHAR 1EAB
ENCODING 7851
SWIDTH 458 0
DWIDTH 7 0
BBX 6 13 0 0
BITMAP
68
B0
00
30
50
08
00
78
08
18
68
48
7C
ENDCHAR
STARTCHAR 1EAC
ENCODING 7852
SWIDTH 720 0
DWIDTH 11 0
BBX 10 16 0 -3
BITMAP
0C00
1200
0000
0C00
0C00
1600
1200
1200
2300
3D00
2100
4180
E1C0
0000
0000
0800
ENDCHAR
STARTCHAR 1EAD
ENCODING 7853
SWIDTH 392 0
DWIDTH 6 0
BBX 5 13 0 -3
BITMAP
60
A0
10
00
F0
10
30
D0
90
F8
00
00
20
ENDCHAR
STARTCHAR 1EAE
ENCODING 7854
SWIDTH 720 0
DWIDTH 11 0
BBX 10 16 0 0
BITMAP
0100
0200
1500
1100
0E00
0000
0C00
0C00
1600
1200
1200
2300
3D00
2100
4180
E1C0
ENDCHAR
STARTCHAR 1EAF
ENCODING 7855
SWIDTH 392 0
DWIDTH 6 0
BBX 5 12 0 0
BITMAP
20
40
10
90
60
00
F0
10
30
D0
90
F8
ENDCHAR
STARTCHAR 1EB0
ENCODING 7856
SWIDTH 720 0
DWIDTH 11 0
BBX 10 16 0 0
BITMAP
1000
0800
0500
0900
0600
0000
0C00
0C00
1600
1200
1200
2300
3D00
2100
4180
E1C0
ENDCHAR
STARTCHAR 1EB1
ENCODING 7857
SWIDTH 392 0
DWIDTH 6 0
BBX 5 12 0 0
BITMAP
40
40
10
90
60
00
F0
10
30
D0
90
F8
ENDCHAR
STARTCHAR 1EB2
ENCODING 7858
SWIDTH 720 0
DWIDTH 11 0
BBX 10 17 0 0
BITMAP
0400
0200
0400
0500
0900
0600
0000
0C00
0C00
1600
1200
1200
2300
3D00
2100
4180
E1C0
ENDCHAR
STARTCHAR 1EB3
ENCODING 7859
SWIDTH 327 0
DWIDTH 5 0
BBX 5 13 0 0
BITMAP
20
10
20
30
90
60
00
F0
10
30
D0
90
F8
ENDCHAR
STARTCHAR 1EB4
ENCODING 7860
SWIDTH 720 0
DWIDTH 11 0
BBX 10 15 0 0
BITMAP
0D00
1600
0900
0600
0000
0C00
0C00
1600
1200
1200
2300
3D00
2100
4180
E1C0
ENDCHAR
STARTCHAR 1EB5
ENCODING 7861
SWIDTH 458 0
DWIDTH 7 0
BBX 6 11 0 0
BITMAP
68
B0
48
30
00
78
08
18
68
48
7C
ENDCHAR
STARTCHAR 1EB6
ENCODING 7862
SWIDTH 720 0
DWIDTH 11 0
BBX 10 17 0 -3
BITMAP
0900
0900
0600
0000
0C00
0C00
1600
1200
1200
2300
3D00
2100
4180
E1C0
0000
0000
0800
ENDCHAR
STARTCHAR 1EB7
ENCODING 7863
SWIDTH 392 0
DWIDTH 6 0
BBX 5 13 0 -3
BITMAP
90
90
60
00
F0
10
30
D0
90
F8
00
00
40
ENDCHAR
STARTCHAR 1EB8
ENCODING 7864
SWIDTH 523 0
DWIDTH 8 0
BBX 7 12 0 -2
BITMAP
FE
42
42
40
40
78
40
40
42
FE
00
18
ENDCHAR
STARTCHAR 1EB9
ENCODING 7865
SWIDTH 392 0
DWIDTH 6 0
BBX 5 8 0 -2
BITMAP
F0
F8
80
80
80
70
00
60
ENDCHAR
STARTCHAR 1EBA
ENCODING 7866
SWIDTH 523 0
DWIDTH 8 0
BBX 7 16 0 -1
BITMAP
08
04
08
08
00
FE
42
42
40
40
78
40
40
42
E6
18
ENDCHAR
STARTCHAR 1EBB
ENCODING 7867
SWIDTH 392 0
DWIDTH 6 0
BBX 5 11 0 0
BITMAP
20
10
20
20
00
F0
F8
80
80
80
70
ENDCHAR
STARTCHAR 1EBC
ENCODING 7868
SWIDTH 523 0
DWIDTH 8 0
BBX 7 14 0 -1
BITMAP
34
58
00
FE
42
42
40
40
78
40
40
42
E6
18
ENDCHAR
STARTCHAR 1EBD
ENCODING 7869
SWIDTH 392 0
DWIDTH 6 0
BBX 5 9 0 0
BITMAP
68
B0
00
F0
F8
80
80
80
70
ENDCHAR
STARTCHAR 1EBE
ENCODING 7870
SWIDTH 523 0
DWIDTH 8 0
BBX 7 17 0 -1
BITMAP
02
04
18
28
04
00
FE
42
42
40
40
78
40
40
42
E6
18
ENDCHAR
STARTCHAR 1EBF
ENCODING 7871
SWIDTH 458 0
DWIDTH 7 0
BBX 6 12 0 0
BITMAP
04
08
60
A0
10
00
F0
F8
80
80
80
70
ENDCHAR
STARTCHAR 1EC0
ENCODING 7872
SWIDTH 523 0
DWIDTH 8 0
BBX 7 17 0 -1
BITMAP
40
40
18
28
04
00
FE
42
42
40
40
78
40
40
42
E6
18
ENDCHAR
STARTCHAR 1EC1
ENCODING 7873
SWIDTH 392 0
DWIDTH 6 0
BBX 5 12 0 0
BITMAP
80
80
60
A0
10
00
F0
F8
80
80
80
70
ENDCHAR
STARTCHAR 1EC2
ENCODING 7874
SWIDTH 589 0
DWIDTH 9 0
BBX 8 17 0 -1
BITMAP
02
01
02
1A
04
00
FE
42
42
40
40
78
40
40
42
E6
18
ENDCHAR
STARTCHAR 1EC3
ENCODING 7875
SWIDTH 458 0
DWIDTH 7 0
BBX 6 13 0 0
BITMAP
08
04
08
68
A0
10
00
F0
F8
80
80
80
70
ENDCHAR
STARTCHAR 1EC4
ENCODING 7876
SWIDTH 523 0
DWIDTH 8 0
BBX 7 16 0 -1
BITMAP
34
58
18
24
00
FE
42
42
40
40
78
40
40
42
E6
18
ENDCHAR
STARTCHAR 1EC5
ENCODING 7877
SWIDTH 392 0
DWIDTH 6 0
BBX 5 12 0 0
BITMAP
68
B0
60
A0
10
00
F0
F8
80
80
80
70
ENDCHAR
STARTCHAR 1EC6
ENCODING 7878
SWIDTH 523 0
DWIDTH 8 0
BBX 7 16 0 -3
BITMAP
18
24
00
FE
42
42
40
40
78
40
40
42
E6
18
00
10
ENDCHAR
STARTCHAR 1EC7
ENCODING 7879
SWIDTH 392 0
DWIDTH 6 0
BBX 5 13 0 -3
BITMAP
60
A0
10
00
F0
F8
80
80
80
70
00
00
20
ENDCHAR
STARTCHAR 1EC8
ENCODING 7880
SWIDTH 327 0
DWIDTH 5 0
BBX 4 15 0 0
BITMAP
20
10
20
20
00
F0
40
40
40
40
40
40
40
40
E0
ENDCHAR
STARTCHAR 1EC9
ENCODING 7881
SWIDTH 261 0
DWIDTH 4 0
BBX 3 11 0 0
BITMAP
40
20
40
40
00
C0
C0
C0
C0
C0
C0
ENDCHAR
STARTCHAR 1ECA
ENCODING 7882
SWIDTH 327 0
DWIDTH 5 0
BBX 4 12 0 -2
BITMAP
F0
40
40
40
40
40
40
40
40
E0
00
60
ENDCHAR
STARTCHAR 1ECB
ENCODING 7883
SWIDTH 196 0
DWIDTH 3 0
BBX 2 11 0 -2
BITMAP
C0
00
00
C0
C0
C0
C0
C0
C0
00
C0
ENDCHAR
STARTCHAR 1ECC
ENCODING 7884
SWIDTH 654 0
DWIDTH 10 0
BBX 9 12 0 -2
BITMAP
3E00
4300
8180
8080
8080
8080
8080
C180
4100
3E00
0000
1800
ENDCHAR
STARTCHAR 1ECD
ENCODING 7885
SWIDTH 458 0
DWIDTH 7 0
BBX 6 8 0 -2
BITMAP
78
84
84
84
84
78
00
30
ENDCHAR
STARTCHAR 1ECE
ENCODING 7886
SWIDTH 654 0
DWIDTH 10 0
BBX 9 16 0 -1
BITMAP
0800
0400
0800
0800
0000
3E00
4300
8180
8080
8080
8080
8080
C180
4100
3600
0800
ENDCHAR
STARTCHAR 1ECF
ENCODING 7887
SWIDTH 458 0
DWIDTH 7 0
BBX 6 11 0 0
BITMAP
10
08
10
10
00
78
84
84
84
84
78
ENDCHAR
STARTCHAR 1ED0
ENCODING 7888
SWIDTH 654 0
DWIDTH 10 0
BBX 9 17 0 -1
BITMAP
0100
0200
0800
1400
2200
0000
3E00
4300
8180
8080
8080
8080
8080
C180
4100
3600
0800
ENDCHAR
STARTCHAR 1ED1
ENCODING 7889
SWIDTH 458 0
DWIDTH 7 0
BBX 6 13 0 -1
BITMAP
04
08
20
50
88
00
78
88
84
84
88
58
20
ENDCHAR
STARTCHAR 1ED2
ENCODING 7890
SWIDTH 654 0
DWIDTH 10 0
BBX 9 17 0 -1
BITMAP
4000
4000
0C00
1400
0200
0000
3E00
4300
8180
8080
8080
8080
8080
C180
4100
3600
0800
ENDCHAR
STARTCHAR 1ED3
ENCODING 7891
SWIDTH 458 0
DWIDTH 7 0
BBX 6 13 0 -1
BITMAP
80
80
30
50
08
00
78
88
84
84
88
58
20
ENDCHAR
STARTCHAR 1ED4
ENCODING 7892
SWIDTH 654 0
DWIDTH 10 0
BBX 9 17 0 -1
BITMAP
0200
0100
0A00
1600
2200
0000
3E00
4300
8180
8080
8080
8080
8080
C180
4100
3600
0800
ENDCHAR
STARTCHAR 1ED5
ENCODING 7893
SWIDTH 523 0
DWIDTH 8 0
BBX 7 14 0 -1
BITMAP
04
02
04
34
50
08
00
78
88
84
84
88
58
20
ENDCHAR
STARTCHAR 1ED6
ENCODING 7894
SWIDTH 654 0
DWIDTH 10 0
BBX 9 16 0 -1
BITMAP
1A00
2C00
1800
2400
0000
3E00
4300
8180
8080
8080
8080
8080
C180
4100
3600
0800
ENDCHAR
STARTCHAR 1ED7
ENCODING 7895
SWIDTH 458 0
DWIDTH 7 0
BBX 6 12 0 0
BITMAP
68
B0
20
50
88
00
78
84
84
84
84
78
ENDCHAR
STARTCHAR 1ED8
ENCODING 7896
SWIDTH 654 0
DWIDTH 10 0
BBX 9 16 0 -3
BITMAP
0C00
1200
0000
3E00
4300
8180
8080
8080
8080
8080
C180
4100
3E00
0000
0000
0800
ENDCHAR
STARTCHAR 1ED9
ENCODING 7897
SWIDTH 458 0
DWIDTH 7 0
BBX 6 13 0 -3
BITMAP
30
50
08
00
78
84
84
84
84
78
00
00
20
ENDCHAR
STARTCHAR 1EDA
ENCODING 7898
SWIDTH 654 0
DWIDTH 10 0
BBX 9 15 0 -1
BITMAP
0200
0C00
1000
0000
3E80
4300
8180
8080
8080
8080
8080
C180
4100
3600
0800
ENDCHAR
STARTCHAR 1EDB
ENCODING 7899
SWIDTH 458 0
DWIDTH 7 0
BBX 6 11 0 -1
BITMAP
10
20
00
04
7C
88
84
84
88
58
20
ENDCHAR
STARTCHAR 1EDC
ENCODING 7900
SWIDTH 654 0
DWIDTH 10 0
BBX 9 15 0 -1
BITMAP
2000
1000
0C00
0000
3E80
4300
8180
8080
8080
8080
8080
C180
4100
3600
0800
ENDCHAR
STARTCHAR 1EDD
ENCODING 7901
SWIDTH 458 0
DWIDTH 7 0
BBX 6 10 0 0
BITMAP
20
20
00
04
78
84
84
84
84
78
ENDCHAR
STARTCHAR 1EDE
ENCODING 7902
SWIDTH 654 0
DWIDTH 10 0
BBX 9 16 0 -1
BITMAP
0800
0400
0800
0800
0000
3E80
4300
8180
8080
8080
8080
8080
C180
4100
3600
0800
ENDCHAR
STARTCHAR 1EDF
ENCODING 7903
SWIDTH 458 0
DWIDTH 7 0
BBX 6 11 0 0
BITMAP
10
08
10
10
04
78
84
84
84
84
78
ENDCHAR
STARTCHAR 1EE0
ENCODING 7904
SWIDTH 654 0
DWIDTH 10 0
BBX 9 13 0 0
BITMAP
1A00
2C00
0000
3E80
4300
8180
8080
8080
8080
8080
C180
4100
3E00
ENDCHAR
STARTCHAR 1EE1
ENCODING 7905
SWIDTH 458 0
DWIDTH 7 0
BBX 6 9 0 0
BITMAP
68
B0
04
78
84
84
84
84
78
ENDCHAR
STARTCHAR 1EE2
ENCODING 7906
SWIDTH 654 0
DWIDTH 10 0
BBX 9 13 0 -3
BITMAP
3E80
4300
8180
8080
8080
8080
8080
C180
4100
3E00
0000
0000
0800
ENDCHAR
STARTCHAR 1EE3
ENCODING 7907
SWIDTH 458 0
DWIDTH 7 0
BBX 6 10 0 -3
BITMAP
04
78
84
84
84
84
78
00
00
20
ENDCHAR
STARTCHAR 1EE4
ENCODING 7908
SWIDTH 785 0
DWIDTH 12 0
BBX 11 12 0 -2
BITMAP
F9E0
2080
2080
2080
2080
2080
2080
2080
2080
1F00
0000
0600
ENDCHAR
STARTCHAR 1EE5
ENCODING 7909
SWIDTH 458 0
DWIDTH 7 0
BBX 6 8 0 -2
BITMAP
88
88
88
88
C8
7C
00
30
ENDCHAR
STARTCHAR 1EE6
ENCODING 7910
SWIDTH 785 0
DWIDTH 12 0
BBX 11 16 0 -1
BITMAP
0200
0100
0200
0200
0000
F9E0
2080
2080
2080
2080
2080
2080
2080
2080
1900
0600
ENDCHAR
STARTCHAR 1EE7
ENCODING 7911
SWIDTH 458 0
DWIDTH 7 0
BBX 6 11 0 0
BITMAP
10
08
10
10
00
88
88
88
88
C8
7C
ENDCHAR
STARTCHAR 1EE8
ENCODING 7912
SWIDTH 850 0
DWIDTH 13 0
BBX 12 15 0 -1
BITMAP
0080
0300
0400
0010
F9E0
2080
2080
2080
2080
2080
2080
2080
3080
1900
0600
ENDCHAR
STARTCHAR 1EE9
ENCODING 7913
SWIDTH 523 0
DWIDTH 8 0
BBX 7 10 0 0
BITMAP
10
20
02
02
8C
88
88
88
C8
7C
ENDCHAR
STARTCHAR 1EEA
ENCODING 7914
SWIDTH 850 0
DWIDTH 13 0
BBX 12 15 0 -1
BITMAP
1000
0800
0600
0010
F9E0
2080
2080
2080
2080
2080
2080
2080
3080
1900
0600
ENDCHAR
STARTCHAR 1EEB
ENCODING 7915
SWIDTH 458 0
DWIDTH 7 0
BBX 7 10 0 0
BITMAP
20
20
02
02
8C
88
88
88
C8
7C
ENDCHAR
STARTCHAR 1EEC
ENCODING 7916
SWIDTH 850 0
DWIDTH 13 0
BBX 12 16 0 -1
BITMAP
0200
0100
0200
0200
0010
F9E0
2080
2080
2080
2080
2080
2080
2080
3080
1900
0600
ENDCHAR
STARTCHAR 1EED
ENCODING 7917
SWIDTH 523 0
DWIDTH 8 0
BBX 7 11 0 0
BITMAP
10
08
10
12
02
8C
88
88
88
C8
7C
ENDCHAR
STARTCHAR 1EEE
ENCODING 7918
SWIDTH 850 0
DWIDTH 13 0
BBX 12 14 0 -1
BITMAP
1C80
2700
0010
F9E0
2080
2080
2080
2080
2080
2080
2080
3080
1900
0600
ENDCHAR
STARTCHAR 1EEF
ENCODING 7919
SWIDTH 523 0
DWIDTH 8 0
BBX 7 9 0 0
BITMAP
68
B2
02
8C
88
88
88
C8
7C
ENDCHAR
STARTCHAR 1EF0
ENCODING 7920
SWIDTH 850 0
DWIDTH 13 0
BBX 12 14 0 -3
BITMAP
0010
F9E0
2080
2080
2080
2080
2080
2080
2080
3080
1900
0600
0000
0400
ENDCHAR
STARTCHAR 1EF1
ENCODING 7921
SWIDTH 523 0
DWIDTH 8 0
BBX 7 11 0 -3
BITMAP
02
02
8C
88
88
88
C8
7C
00
00
20
ENDCHAR
STARTCHAR 1EF2
ENCODING 7922
SWIDTH 654 0
DWIDTH 10 0
BBX 9 14 0 0
BITMAP
2000
1000
0C00
0000
E380
6100
2200
1400
1400
0800
0800
0800
0800
1C00
ENDCHAR
STARTCHAR 1EF3
ENCODING 7923
SWIDTH 392 0
DWIDTH 6 0
BBX 5 14 0 -4
BITMAP
20
20
00
00
48
48
48
30
30
30
20
20
40
C0
ENDCHAR
STARTCHAR 1EF4
ENCODING 7924
SWIDTH 654 0
DWIDTH 10 0
BBX 9 12 0 -2
BITMAP
E380
6100
2200
1400
1400
0800
0800
0800
0800
1C00
0000
1800
ENDCHAR
STARTCHAR 1EF5
ENCODING 7925
SWIDTH 392 0
DWIDTH 6 0
BBX 5 10 0 -4
BITMAP
48
48
48
30
30
30
20
28
40
C0
ENDCHAR
STARTCHAR 1EF6
ENCODING 7926
SWIDTH 654 0
DWIDTH 10 0
BBX 9 15 0 0
BITMAP
0400
0200
0400
0400
0000
E380
6100
2200
1400
1400
0800
0800
0800
0800
1C00
ENDCHAR
STARTCHAR 1EF7
ENCODING 7927
SWIDTH 392 0
DWIDTH 6 0
BBX 5 15 0 -4
BITMAP
10
08
10
10
00
48
48
48
30
30
30
20
20
40
C0
ENDCHAR
STARTCHAR 1EF8
ENCODING 7928
SWIDTH 654 0
DWIDTH 10 0
BBX 9 13 0 0
BITMAP
1A00
2C00
0000
E380
6100
2200
1400
1400
0800
0800
0800
0800
1C00
ENDCHAR
STARTCHAR 1EF9
ENCODING 7929
SWIDTH 392 0
DWIDTH 6 0
BBX 5 13 0 -4
BITMAP
68
B0
00
48
48
48
30
30
30
20
20
40
C0
ENDCHAR
STARTCHAR 1F00
ENCODING 7936
SWIDTH 589 0
DWIDTH 9 0
BBX 8 11 0 0
BITMAP
0C
04
08
00
00
3A
66
44
88
98
77
ENDCHAR
STARTCHAR 1F01
ENCODING 7937
SWIDTH 589 0
DWIDTH 9 0
BBX 8 11 0 0
BITMAP
18
10
08
00
00
3A
66
44
88
98
77
ENDCHAR
STARTCHAR 1F02
ENCODING 7938
SWIDTH 589 0
DWIDTH 9 0
BBX 8 12 0 0
BITMAP
04
34
12
20
00
00
3A
66
44
88
98
77
ENDCHAR
STARTCHAR 1F03
ENCODING 7939
SWIDTH 589 0
DWIDTH 9 0
BBX 8 12 0 0
BITMAP
04
34
22
10
00
00
3A
66
44
88
98
77
ENDCHAR
STARTCHAR 1F04
ENCODING 7940
SWIDTH 589 0
DWIDTH 9 0
BBX 8 12 0 0
BITMAP
02
02
1C
0C
10
00
3A
66
44
88
98
77
ENDCHAR
STARTCHAR 1F05
ENCODING 7941
SWIDTH 589 0
DWIDTH 9 0
BBX 8 11 0 0
BITMAP
04
34
28
18
00
3A
66
44
88
98
77
ENDCHAR
STARTCHAR 1F06
ENCODING 7942
SWIDTH 589 0
DWIDTH 9 0
BBX 8 12 0 0
BITMAP
34
58
18
08
10
00
3A
66
44
88
98
77
ENDCHAR
STARTCHAR 1F07
ENCODING 7943
SWIDTH 589 0
DWIDTH 9 0
BBX 8 12 0 0
BITMAP
34
58
18
10
08
00
3A
66
44
88
98
77
ENDCHAR
STARTCHAR 1F08
ENCODING 7944
SWIDTH 720 0
DWIDTH 11 0
BBX 10 11 0 0
BITMAP
6000
2C00
4C00
1600
1200
1200
2300
3D00
2100
4180
E1C0
ENDCHAR
STARTCHAR 1F09
ENCODING 7945
SWIDTH 720 0
DWIDTH 11 0
BBX 10 10 0 0
BITMAP
6C00
4C00
3600
1200
1200
2300
3D00
2100
4180
E1C0
ENDCHAR
STARTCHAR 1F0A
ENCODING 7946
SWIDTH 720 0
DWIDTH 11 0
BBX 10 12 0 0
BITMAP
4000
4000
EC00
6C00
9400
1200
1200
2200
3F00
4100
4100
E1C0
ENDCHAR
STARTCHAR 1F0B
ENCODING 7947
SWIDTH 785 0
DWIDTH 12 0
BBX 11 12 0 0
BITMAP
2000
E000
A600
5600
0A00
0900
0900
1100
1F80
2080
2080
70E0
ENDCHAR
STARTCHAR 1F0C
ENCODING 7948
SWIDTH 785 0
DWIDTH 12 0
BBX 11 12 0 0
BITMAP
1000
1000
D600
4600
8A00
0900
0900
1100
1F80
2080
2080
70E0
ENDCHAR
STARTCHAR 1F0D
ENCODING 7949
SWIDTH 785 0
DWIDTH 12 0
BBX 11 12 0 0
BITMAP
1000
D000
9600
4600
0A00
0900
0900
1100
1F80
2080
2080
70E0
ENDCHAR
STARTCHAR 1F0E
ENCODING 7950
SWIDTH 785 0
DWIDTH 12 0
BBX 11 12 0 0
BITMAP
6800
B000
6400
2A00
4A00
0A00
1100
1100
2F00
2080
2080
71E0
ENDCHAR
STARTCHAR 1F0F
ENCODING 7951
SWIDTH 785 0
DWIDTH 12 0
BBX 11 12 0 0
BITMAP
6800
B000
6400
4A00
2A00
0A00
1100
1100
2F00
2080
2080
71E0
ENDCHAR
STARTCHAR 1F10
ENCODING 7952
SWIDTH 327 0
DWIDTH 5 0
BBX 4 10 0 0
BITMAP
30
10
20
00
70
80
B0
40
90
60
ENDCHAR
STARTCHAR 1F11
ENCODING 7953
SWIDTH 327 0
DWIDTH 5 0
BBX 4 10 0 0
BITMAP
30
20
10
00
70
80
B0
40
90
60
ENDCHAR
STARTCHAR 1F12
ENCODING 7954
SWIDTH 327 0
DWIDTH 5 0
BBX 4 12 0 0
BITMAP
10
70
30
40
00
00
70
80
B0
40
90
60
ENDCHAR
STARTCHAR 1F13
ENCODING 7955
SWIDTH 327 0
DWIDTH 5 0
BBX 4 12 0 0
BITMAP
10
D0
90
40
00
00
70
80
B0
40
90
60
ENDCHAR
STARTCHAR 1F14
ENCODING 7956
SWIDTH 392 0
DWIDTH 6 0
BBX 5 12 0 0
BITMAP
08
D0
50
90
00
00
70
80
B0
40
90
60
ENDCHAR
STARTCHAR 1F15
ENCODING 7957
SWIDTH 392 0
DWIDTH 6 0
BBX 5 12 0 0
BITMAP
08
D0
90
50
00
00
70
80
B0
40
90
60
ENDCHAR
STARTCHAR 1F18
ENCODING 7960
SWIDTH 785 0
DWIDTH 12 0
BBX 11 11 0 -1
BITMAP
DFC0
4C40
8C00
0C00
0C80
0F80
0C80
0C20
0C20
1CE0
0300
ENDCHAR
STARTCHAR 1F19
ENCODING 7961
SWIDTH 785 0
DWIDTH 12 0
BBX 11 12 0 -1
BITMAP
C000
9FC0
4840
0800
0800
0880
0F80
0880
0820
0C20
1CE0
0300
ENDCHAR
STARTCHAR 1F1A
ENCODING 7962
SWIDTH 850 0
DWIDTH 13 0
BBX 12 12 0 -1
BITMAP
2000
D7F0
5210
8210
0200
0200
03C0
0200
0200
0210
0730
00C0
ENDCHAR
STARTCHAR 1F1B
ENCODING 7963
SWIDTH 850 0
DWIDTH 13 0
BBX 12 13 0 -1
BITMAP
2000
E000
9FF0
5210
0210
0200
0200
03C0
0200
0200
0210
0F30
00C0
ENDCHAR
STARTCHAR 1F1C
ENCODING 7964
SWIDTH 916 0
DWIDTH 14 0
BBX 13 12 0 -1
BITMAP
1000
D7F0
4210
8200
0200
0200
03C0
0200
0208
0208
0738
00C0
ENDCHAR
STARTCHAR 1F1D
ENCODING 7965
SWIDTH 850 0
DWIDTH 13 0
BBX 12 13 0 -1
BITMAP
1000
D000
97F0
4210
0210
0200
0200
03C0
0200
0200
0210
0730
00C0
ENDCHAR
STARTCHAR 1F20
ENCODING 7968
SWIDTH 392 0
DWIDTH 6 0
BBX 5 12 0 -1
BITMAP
20
20
20
00
80
98
A8
48
C8
90
90
10
ENDCHAR
STARTCHAR 1F21
ENCODING 7969
SWIDTH 392 0
DWIDTH 6 0
BBX 5 11 0 -1
BITMAP
20
20
00
80
98
A8
48
C8
90
90
10
ENDCHAR
STARTCHAR 1F22
ENCODING 7970
SWIDTH 392 0
DWIDTH 6 0
BBX 5 13 0 -1
BITMAP
10
10
70
08
00
80
98
A8
48
C8
90
90
10
ENDCHAR
STARTCHAR 1F23
ENCODING 7971
SWIDTH 392 0
DWIDTH 6 0
BBX 5 13 0 -1
BITMAP
10
10
50
00
08
80
98
A8
48
C8
90
90
10
ENDCHAR
STARTCHAR 1F24
ENCODING 7972
SWIDTH 392 0
DWIDTH 6 0
BBX 5 12 0 -1
BITMAP
08
28
20
00
80
98
A8
48
C8
90
90
10
ENDCHAR
STARTCHAR 1F25
ENCODING 7973
SWIDTH 392 0
DWIDTH 6 0
BBX 5 13 0 -1
BITMAP
08
28
28
20
00
80
98
A8
48
C8
90
90
10
ENDCHAR
STARTCHAR 1F26
ENCODING 7974
SWIDTH 392 0
DWIDTH 6 0
BBX 5 13 0 -1
BITMAP
78
00
10
10
00
80
98
A8
48
C8
90
90
10
ENDCHAR
STARTCHAR 1F27
ENCODING 7975
SWIDTH 392 0
DWIDTH 6 0
BBX 5 13 0 -1
BITMAP
78
10
10
10
00
80
98
A8
48
C8
90
90
10
ENDCHAR
STARTCHAR 1F28
ENCODING 7976
SWIDTH 916 0
DWIDTH 14 0
BBX 13 10 0 0
BITMAP
BC78
9020
1020
1020
1020
1FE0
1020
1020
1020
3C78
ENDCHAR
STARTCHAR 1F29
ENCODING 7977
SWIDTH 916 0
DWIDTH 14 0
BBX 13 10 0 0
BITMAP
BC78
9820
1820
1820
1820
1FE0
1820
1820
1820
3C78
ENDCHAR
STARTCHAR 1F2A
ENCODING 7978
SWIDTH 1047 0
DWIDTH 16 0
BBX 15 11 0 0
BITMAP
4000
AF1E
A408
0408
0408
0408
07F8
0408
0408
0408
0F1E
ENDCHAR
STARTCHAR 1F2B
ENCODING 7979
SWIDTH 1047 0
DWIDTH 16 0
BBX 15 12 0 0
BITMAP
4000
C000
AF3E
A408
0408
0408
0408
07F8
0408
0408
0408
0F1C
ENDCHAR
STARTCHAR 1F2C
ENCODING 7980
SWIDTH 1047 0
DWIDTH 16 0
BBX 15 11 0 0
BITMAP
A000
AF1E
A408
0408
0408
0608
05F8
0408
0408
0408
0F1E
ENDCHAR
STARTCHAR 1F2D
ENCODING 7981
SWIDTH 1047 0
DWIDTH 16 0
BBX 15 12 0 0
BITMAP
2000
A000
AF3E
8408
0408
0408
0408
07F8
0408
0408
0408
0F1C
ENDCHAR
STARTCHAR 1F2E
ENCODING 7982
SWIDTH 1047 0
DWIDTH 16 0
BBX 15 12 0 0
BITMAP
F000
0000
2F1E
220C
020C
020C
020C
03FC
020C
020C
020C
0F1E
ENDCHAR
STARTCHAR 1F2F
ENCODING 7983
SWIDTH 981 0
DWIDTH 15 0
BBX 14 12 0 0
BITMAP
E000
4000
5E3C
4418
0418
0418
0418
07F8
0418
0418
0418
1E3C
ENDCHAR
STARTCHAR 1F30
ENCODING 7984
SWIDTH 261 0
DWIDTH 4 0
BBX 3 10 0 0
BITMAP
20
20
00
00
20
40
40
80
C0
C0
ENDCHAR
STARTCHAR 1F31
ENCODING 7985
SWIDTH 261 0
DWIDTH 4 0
BBX 3 10 0 0
BITMAP
20
20
00
00
20
40
40
80
C0
C0
ENDCHAR
STARTCHAR 1F32
ENCODING 7986
SWIDTH 327 0
DWIDTH 5 0
BBX 4 12 0 0
BITMAP
20
20
50
50
00
00
20
40
40
80
C0
C0
ENDCHAR
STARTCHAR 1F33
ENCODING 7987
SWIDTH 327 0
DWIDTH 5 0
BBX 4 12 0 0
BITMAP
20
20
E0
10
00
00
20
40
40
80
C0
C0
ENDCHAR
STARTCHAR 1F34
ENCODING 7988
SWIDTH 327 0
DWIDTH 5 0
BBX 4 11 0 0
BITMAP
50
50
50
00
00
20
40
40
80
C0
C0
ENDCHAR
STARTCHAR 1F35
ENCODING 7989
SWIDTH 327 0
DWIDTH 5 0
BBX 4 11 0 0
BITMAP
50
50
50
00
00
20
40
40
80
C0
C0
ENDCHAR
STARTCHAR 1F36
ENCODING 7990
SWIDTH 327 0
DWIDTH 5 0
BBX 4 12 0 0
BITMAP
70
20
20
20
00
00
20
40
40
80
C0
C0
ENDCHAR
STARTCHAR 1F37
ENCODING 7991
SWIDTH 327 0
DWIDTH 5 0
BBX 4 12 0 0
BITMAP
70
20
20
20
00
00
20
40
40
80
C0
C0
ENDCHAR
STARTCHAR 1F38
ENCODING 7992
SWIDTH 523 0
DWIDTH 8 0
BBX 7 10 0 0
BITMAP
DE
48
08
08
08
08
08
08
08
1E
ENDCHAR
STARTCHAR 1F39
ENCODING 7993
SWIDTH 523 0
DWIDTH 8 0
BBX 7 10 0 0
BITMAP
DE
08
08
08
08
08
08
08
08
1E
ENDCHAR
STARTCHAR 1F3A
ENCODING 7994
SWIDTH 589 0
DWIDTH 9 0
BBX 8 12 0 0
BITMAP
40
40
AF
A4
04
04
04
04
04
04
04
0F
ENDCHAR
STARTCHAR 1F3B
ENCODING 7995
SWIDTH 654 0
DWIDTH 10 0
BBX 9 12 0 0
BITMAP
2000
6000
E780
1200
0200
0200
0200
0200
0200
0200
0200
0780
ENDCHAR
STARTCHAR 1F3C
ENCODING 7996
SWIDTH 589 0
DWIDTH 9 0
BBX 8 12 0 0
BITMAP
20
20
AF
84
04
04
04
04
04
04
04
0F
ENDCHAR
STARTCHAR 1F3D
ENCODING 7997
SWIDTH 589 0
DWIDTH 9 0
BBX 8 12 0 0
BITMAP
10
10
DF
02
02
02
02
02
02
02
02
07
ENDCHAR
STARTCHAR 1F3E
ENCODING 7998
SWIDTH 589 0
DWIDTH 9 0
BBX 8 12 0 0
BITMAP
F0
00
2F
26
06
06
06
06
06
06
06
0F
ENDCHAR
STARTCHAR 1F3F
ENCODING 7999
SWIDTH 589 0
DWIDTH 9 0
BBX 8 12 0 0
BITMAP
F0
20
2F
24
04
04
04
04
04
04
04
0F
ENDCHAR
STARTCHAR 1F40
ENCODING 8000
SWIDTH 392 0
DWIDTH 6 0
BBX 5 10 0 0
BITMAP
18
00
00
00
30
68
48
48
98
70
ENDCHAR
STARTCHAR 1F41
ENCODING 8001
SWIDTH 392 0
DWIDTH 6 0
BBX 5 10 0 0
BITMAP
18
00
00
00
30
68
48
48
98
70
ENDCHAR
STARTCHAR 1F42
ENCODING 8002
SWIDTH 392 0
DWIDTH 6 0
BBX 5 12 0 0
BITMAP
08
28
38
00
00
00
30
68
48
48
98
70
ENDCHAR
STARTCHAR 1F43
ENCODING 8003
SWIDTH 392 0
DWIDTH 6 0
BBX 5 12 0 0
BITMAP
08
08
28
20
00
00
30
68
48
48
98
70
ENDCHAR
STARTCHAR 1F44
ENCODING 8004
SWIDTH 458 0
DWIDTH 7 0
BBX 6 12 0 0
BITMAP
04
04
14
00
00
00
30
68
48
48
98
70
ENDCHAR
STARTCHAR 1F45
ENCODING 8005
SWIDTH 458 0
DWIDTH 7 0
BBX 6 12 0 0
BITMAP
04
04
38
08
00
00
30
68
48
48
98
70
ENDCHAR
STARTCHAR 1F48
ENCODING 8008
SWIDTH 720 0
DWIDTH 11 0
BBX 10 11 0 -1
BITMAP
9E00
A180
4080
40C0
C0C0
C0C0
40C0
4080
2080
1300
0C00
ENDCHAR
STARTCHAR 1F49
ENCODING 8009
SWIDTH 720 0
DWIDTH 11 0
BBX 10 12 0 -1
BITMAP
8000
9F00
A080
60C0
4040
4040
4040
4040
60C0
2080
1900
0600
ENDCHAR
STARTCHAR 1F4A
ENCODING 8010
SWIDTH 916 0
DWIDTH 14 0
BBX 13 13 0 -1
BITMAP
4000
4000
A7C0
A820
0810
1810
1818
1818
1810
0810
0C20
0640
0180
ENDCHAR
STARTCHAR 1F4B
ENCODING 8011
SWIDTH 916 0
DWIDTH 14 0
BBX 13 13 0 -1
BITMAP
4000
C000
A7C0
A820
0810
1810
1818
1818
1810
0810
0C20
0640
0180
ENDCHAR
STARTCHAR 1F4C
ENCODING 8012
SWIDTH 850 0
DWIDTH 13 0
BBX 12 13 0 -1
BITMAP
2000
2000
A780
9840
1020
3020
3030
3030
3020
1020
1840
0C80
0300
ENDCHAR
STARTCHAR 1F4D
ENCODING 8013
SWIDTH 850 0
DWIDTH 13 0
BBX 12 13 0 -1
BITMAP
2000
A000
A780
8860
1020
1030
3030
3030
1030
1020
1820
04C0
0300
ENDCHAR
STARTCHAR 1F50
ENCODING 8016
SWIDTH 458 0
DWIDTH 7 0
BBX 6 11 0 0
BITMAP
10
10
10
00
00
C4
44
44
48
58
70
ENDCHAR
STARTCHAR 1F51
ENCODING 8017
SWIDTH 458 0
DWIDTH 7 0
BBX 6 11 0 0
BITMAP
10
10
10
00
00
C4
44
44
48
58
70
ENDCHAR
STARTCHAR 1F52
ENCODING 8018
SWIDTH 458 0
DWIDTH 7 0
BBX 6 11 0 0
BITMAP
08
28
28
00
00
C4
44
44
48
58
70
ENDCHAR
STARTCHAR 1F53
ENCODING 8019
SWIDTH 458 0
DWIDTH 7 0
BBX 6 12 0 0
BITMAP
10
30
28
28
00
00
C4
44
44
48
58
70
ENDCHAR
STARTCHAR 1F54
ENCODING 8020
SWIDTH 458 0
DWIDTH 7 0
BBX 6 11 0 0
BITMAP
28
28
28
00
00
C4
44
44
48
58
70
ENDCHAR
STARTCHAR 1F55
ENCODING 8021
SWIDTH 458 0
DWIDTH 7 0
BBX 6 12 0 0
BITMAP
04
08
28
28
00
00
C4
44
44
48
58
70
ENDCHAR
STARTCHAR 1F56
ENCODING 8022
SWIDTH 458 0
DWIDTH 7 0
BBX 6 12 0 0
BITMAP
1C
00
18
00
00
00
C4
44
44
48
58
70
ENDCHAR
STARTCHAR 1F57
ENCODING 8023
SWIDTH 458 0
DWIDTH 7 0
BBX 6 12 0 0
BITMAP
38
10
10
10
00
00
C4
44
44
48
58
70
ENDCHAR
STARTCHAR 1F59
ENCODING 8025
SWIDTH 720 0
DWIDTH 11 0
BBX 10 11 0 0
BITMAP
8000
B9C0
8600
0600
0600
0600
0600
0600
0600
0600
0F00
ENDCHAR
STARTCHAR 1F5B
ENCODING 8027
SWIDTH 916 0
DWIDTH 14 0
BBX 13 11 0 0
BITMAP
C000
AE70
A188
0080
0080
0080
0080
0080
0080
0080
03C0
ENDCHAR
STARTCHAR 1F5D
ENCODING 8029
SWIDTH 785 0
DWIDTH 12 0
BBX 11 12 0 0
BITMAP
2000
A000
AE60
9280
0100
0100
0100
0100
0100
0100
0100
03C0
ENDCHAR
STARTCHAR 1F5F
ENCODING 8031
SWIDTH 785 0
DWIDTH 12 0
BBX 12 12 -1 0
BITMAP
F000
2000
6E70
0180
0180
0180
0180
0180
0180
0180
0180
03C0
ENDCHAR
STARTCHAR 1F60
ENCODING 8032
SWIDTH 589 0
DWIDTH 9 0
BBX 8 11 0 0
BITMAP
04
04
04
00
00
31
61
4D
89
9B
7E
ENDCHAR
STARTCHAR 1F61
ENCODING 8033
SWIDTH 589 0
DWIDTH 9 0
BBX 8 11 0 0
BITMAP
04
04
04
00
00
31
61
4D
89
9B
7E
ENDCHAR
STARTCHAR 1F62
ENCODING 8034
SWIDTH 589 0
DWIDTH 9 0
BBX 8 12 0 0
BITMAP
02
02
0E
00
01
00
31
61
4D
89
9B
7E
ENDCHAR
STARTCHAR 1F63
ENCODING 8035
SWIDTH 589 0
DWIDTH 9 0
BBX 8 11 0 0
BITMAP
02
0A
08
00
00
31
61
4D
89
9B
7E
ENDCHAR
STARTCHAR 1F64
ENCODING 8036
SWIDTH 589 0
DWIDTH 9 0
BBX 8 12 0 0
BITMAP
01
01
0E
02
00
00
31
61
4D
89
9B
7E
ENDCHAR
STARTCHAR 1F65
ENCODING 8037
SWIDTH 589 0
DWIDTH 9 0
BBX 8 12 0 0
BITMAP
01
01
0A
02
00
00
31
61
4D
89
9B
7E
ENDCHAR
STARTCHAR 1F66
ENCODING 8038
SWIDTH 589 0
DWIDTH 9 0
BBX 8 12 0 0
BITMAP
06
04
04
00
00
00
31
61
4D
89
9B
7E
ENDCHAR
STARTCHAR 1F67
ENCODING 8039
SWIDTH 589 0
DWIDTH 9 0
BBX 8 12 0 0
BITMAP
0F
00
04
04
00
00
31
61
4D
89
9B
7E
ENDCHAR
STARTCHAR 1F68
ENCODING 8040
SWIDTH 785 0
DWIDTH 12 0
BBX 11 11 0 -1
BITMAP
9F00
A080
60C0
4040
4040
4040
6040
A080
90A0
EB60
1180
ENDCHAR
STARTCHAR 1F69
ENCODING 8041
SWIDTH 850 0
DWIDTH 13 0
BBX 12 12 0 -1
BITMAP
8000
8F00
90C0
2040
6060
6060
6060
2040
2050
9090
E970
1080
ENDCHAR
STARTCHAR 1F6A
ENCODING 8042
SWIDTH 981 0
DWIDTH 15 0
BBX 14 13 0 -1
BITMAP
2000
A000
A3E0
8410
0818
0808
0808
0808
0818
0414
1424
1A5C
0420
ENDCHAR
STARTCHAR 1F6B
ENCODING 8043
SWIDTH 981 0
DWIDTH 15 0
BBX 14 12 0 -1
BITMAP
A000
A3C0
A430
0810
1818
1818
1818
0810
0814
2424
1A5C
0420
ENDCHAR
STARTCHAR 1F6C
ENCODING 8044
SWIDTH 916 0
DWIDTH 14 0
BBX 13 12 0 -1
BITMAP
A000
A7C0
A820
1830
1010
1010
1010
1810
2820
2448
3A98
0460
ENDCHAR
STARTCHAR 1F6D
ENCODING 8045
SWIDTH 916 0
DWIDTH 14 0
BBX 13 12 0 -1
BITMAP
2000
A7C0
A820
1830
1010
1010
1010
1810
2820
2448
3298
0C60
ENDCHAR
STARTCHAR 1F6E
ENCODING 8046
SWIDTH 916 0
DWIDTH 14 0
BBX 13 13 0 -1
BITMAP
F000
0000
27C0
2820
1830
1010
1010
1010
1810
2820
2448
3298
0C60
ENDCHAR
STARTCHAR 1F6F
ENCODING 8047
SWIDTH 916 0
DWIDTH 14 0
BBX 13 13 0 -1
BITMAP
E000
4000
4780
4860
1020
1030
3030
3030
1020
1028
4848
34B8
0840
ENDCHAR
STARTCHAR 1F70
ENCODING 8048
SWIDTH 589 0
DWIDTH 9 0
BBX 8 12 0 0
BITMAP
10
10
10
00
00
00
3A
66
44
88
98
77
ENDCHAR
STARTCHAR 1F71
ENCODING 8049
SWIDTH 589 0
DWIDTH 9 0
BBX 8 11 0 0
BITMAP
08
08
00
00
00
3A
66
44
88
98
77
ENDCHAR
STARTCHAR 1F72
ENCODING 8050
SWIDTH 327 0
DWIDTH 5 0
BBX 4 11 0 0
BITMAP
20
20
00
00
00
70
80
B0
40
90
60
ENDCHAR
STARTCHAR 1F73
ENCODING 8051
SWIDTH 327 0
DWIDTH 5 0
BBX 4 12 0 0
BITMAP
10
10
20
20
00
00
70
80
B0
40
90
60
ENDCHAR
STARTCHAR 1F74
ENCODING 8052
SWIDTH 392 0
DWIDTH 6 0
BBX 5 12 0 -1
BITMAP
20
20
20
00
80
98
A8
48
C8
90
90
10
ENDCHAR
STARTCHAR 1F75
ENCODING 8053
SWIDTH 392 0
DWIDTH 6 0
BBX 5 13 0 -1
BITMAP
10
10
10
00
00
80
98
A8
48
C8
90
90
10
ENDCHAR
STARTCHAR 1F76
ENCODING 8054
SWIDTH 261 0
DWIDTH 4 0
BBX 3 12 0 0
BITMAP
40
40
40
20
00
00
20
40
40
80
C0
C0
ENDCHAR
STARTCHAR 1F77
ENCODING 8055
SWIDTH 327 0
DWIDTH 5 0
BBX 4 12 0 0
BITMAP
10
20
20
20
00
00
20
40
40
80
C0
C0
ENDCHAR
STARTCHAR 1F78
ENCODING 8056
SWIDTH 392 0
DWIDTH 6 0
BBX 5 11 0 0
BITMAP
10
10
10
00
00
30
68
48
48
98
70
ENDCHAR
STARTCHAR 1F79
ENCODING 8057
SWIDTH 392 0
DWIDTH 6 0
BBX 5 11 0 0
BITMAP
10
10
10
00
00
30
68
48
48
98
70
ENDCHAR
STARTCHAR 1F7A
ENCODING 8058
SWIDTH 458 0
DWIDTH 7 0
BBX 6 11 0 0
BITMAP
20
10
10
00
00
C4
44
44
48
58
70
ENDCHAR
STARTCHAR 1F7B
ENCODING 8059
SWIDTH 458 0
DWIDTH 7 0
BBX 6 12 0 0
BITMAP
08
10
10
10
00
00
C4
44
44
48
58
70
ENDCHAR
STARTCHAR 1F7C
ENCODING 8060
SWIDTH 589 0
DWIDTH 9 0
BBX 8 12 0 0
BITMAP
08
08
04
04
00
00
31
61
4D
89
9B
7E
ENDCHAR
STARTCHAR 1F7D
ENCODING 8061
SWIDTH 589 0
DWIDTH 9 0
BBX 8 12 0 0
BITMAP
02
02
04
04
00
00
31
61
4D
89
9B
7E
ENDCHAR
STARTCHAR 1F80
ENCODING 8064
SWIDTH 589 0
DWIDTH 9 0
BBX 8 14 0 -4
BITMAP
08
08
00
00
3A
66
44
88
98
77
00
20
40
20
ENDCHAR
STARTCHAR 1F81
ENCODING 8065
SWIDTH 589 0
DWIDTH 9 0
BBX 8 14 0 -4
BITMAP
10
00
00
00
3A
66
44
88
98
77
00
20
40
20
ENDCHAR
STARTCHAR 1F82
ENCODING 8066
SWIDTH 589 0
DWIDTH 9 0
BBX 8 16 0 -4
BITMAP
04
14
14
10
00
00
3A
66
44
88
98
77
00
20
40
20
ENDCHAR
STARTCHAR 1F83
ENCODING 8067
SWIDTH 589 0
DWIDTH 9 0
BBX 8 16 0 -4
BITMAP
04
04
14
10
00
00
3A
66
44
88
98
77
00
20
40
20
ENDCHAR
STARTCHAR 1F84
ENCODING 8068
SWIDTH 589 0
DWIDTH 9 0
BBX 8 16 0 -4
BITMAP
02
02
1C
04
00
00
3A
66
44
88
98
77
00
20
40
20
ENDCHAR
STARTCHAR 1F85
ENCODING 8069
SWIDTH 589 0
DWIDTH 9 0
BBX 8 15 0 -4
BITMAP
04
14
14
00
00
3A
66
44
88
98
77
00
20
40
20
ENDCHAR
STARTCHAR 1F86
ENCODING 8070
SWIDTH 589 0
DWIDTH 9 0
BBX 8 16 0 -4
BITMAP
3C
00
08
08
00
00
3A
66
44
88
98
77
00
20
40
20
ENDCHAR
STARTCHAR 1F87
ENCODING 8071
SWIDTH 589 0
DWIDTH 9 0
BBX 8 16 0 -4
BITMAP
3C
08
08
08
00
00
3A
66
44
88
98
77
00
20
40
20
ENDCHAR
STARTCHAR 1F88
ENCODING 8072
SWIDTH 850 0
DWIDTH 13 0
BBX 12 11 0 0
BITMAP
4000
6C00
0C00
1600
1200
1200
2300
3D00
2110
4190
E1D0
ENDCHAR
STARTCHAR 1F89
ENCODING 8073
SWIDTH 850 0
DWIDTH 13 0
BBX 12 10 0 0
BITMAP
4C00
4C00
1600
1200
1200
2300
3D00
2110
41A0
E1D0
ENDCHAR
STARTCHAR 1F8A
ENCODING 8074
SWIDTH 850 0
DWIDTH 13 0
BBX 12 12 0 0
BITMAP
4000
4000
CC00
2C00
1400
1200
1200
2200
3F00
4110
4120
E1D0
ENDCHAR
STARTCHAR 1F8B
ENCODING 8075
SWIDTH 916 0
DWIDTH 14 0
BBX 13 12 0 0
BITMAP
2000
6000
E600
1600
0A00
0900
0900
1100
1F80
2088
2090
70E8
ENDCHAR
STARTCHAR 1F8C
ENCODING 8076
SWIDTH 850 0
DWIDTH 13 0
BBX 12 12 0 0
BITMAP
2000
2000
AC00
8C00
1400
1200
1200
2200
3F00
4110
4120
E1D0
ENDCHAR
STARTCHAR 1F8D
ENCODING 8077
SWIDTH 916 0
DWIDTH 14 0
BBX 13 12 0 0
BITMAP
1000
5000
D600
0600
0A00
0900
0900
1100
1F80
2088
2090
70E8
ENDCHAR
STARTCHAR 1F8E
ENCODING 8078
SWIDTH 916 0
DWIDTH 14 0
BBX 13 12 0 0
BITMAP
F000
0000
2400
2A00
0A00
0A00
1100
1100
2F00
2088
2090
71F0
ENDCHAR
STARTCHAR 1F8F
ENCODING 8079
SWIDTH 850 0
DWIDTH 13 0
BBX 12 12 0 0
BITMAP
E000
4000
4800
5400
1400
1400
2200
2200
5E00
4110
4120
E3E0
ENDCHAR
STARTCHAR 1F90
ENCODING 8080
SWIDTH 392 0
DWIDTH 6 0
BBX 5 15 0 -4
BITMAP
20
20
20
00
80
98
A8
48
C8
90
90
10
40
80
40
ENDCHAR
STARTCHAR 1F91
ENCODING 8081
SWIDTH 392 0
DWIDTH 6 0
BBX 5 14 0 -4
BITMAP
20
20
00
80
98
A8
48
C8
90
90
10
40
80
40
ENDCHAR
STARTCHAR 1F92
ENCODING 8082
SWIDTH 392 0
DWIDTH 6 0
BBX 5 16 0 -4
BITMAP
10
10
70
08
00
80
98
A8
48
C8
90
90
10
40
80
40
ENDCHAR
STARTCHAR 1F93
ENCODING 8083
SWIDTH 392 0
DWIDTH 6 0
BBX 5 16 0 -4
BITMAP
10
10
50
00
08
80
98
A8
48
C8
90
90
10
40
80
40
ENDCHAR
STARTCHAR 1F94
ENCODING 8084
SWIDTH 392 0
DWIDTH 6 0
BBX 5 15 0 -4
BITMAP
08
28
20
00
80
98
A8
48
C8
90
90
10
40
80
40
ENDCHAR
STARTCHAR 1F95
ENCODING 8085
SWIDTH 392 0
DWIDTH 6 0
BBX 5 16 0 -4
BITMAP
08
28
28
20
00
80
98
A8
48
C8
90
90
10
40
80
40
ENDCHAR
STARTCHAR 1F96
ENCODING 8086
SWIDTH 392 0
DWIDTH 6 0
BBX 5 16 0 -4
BITMAP
78
00
10
10
00
80
98
A8
48
C8
90
90
10
40
80
40
ENDCHAR
STARTCHAR 1F97
ENCODING 8087
SWIDTH 392 0
DWIDTH 6 0
BBX 5 16 0 -4
BITMAP
78
10
10
10
00
80
98
A8
48
C8
90
90
10
40
80
40
ENDCHAR
STARTCHAR 1F98
ENCODING 8088
SWIDTH 1047 0
DWIDTH 16 0
BBX 15 10 0 0
BITMAP
BC78
9020
1020
1020
1020
1FE0
1020
1022
1024
3C7C
ENDCHAR
STARTCHAR 1F99
ENCODING 8089
SWIDTH 1047 0
DWIDTH 16 0
BBX 15 10 0 0
BITMAP
BC78
9820
1820
1820
1820
1FE0
1820
1822
1824
3C7C
ENDCHAR
STARTCHAR 1F9A
ENCODING 8090
SWIDTH 1112 0
DWIDTH 17 0
BBX 16 11 0 0
BITMAP
4000
AF1E
A408
0408
0408
0408
07F8
0408
0408
0409
0F1F
ENDCHAR
STARTCHAR 1F9B
ENCODING 8091
SWIDTH 1112 0
DWIDTH 17 0
BBX 16 12 0 0
BITMAP
4000
C000
AF3E
A408
0408
0408
0408
07F8
0408
0408
0409
0F1D
ENDCHAR
STARTCHAR 1F9C
ENCODING 8092
SWIDTH 1178 0
DWIDTH 18 0
BBX 17 11 0 0
BITMAP
A00000
AF1E00
A40800
040800
040800
060800
05F800
040800
040880
040900
0F1F00
ENDCHAR
STARTCHAR 1F9D
ENCODING 8093
SWIDTH 1112 0
DWIDTH 17 0
BBX 16 12 0 0
BITMAP
2000
A000
AF3E
8408
0408
0408
0408
07F8
0408
0408
0409
0F1D
ENDCHAR
STARTCHAR 1F9E
ENCODING 8094
SWIDTH 1178 0
DWIDTH 18 0
BBX 17 12 0 0
BITMAP
F00000
000000
2F1E00
220C00
020C00
020C00
020C00
03FC00
020C00
020C80
020C80
0F1E80
ENDCHAR
STARTCHAR 1F9F
ENCODING 8095
SWIDTH 1112 0
DWIDTH 17 0
BBX 16 12 0 0
BITMAP
E000
4000
5E3C
4418
0418
0418
0418
07F8
0418
0419
041A
1E3D
ENDCHAR
STARTCHAR 1FA0
ENCODING 8096
SWIDTH 589 0
DWIDTH 9 0
BBX 8 15 0 -4
BITMAP
04
04
04
00
00
31
61
4D
89
9B
7E
00
00
20
20
ENDCHAR
STARTCHAR 1FA1
ENCODING 8097
SWIDTH 589 0
DWIDTH 9 0
BBX 8 15 0 -4
BITMAP
04
04
04
00
00
31
61
4D
89
9B
7E
00
00
20
20
ENDCHAR
STARTCHAR 1FA2
ENCODING 8098
SWIDTH 589 0
DWIDTH 9 0
BBX 8 16 0 -4
BITMAP
02
02
0E
00
01
00
31
61
4D
89
9B
7E
00
00
20
20
ENDCHAR
STARTCHAR 1FA3
ENCODING 8099
SWIDTH 589 0
DWIDTH 9 0
BBX 8 15 0 -4
BITMAP
02
0A
08
00
00
31
61
4D
89
9B
7E
00
00
20
20
ENDCHAR
STARTCHAR 1FA4
ENCODING 8100
SWIDTH 589 0
DWIDTH 9 0
BBX 8 16 0 -4
BITMAP
01
01
0E
02
00
00
31
61
4D
89
9B
7E
00
00
20
20
ENDCHAR
STARTCHAR 1FA5
ENCODING 8101
SWIDTH 589 0
DWIDTH 9 0
BBX 8 16 0 -4
BITMAP
01
01
0A
02
00
00
31
61
4D
89
9B
7E
00
00
20
20
ENDCHAR
STARTCHAR 1FA6
ENCODING 8102
SWIDTH 589 0
DWIDTH 9 0
BBX 8 16 0 -4
BITMAP
06
04
04
00
00
00
31
61
4D
89
9B
7E
00
00
20
20
ENDCHAR
STARTCHAR 1FA7
ENCODING 8103
SWIDTH 589 0
DWIDTH 9 0
BBX 8 16 0 -4
BITMAP
0F
00
04
04
00
00
31
61
4D
89
9B
7E
00
00
20
20
ENDCHAR
STARTCHAR 1FA8
ENCODING 8104
SWIDTH 916 0
DWIDTH 14 0
BBX 13 11 0 -1
BITMAP
9F00
A080
60C0
4040
4040
4040
6040
A080
90A8
EB68
1180
ENDCHAR
STARTCHAR 1FA9
ENCODING 8105
SWIDTH 981 0
DWIDTH 15 0
BBX 14 12 0 -1
BITMAP
8000
8F00
90C0
2040
6060
6060
6060
2040
2054
9098
E978
1080
ENDCHAR
STARTCHAR 1FAA
ENCODING 8106
SWIDTH 1112 0
DWIDTH 17 0
BBX 16 13 0 -1
BITMAP
2000
A000
A3E0
8410
0818
0808
0808
0808
0818
0415
1425
1A5D
0420
ENDCHAR
STARTCHAR 1FAB
ENCODING 8107
SWIDTH 1112 0
DWIDTH 17 0
BBX 16 12 0 -1
BITMAP
A000
A3C0
A430
0810
1818
1818
1818
0810
0815
2426
1A5E
0420
ENDCHAR
STARTCHAR 1FAC
ENCODING 8108
SWIDTH 1047 0
DWIDTH 16 0
BBX 15 12 0 -1
BITMAP
A000
A7C0
A820
1830
1010
1010
1010
1810
2820
244A
3A9A
0460
ENDCHAR
STARTCHAR 1FAD
ENCODING 8109
SWIDTH 1047 0
DWIDTH 16 0
BBX 15 12 0 -1
BITMAP
2000
A7C0
A820
1830
1010
1010
1010
1810
2822
244A
329A
0C60
ENDCHAR
STARTCHAR 1FAE
ENCODING 8110
SWIDTH 1047 0
DWIDTH 16 0
BBX 15 13 0 -1
BITMAP
F000
0000
27C0
2820
1830
1010
1010
1010
1810
2822
244A
329A
0C60
ENDCHAR
STARTCHAR 1FAF
ENCODING 8111
SWIDTH 1047 0
DWIDTH 16 0
BBX 15 13 0 -1
BITMAP
E000
4000
4780
4860
1020
1030
3030
3030
1020
102A
484C
34BC
0840
ENDCHAR
STARTCHAR 1FB0
ENCODING 8112
SWIDTH 589 0
DWIDTH 9 0
BBX 8 9 0 0
BITMAP
24
18
00
3A
66
44
88
98
77
ENDCHAR
STARTCHAR 1FB1
ENCODING 8113
SWIDTH 589 0
DWIDTH 9 0
BBX 8 9 0 0
BITMAP
1C
00
00
3A
66
44
88
98
77
ENDCHAR
STARTCHAR 1FB2
ENCODING 8114
SWIDTH 589 0
DWIDTH 9 0
BBX 8 16 0 -4
BITMAP
10
10
10
00
00
00
3A
66
44
88
98
77
00
10
20
10
ENDCHAR
STARTCHAR 1FB3
ENCODING 8115
SWIDTH 589 0
DWIDTH 9 0
BBX 8 10 0 -4
BITMAP
3A
66
44
88
98
77
00
10
20
10
ENDCHAR
STARTCHAR 1FB4
ENCODING 8116
SWIDTH 589 0
DWIDTH 9 0
BBX 8 16 0 -4
BITMAP
08
08
08
00
00
00
3A
66
44
88
98
77
00
10
20
10
ENDCHAR
STARTCHAR 1FB6
ENCODING 8118
SWIDTH 589 0
DWIDTH 9 0
BBX 8 9 0 0
BITMAP
1A
2C
00
3A
66
44
88
98
77
ENDCHAR
STARTCHAR 1FB7
ENCODING 8119
SWIDTH 589 0
DWIDTH 9 0
BBX 8 13 0 -4
BITMAP
1A
2C
00
3A
66
44
88
98
77
00
10
20
10
ENDCHAR
STARTCHAR 1FB8
ENCODING 8120
SWIDTH 720 0
DWIDTH 11 0
BBX 10 13 0 0
BITMAP
1200
0E00
0000
0C00
0C00
1600
1200
1200
2300
3D00
2100
4180
E1C0
ENDCHAR
STARTCHAR 1FB9
ENCODING 8121
SWIDTH 720 0
DWIDTH 11 0
BBX 10 12 0 0
BITMAP
0E00
0000
0C00
0C00
1600
1200
1200
2300
3D00
2100
4180
E1C0
ENDCHAR
STARTCHAR 1FBA
ENCODING 8122
SWIDTH 720 0
DWIDTH 11 0
BBX 10 12 0 0
BITMAP
4000
4000
4C00
0C00
1600
1200
1200
2300
3D00
2100
4180
E1C0
ENDCHAR
STARTCHAR 1FBB
ENCODING 8123
SWIDTH 6610 0
DWIDTH 101 0
BBX 10 12 0 0
BITMAP
2000
2000
4C00
4C00
1600
1200
1200
2300
3D00
2100
4180
E1C0
ENDCHAR
STARTCHAR 1FBC
ENCODING 8124
SWIDTH 850 0
DWIDTH 13 0
BBX 12 10 0 0
BITMAP
0C00
0C00
1600
1200
1200
2300
3D00
2110
41A0
E1D0
ENDCHAR
STARTCHAR 1FBE
ENCODING 8126
SWIDTH 261 0
DWIDTH 4 0
BBX 1 2 1 0
BITMAP
80
80
ENDCHAR
STARTCHAR 1FBF
ENCODING 8127
SWIDTH 261 0
DWIDTH 4 0
BBX 1 1 1 9
BITMAP
80
ENDCHAR
STARTCHAR 1FC0
ENCODING 8128
SWIDTH 392 0
DWIDTH 6 0
BBX 5 2 0 7
BITMAP
68
B0
ENDCHAR
STARTCHAR 1FC1
ENCODING 8129
SWIDTH 392 0
DWIDTH 6 0
BBX 5 4 0 8
BITMAP
68
B0
00
48
ENDCHAR
STARTCHAR 1FC2
ENCODING 8130
SWIDTH 392 0
DWIDTH 6 0
BBX 5 15 0 -4
BITMAP
20
20
20
00
80
98
A8
48
C8
90
90
10
40
40
40
ENDCHAR
STARTCHAR 1FC3
ENCODING 8131
SWIDTH 392 0
DWIDTH 6 0
BBX 5 11 0 -4
BITMAP
80
98
A8
48
C8
90
90
10
40
40
40
ENDCHAR
STARTCHAR 1FC4
ENCODING 8132
SWIDTH 392 0
DWIDTH 6 0
BBX 5 16 0 -4
BITMAP
10
10
20
20
00
80
98
A8
48
C8
90
90
10
40
40
40
ENDCHAR
STARTCHAR 1FC6
ENCODING 8134
SWIDTH 392 0
DWIDTH 6 0
BBX 5 10 0 -1
BITMAP
68
10
80
98
A8
48
C8
90
90
10
ENDCHAR
STARTCHAR 1FC7
ENCODING 8135
SWIDTH 392 0
DWIDTH 6 0
BBX 5 13 0 -4
BITMAP
68
10
80
98
A8
48
C8
90
90
10
40
40
40
ENDCHAR
STARTCHAR 1FC8
ENCODING 8136
SWIDTH 720 0
DWIDTH 11 0
BBX 10 12 0 -1
BITMAP
8000
BF80
1880
1800
1800
1900
1F00
1900
1840
1840
3CC0
0300
ENDCHAR
STARTCHAR 1FC9
ENCODING 8137
SWIDTH 720 0
DWIDTH 11 0
BBX 10 12 0 -1
BITMAP
8000
BFC0
8840
0840
0800
0900
0F00
0900
0800
0840
3CC0
0300
ENDCHAR
STARTCHAR 1FCA
ENCODING 8138
SWIDTH 916 0
DWIDTH 14 0
BBX 13 12 0 0
BITMAP
8000
8000
BC78
1830
1830
1830
1830
1FF0
1830
1830
1830
3C78
ENDCHAR
STARTCHAR 1FCB
ENCODING 8139
SWIDTH 916 0
DWIDTH 14 0
BBX 13 12 0 0
BITMAP
8000
8000
BC78
1020
1020
1020
1820
17E0
1020
1020
1020
3C78
ENDCHAR
STARTCHAR 1FCC
ENCODING 8140
SWIDTH 850 0
DWIDTH 13 0
BBX 12 10 0 0
BITMAP
F3C0
4080
4080
4080
4080
7F80
4080
4080
4090
E1D0
ENDCHAR
STARTCHAR 1FCD
ENCODING 8141
SWIDTH 261 0
DWIDTH 4 0
BBX 3 4 0 8
BITMAP
40
40
C0
20
ENDCHAR
STARTCHAR 1FCE
ENCODING 8142
SWIDTH 261 0
DWIDTH 4 0
BBX 3 3 0 9
BITMAP
20
20
C0
ENDCHAR
STARTCHAR 1FCF
ENCODING 8143
SWIDTH 327 0
DWIDTH 5 0
BBX 4 3 0 9
BITMAP
F0
00
20
ENDCHAR
STARTCHAR 1FD0
ENCODING 8144
SWIDTH 327 0
DWIDTH 5 0
BBX 4 10 0 0
BITMAP
80
90
60
00
20
40
40
80
C0
C0
ENDCHAR
STARTCHAR 1FD1
ENCODING 8145
SWIDTH 327 0
DWIDTH 5 0
BBX 4 9 0 0
BITMAP
70
00
00
20
40
40
80
C0
C0
ENDCHAR
STARTCHAR 1FD2
ENCODING 8146
SWIDTH 392 0
DWIDTH 6 0
BBX 5 12 0 0
BITMAP
40
40
20
F8
00
00
20
40
40
80
C0
C0
ENDCHAR
STARTCHAR 1FD3
ENCODING 8147
SWIDTH 392 0
DWIDTH 6 0
BBX 5 12 0 0
BITMAP
10
10
20
F8
00
00
20
40
40
80
C0
C0
ENDCHAR
STARTCHAR 1FD6
ENCODING 8150
SWIDTH 392 0
DWIDTH 6 0
BBX 5 9 0 0
BITMAP
68
10
00
20
40
40
80
C0
C0
ENDCHAR
STARTCHAR 1FD7
ENCODING 8151
SWIDTH 392 0
DWIDTH 6 0
BBX 5 12 0 0
BITMAP
08
F0
00
D8
00
00
20
40
40
80
C0
C0
ENDCHAR
STARTCHAR 1FD8
ENCODING 8152
SWIDTH 327 0
DWIDTH 5 0
BBX 4 13 0 0
BITMAP
20
E0
00
F0
40
40
40
40
40
40
40
40
E0
ENDCHAR
STARTCHAR 1FD9
ENCODING 8153
SWIDTH 327 0
DWIDTH 5 0
BBX 4 12 0 0
BITMAP
E0
00
F0
40
40
40
40
40
40
40
40
E0
ENDCHAR
STARTCHAR 1FDA
ENCODING 8154
SWIDTH 523 0
DWIDTH 8 0
BBX 7 12 0 0
BITMAP
80
80
5E
48
08
08
08
08
08
08
08
1E
ENDCHAR
STARTCHAR 1FDB
ENCODING 8155
SWIDTH 458 0
DWIDTH 7 0
BBX 6 12 0 0
BITMAP
80
80
BC
10
10
10
10
10
10
10
10
3C
ENDCHAR
STARTCHAR 1FDD
ENCODING 8157
SWIDTH 327 0
DWIDTH 5 0
BBX 4 4 0 8
BITMAP
20
20
E0
10
ENDCHAR
STARTCHAR 1FDE
ENCODING 8158
SWIDTH 327 0
DWIDTH 5 0
BBX 4 4 0 8
BITMAP
10
10
E0
20
ENDCHAR
STARTCHAR 1FDF
ENCODING 8159
SWIDTH 327 0
DWIDTH 5 0
BBX 4 3 0 9
BITMAP
F0
00
60
ENDCHAR
STARTCHAR 1FE0
ENCODING 8160
SWIDTH 458 0
DWIDTH 7 0
BBX 6 10 0 0
BITMAP
04
28
10
00
C4
44
44
48
58
70
ENDCHAR
STARTCHAR 1FE1
ENCODING 8161
SWIDTH 458 0
DWIDTH 7 0
BBX 6 9 0 0
BITMAP
38
00
00
C4
44
44
48
58
70
ENDCHAR
STARTCHAR 1FE2
ENCODING 8162
SWIDTH 458 0
DWIDTH 7 0
BBX 6 12 0 0
BITMAP
20
20
20
7C
00
00
C4
44
44
48
58
70
ENDCHAR
STARTCHAR 1FE3
ENCODING 8163
SWIDTH 458 0
DWIDTH 7 0
BBX 6 11 0 0
BITMAP
10
10
6C
00
00
C4
44
44
48
58
70
ENDCHAR
STARTCHAR 1FE4
ENCODING 8164
SWIDTH 392 0
DWIDTH 6 0
BBX 5 15 0 -5
BITMAP
18
00
00
00
38
68
48
B0
E0
80
80
60
10
70
60
ENDCHAR
STARTCHAR 1FE5
ENCODING 8165
SWIDTH 392 0
DWIDTH 6 0
BBX 5 15 0 -5
BITMAP
10
00
00
00
38
68
48
B0
E0
80
80
60
10
70
60
ENDCHAR
STARTCHAR 1FE6
ENCODING 8166
SWIDTH 458 0
DWIDTH 7 0
BBX 6 9 0 0
BITMAP
34
08
00
C4
44
44
48
58
70
ENDCHAR
STARTCHAR 1FE7
ENCODING 8167
SWIDTH 458 0
DWIDTH 7 0
BBX 6 12 0 0
BITMAP
34
58
00
6C
00
00
C4
44
44
48
58
70
ENDCHAR
STARTCHAR 1FE8
ENCODING 8168
SWIDTH 589 0
DWIDTH 9 0
BBX 8 13 0 0
BITMAP
02
1C
00
73
94
08
08
08
08
08
08
08
1E
ENDCHAR
STARTCHAR 1FE9
ENCODING 8169
SWIDTH 589 0
DWIDTH 9 0
BBX 8 12 0 0
BITMAP
1C
00
73
94
08
08
08
08
08
08
08
1E
ENDCHAR
STARTCHAR 1FEA
ENCODING 8170
SWIDTH 785 0
DWIDTH 12 0
BBX 11 11 0 0
BITMAP
8000
99C0
8620
0200
0200
0200
0200
0200
0200
0200
0F00
ENDCHAR
STARTCHAR 1FEB
ENCODING 8171
SWIDTH 720 0
DWIDTH 11 0
BBX 10 11 0 0
BITMAP
8000
B9C0
8600
0600
0600
0600
0600
0600
0600
0600
0F00
ENDCHAR
STARTCHAR 1FEC
ENCODING 8172
SWIDTH 654 0
DWIDTH 10 0
BBX 9 11 0 0
BITMAP
8000
BF00
9080
1080
1080
1080
1F00
1000
1000
1000
3C00
ENDCHAR
STARTCHAR 1FED
ENCODING 8173
SWIDTH 327 0
DWIDTH 5 0
BBX 4 4 0 8
BITMAP
40
40
40
90
ENDCHAR
STARTCHAR 1FEE
ENCODING 8174
SWIDTH 327 0
DWIDTH 5 0
BBX 4 4 0 8
BITMAP
20
20
20
90
ENDCHAR
STARTCHAR 1FEF
ENCODING 8175
SWIDTH 327 0
DWIDTH 5 0
BBX 2 4 1 8
BITMAP
80
80
80
40
ENDCHAR
STARTCHAR 1FF2
ENCODING 8178
SWIDTH 589 0
DWIDTH 9 0
BBX 8 16 0 -4
BITMAP
08
08
04
04
00
00
31
61
4D
89
9B
7E
00
10
20
10
ENDCHAR
STARTCHAR 1FF3
ENCODING 8179
SWIDTH 589 0
DWIDTH 9 0
BBX 8 10 0 -4
BITMAP
31
61
4D
89
9B
7E
00
10
20
10
ENDCHAR
STARTCHAR 1FF4
ENCODING 8180
SWIDTH 589 0
DWIDTH 9 0
BBX 8 16 0 -4
BITMAP
02
02
04
04
00
00
31
61
4D
89
9B
7E
00
10
20
10
ENDCHAR
STARTCHAR 1FF6
ENCODING 8182
SWIDTH 589 0
DWIDTH 9 0
BBX 8 9 0 0
BITMAP
0D
02
00
31
61
4D
89
9B
7E
ENDCHAR
STARTCHAR 1FF7
ENCODING 8183
SWIDTH 589 0
DWIDTH 9 0
BBX 8 13 0 -4
BITMAP
0D
02
00
31
61
4D
89
9B
7E
00
10
20
10
ENDCHAR
STARTCHAR 1FF8
ENCODING 8184
SWIDTH 785 0
DWIDTH 12 0
BBX 11 12 0 -1
BITMAP
8000
8F80
90C0
2040
2060
2020
6020
2060
2040
1040
0D80
0200
ENDCHAR
STARTCHAR 1FF9
ENCODING 8185
SWIDTH 720 0
DWIDTH 11 0
BBX 10 13 0 -1
BITMAP
8000
8000
9F00
2180
4080
40C0
4040
4040
40C0
6080
2080
1B00
0400
ENDCHAR
STARTCHAR 1FFA
ENCODING 8186
SWIDTH 850 0
DWIDTH 13 0
BBX 12 12 0 -1
BITMAP
8000
8F80
9040
2060
2020
2020
2020
2060
1050
5090
6970
1080
ENDCHAR
STARTCHAR 1FFB
ENCODING 8187
SWIDTH 850 0
DWIDTH 13 0
BBX 12 13 0 -1
BITMAP
4000
4000
4F80
10C0
2040
2060
6020
2060
2060
3050
9090
6970
1080
ENDCHAR
STARTCHAR 1FFC
ENCODING 8188
SWIDTH 916 0
DWIDTH 14 0
BBX 13 11 0 -1
BITMAP
0F00
10C0
2040
6060
6060
6060
2040
2050
9098
E978
1080
ENDCHAR
STARTCHAR 1FFD
ENCODING 8189
SWIDTH 261 0
DWIDTH 4 0
BBX 1 3 1 8
BITMAP
80
80
80
ENDCHAR
STARTCHAR 1FFE
ENCODING 8190
SWIDTH 327 0
DWIDTH 5 0
BBX 2 1 1 9
BITMAP
C0
ENDCHAR
STARTCHAR 2000
ENCODING 8192
SWIDTH 458 0
DWIDTH 7 0
BBX 0 0 0 0
BITMAP
ENDCHAR
STARTCHAR 2001
ENCODING 8193
SWIDTH 981 0
DWIDTH 15 0
BBX 0 0 0 0
BITMAP
ENDCHAR
STARTCHAR 2002
ENCODING 8194
SWIDTH 458 0
DWIDTH 7 0
BBX 0 0 0 0
BITMAP
ENDCHAR
STARTCHAR 2003
ENCODING 8195
SWIDTH 981 0
DWIDTH 15 0
BBX 0 0 0 0
BITMAP
ENDCHAR
STARTCHAR 2004
ENCODING 8196
SWIDTH 327 0
DWIDTH 5 0
BBX 0 0 0 0
BITMAP
ENDCHAR
STARTCHAR 2005
ENCODING 8197
SWIDTH 196 0
DWIDTH 3 0
BBX 0 0 0 0
BITMAP
ENDCHAR
STARTCHAR 2006
ENCODING 8198
SWIDTH 130 0
DWIDTH 2 0
BBX 0 0 0 0
BITMAP
ENDCHAR
STARTCHAR 2007
ENCODING 8199
SWIDTH 458 0
DWIDTH 7 0
BBX 0 0 0 0
BITMAP
ENDCHAR
STARTCHAR 2008
ENCODING 8200
SWIDTH 196 0
DWIDTH 3 0
BBX 0 0 0 0
BITMAP
ENDCHAR
STARTCHAR 2009
ENCODING 8201
SWIDTH 65 0
DWIDTH 1 0
BBX 0 0 0 0
BITMAP
ENDCHAR
STARTCHAR 200A
ENCODING 8202
SWIDTH 0 0
DWIDTH 0 0
BBX 0 0 0 0
BITMAP
ENDCHAR
STARTCHAR 200B
ENCODING 8203
SWIDTH 0 0
DWIDTH 0 0
BBX 0 0 0 0
BITMAP
ENDCHAR
STARTCHAR 200C
ENCODING 8204
SWIDTH 0 0
DWIDTH 0 0
BBX 0 0 0 0
BITMAP
ENDCHAR
STARTCHAR 200D
ENCODING 8205
SWIDTH 0 0
DWIDTH 0 0
BBX 0 0 0 0
BITMAP
ENDCHAR
STARTCHAR 2010
ENCODING 8208
SWIDTH 196 0
DWIDTH 3 0
BBX 2 1 0 3
BITMAP
C0
ENDCHAR
STARTCHAR 2011
ENCODING 8209
SWIDTH 196 0
DWIDTH 3 0
BBX 2 1 0 3
BITMAP
C0
ENDCHAR
STARTCHAR 2012
ENCODING 8210
SWIDTH 523 0
DWIDTH 8 0
BBX 7 1 0 3
BITMAP
FE
ENDCHAR
STARTCHAR 2013
ENCODING 8211
SWIDTH 523 0
DWIDTH 8 0
BBX 7 1 0 3
BITMAP
FE
ENDCHAR
STARTCHAR 2014
ENCODING 8212
SWIDTH 1047 0
DWIDTH 16 0
BBX 15 1 0 3
BITMAP
FFFE
ENDCHAR
STARTCHAR 2015
ENCODING 8213
SWIDTH 1112 0
DWIDTH 17 0
BBX 16 1 0 3
BITMAP
FFFF
ENDCHAR
STARTCHAR 2016
ENCODING 8214
SWIDTH 392 0
DWIDTH 6 0
BBX 3 13 1 -2
BITMAP
A0
A0
A0
A0
A0
A0
A0
A0
A0
A0
A0
A0
A0
ENDCHAR
STARTCHAR 2017
ENCODING 8215
SWIDTH 589 0
DWIDTH 9 0
BBX 8 2 0 -3
BITMAP
FF
FF
ENDCHAR
STARTCHAR 2018
ENCODING 8216
SWIDTH 196 0
DWIDTH 3 0
BBX 2 4 0 7
BITMAP
40
40
80
40
ENDCHAR
STARTCHAR 2019
ENCODING 8217
SWIDTH 130 0
DWIDTH 2 0
BBX 1 3 0 8
BITMAP
80
80
80
ENDCHAR
STARTCHAR 201A
ENCODING 8218
SWIDTH 130 0
DWIDTH 2 0
BBX 1 4 0 -2
BITMAP
80
80
80
80
ENDCHAR
STARTCHAR 201B
ENCODING 8219
SWIDTH 196 0
DWIDTH 3 0
BBX 2 4 0 7
BITMAP
40
C0
80
40
ENDCHAR
STARTCHAR 201C
ENCODING 8220
SWIDTH 327 0
DWIDTH 5 0
BBX 4 4 0 7
BITMAP
50
50
A0
50
ENDCHAR
STARTCHAR 201D
ENCODING 8221
SWIDTH 327 0
DWIDTH 5 0
BBX 4 3 0 8
BITMAP
90
90
90
ENDCHAR
STARTCHAR 201E
ENCODING 8222
SWIDTH 261 0
DWIDTH 4 0
BBX 3 4 0 -2
BITMAP
A0
A0
A0
A0
ENDCHAR
STARTCHAR 201F
ENCODING 8223
SWIDTH 392 0
DWIDTH 6 0
BBX 5 4 0 7
BITMAP
48
D8
90
48
ENDCHAR
STARTCHAR 2020
ENCODING 8224
SWIDTH 523 0
DWIDTH 8 0
BBX 7 13 0 -3
BITMAP
10
10
10
FE
10
10
10
10
10
10
10
10
10
ENDCHAR
STARTCHAR 2021
ENCODING 8225
SWIDTH 523 0
DWIDTH 8 0
BBX 7 13 0 -3
BITMAP
10
10
10
FE
10
10
10
10
10
FE
10
10
10
ENDCHAR
STARTCHAR 2022
ENCODING 8226
SWIDTH 327 0
DWIDTH 5 0
BBX 4 3 0 4
BITMAP
F0
F0
F0
ENDCHAR
STARTCHAR 2023
ENCODING 8227
SWIDTH 327 0
DWIDTH 5 0
BBX 4 3 0 4
BITMAP
C0
F0
C0
ENDCHAR
STARTCHAR 2024
ENCODING 8228
SWIDTH 327 0
DWIDTH 5 0
BBX 2 1 1 0
BITMAP
C0
ENDCHAR
STARTCHAR 2025
ENCODING 8229
SWIDTH 589 0
DWIDTH 9 0
BBX 6 1 1 0
BITMAP
CC
ENDCHAR
STARTCHAR 2026
ENCODING 8230
SWIDTH 850 0
DWIDTH 13 0
BBX 10 1 1 0
BITMAP
CCC0
ENDCHAR
STARTCHAR 2027
ENCODING 8231
SWIDTH 327 0
DWIDTH 5 0
BBX 2 1 1 3
BITMAP
C0
ENDCHAR
STARTCHAR 202F
ENCODING 8239
SWIDTH 261 0
DWIDTH 4 0
BBX 0 0 0 0
BITMAP
ENDCHAR
STARTCHAR 2030
ENCODING 8240
SWIDTH 1047 0
DWIDTH 16 0
BBX 15 10 0 0
BITMAP
6100
9100
9200
9400
958C
6A52
0A52
1252
2252
218C
ENDCHAR
STARTCHAR 2031
ENCODING 8241
SWIDTH 1374 0
DWIDTH 21 0
BBX 20 10 0 0
BITMAP
610000
910000
920000
940000
958C60
6A5290
0A5290
125290
225290
218C60
ENDCHAR
STARTCHAR 2032
ENCODING 8242
SWIDTH 261 0
DWIDTH 4 0
BBX 3 4 0 7
BITMAP
20
40
40
80
ENDCHAR
STARTCHAR 2033
ENCODING 8243
SWIDTH 458 0
DWIDTH 7 0
BBX 6 4 0 7
BITMAP
24
48
48
90
ENDCHAR
STARTCHAR 2034
ENCODING 8244
SWIDTH 523 0
DWIDTH 8 0
BBX 7 4 0 7
BITMAP
2A
54
54
A8
ENDCHAR
STARTCHAR 2035
ENCODING 8245
SWIDTH 196 0
DWIDTH 3 0
BBX 2 3 0 8
BITMAP
80
80
40
ENDCHAR
STARTCHAR 2036
ENCODING 8246
SWIDTH 327 0
DWIDTH 5 0
BBX 4 3 0 8
BITMAP
A0
A0
50
ENDCHAR
STARTCHAR 2037
ENCODING 8247
SWIDTH 458 0
DWIDTH 7 0
BBX 6 3 0 8
BITMAP
A8
A8
54
ENDCHAR
STARTCHAR 2038
ENCODING 8248
SWIDTH 261 0
DWIDTH 4 0
BBX 3 3 0 -3
BITMAP
40
40
A0
ENDCHAR
STARTCHAR 2039
ENCODING 8249
SWIDTH 261 0
DWIDTH 4 0
BBX 3 5 0 1
BITMAP
20
40
C0
40
20
ENDCHAR
STARTCHAR 203A
ENCODING 8250
SWIDTH 261 0
DWIDTH 4 0
BBX 3 5 0 1
BITMAP
80
40
60
40
80
ENDCHAR
STARTCHAR 203B
ENCODING 8251
SWIDTH 523 0
DWIDTH 8 0
BBX 7 10 0 0
BITMAP
B4
74
48
30
B6
B4
30
48
74
94
ENDCHAR
STARTCHAR 203C
ENCODING 8252
SWIDTH 392 0
DWIDTH 6 0
BBX 5 10 0 0
BITMAP
D8
D8
D8
90
90
90
00
00
00
D8
ENDCHAR
STARTCHAR 203D
ENCODING 8253
SWIDTH 261 0
DWIDTH 4 0
BBX 3 10 0 0
BITMAP
C0
E0
A0
A0
C0
80
80
00
00
C0
ENDCHAR
STARTCHAR 203E
ENCODING 8254
SWIDTH 589 0
DWIDTH 9 0
BBX 8 1 0 11
BITMAP
FF
ENDCHAR
STARTCHAR 203F
ENCODING 8255
SWIDTH 327 0
DWIDTH 5 0
BBX 8 2 -4 -4
BITMAP
81
7E
ENDCHAR
STARTCHAR 2040
ENCODING 8256
SWIDTH 327 0
DWIDTH 5 0
BBX 8 2 -4 9
BITMAP
3C
C3
ENDCHAR
STARTCHAR 2041
ENCODING 8257
SWIDTH 327 0
DWIDTH 5 0
BBX 4 7 0 -3
BITMAP
10
10
20
20
20
60
90
ENDCHAR
STARTCHAR 2042
ENCODING 8258
SWIDTH 785 0
DWIDTH 12 0
BBX 11 10 0 -2
BITMAP
1A00
0C00
0A00
0000
0000
0000
0000
D1A0
60C0
50A0
ENDCHAR
STARTCHAR 2043
ENCODING 8259
SWIDTH 327 0
DWIDTH 5 0
BBX 4 2 0 3
BITMAP
F0
F0
ENDCHAR
STARTCHAR 2044
ENCODING 8260
SWIDTH 589 0
DWIDTH 9 0
BBX 8 8 0 0
BITMAP
01
02
04
08
10
20
40
80
ENDCHAR
STARTCHAR 2045
ENCODING 8261
SWIDTH 261 0
DWIDTH 4 0
BBX 3 14 0 -3
BITMAP
E0
80
80
80
80
80
E0
80
80
80
80
80
80
E0
ENDCHAR
STARTCHAR 2046
ENCODING 8262
SWIDTH 261 0
DWIDTH 4 0
BBX 3 14 0 -3
BITMAP
E0
20
20
20
20
20
E0
20
20
20
20
20
20
E0
ENDCHAR
STARTCHAR 2047
ENCODING 8263
SWIDTH 523 0
DWIDTH 8 0
BBX 7 10 0 0
BITMAP
88
44
22
22
CC
88
88
00
88
88
ENDCHAR
STARTCHAR 2048
ENCODING 8264
SWIDTH 458 0
DWIDTH 7 0
BBX 6 10 0 0
BITMAP
8C
4C
2C
28
C8
88
80
00
80
8C
ENDCHAR
STARTCHAR 2049
ENCODING 8265
SWIDTH 458 0
DWIDTH 7 0
BBX 6 10 0 0
BITMAP
D0
C8
C4
84
98
90
10
00
10
D0
ENDCHAR
STARTCHAR 204A
ENCODING 8266
SWIDTH 392 0
DWIDTH 6 0
BBX 5 10 0 -4
BITMAP
F8
08
08
08
08
08
08
08
08
38
ENDCHAR
STARTCHAR 204B
ENCODING 8267
SWIDTH 523 0
DWIDTH 8 0
BBX 7 12 0 -1
BITMAP
F8
5E
5E
5E
5E
5C
50
50
50
50
50
F8
ENDCHAR
STARTCHAR 204C
ENCODING 8268
SWIDTH 458 0
DWIDTH 7 0
BBX 6 6 0 2
BITMAP
3C
74
F4
F4
74
3C
ENDCHAR
STARTCHAR 204D
ENCODING 8269
SWIDTH 458 0
DWIDTH 7 0
BBX 6 6 0 2
BITMAP
F8
BC
BC
BC
BC
F0
ENDCHAR
STARTCHAR 204E
ENCODING 8270
SWIDTH 327 0
DWIDTH 5 0
BBX 4 3 0 1
BITMAP
D0
60
50
ENDCHAR
STARTCHAR 204F
ENCODING 8271
SWIDTH 196 0
DWIDTH 3 0
BBX 2 8 0 -2
BITMAP
C0
00
00
00
40
C0
80
80
ENDCHAR
STARTCHAR 2050
ENCODING 8272
SWIDTH 458 0
DWIDTH 7 0
BBX 6 8 0 -2
BITMAP
78
84
84
00
00
84
84
78
ENDCHAR
STARTCHAR 2051
ENCODING 8273
SWIDTH 327 0
DWIDTH 5 0
BBX 4 9 0 0
BITMAP
D0
60
50
00
00
00
D0
60
50
ENDCHAR
STARTCHAR 2052
ENCODING 8274
SWIDTH 392 0
DWIDTH 6 0
BBX 5 11 0 0
BITMAP
08
C8
10
10
10
20
20
40
40
80
98
ENDCHAR
STARTCHAR 2057
ENCODING 8279
SWIDTH 654 0
DWIDTH 10 0
BBX 9 4 0 7
BITMAP
2A80
5500
5500
AA00
ENDCHAR
STARTCHAR 2058
ENCODING 8280
SWIDTH 458 0
DWIDTH 7 0
BBX 6 6 0 0
BITMAP
30
00
CC
88
00
30
ENDCHAR
STARTCHAR 205C
ENCODING 8284
SWIDTH 523 0
DWIDTH 8 0
BBX 7 7 0 0
BITMAP
D6
D6
10
FE
10
D6
D6
ENDCHAR
STARTCHAR 2070
ENCODING 8304
SWIDTH 327 0
DWIDTH 5 0
BBX 4 7 0 3
BITMAP
60
90
90
90
90
90
60
ENDCHAR
STARTCHAR 2071
ENCODING 8305
SWIDTH 130 0
DWIDTH 2 0
BBX 1 6 0 4
BITMAP
80
00
80
80
80
80
ENDCHAR
STARTCHAR 2074
ENCODING 8308
SWIDTH 327 0
DWIDTH 5 0
BBX 4 4 0 5
BITMAP
60
40
A0
70
ENDCHAR
STARTCHAR 2075
ENCODING 8309
SWIDTH 327 0
DWIDTH 5 0
BBX 4 7 0 3
BITMAP
E0
80
E0
10
10
A0
40
ENDCHAR
STARTCHAR 2076
ENCODING 8310
SWIDTH 327 0
DWIDTH 5 0
BBX 4 6 0 3
BITMAP
40
80
F0
90
A0
40
ENDCHAR
STARTCHAR 2077
ENCODING 8311
SWIDTH 327 0
DWIDTH 5 0
BBX 4 6 0 4
BITMAP
F0
90
20
20
40
40
ENDCHAR
STARTCHAR 2078
ENCODING 8312
SWIDTH 327 0
DWIDTH 5 0
BBX 4 7 0 3
BITMAP
60
90
60
60
90
90
60
ENDCHAR
STARTCHAR 2079
ENCODING 8313
SWIDTH 327 0
DWIDTH 5 0
BBX 4 6 0 4
BITMAP
60
90
90
70
20
40
ENDCHAR
STARTCHAR 207A
ENCODING 8314
SWIDTH 261 0
DWIDTH 4 0
BBX 3 3 0 4
BITMAP
40
E0
40
ENDCHAR
STARTCHAR 207B
ENCODING 8315
SWIDTH 261 0
DWIDTH 4 0
BBX 3 1 0 5
BITMAP
E0
ENDCHAR
STARTCHAR 207C
ENCODING 8316
SWIDTH 261 0
DWIDTH 4 0
BBX 3 2 0 5
BITMAP
E0
E0
ENDCHAR
STARTCHAR 207D
ENCODING 8317
SWIDTH 196 0
DWIDTH 3 0
BBX 2 7 0 3
BITMAP
40
40
80
80
80
40
40
ENDCHAR
STARTCHAR 207E
ENCODING 8318
SWIDTH 196 0
DWIDTH 3 0
BBX 2 7 0 3
BITMAP
80
80
40
40
40
80
80
ENDCHAR
STARTCHAR 207F
ENCODING 8319
SWIDTH 261 0
DWIDTH 4 0
BBX 3 4 0 4
BITMAP
C0
A0
A0
A0
ENDCHAR
STARTCHAR 2080
ENCODING 8320
SWIDTH 327 0
DWIDTH 5 0
BBX 4 6 0 -2
BITMAP
60
90
90
90
90
60
ENDCHAR
STARTCHAR 2081
ENCODING 8321
SWIDTH 261 0
DWIDTH 4 0
BBX 1 6 1 -2
BITMAP
80
80
80
80
80
80
ENDCHAR
STARTCHAR 2082
ENCODING 8322
SWIDTH 327 0
DWIDTH 5 0
BBX 4 6 0 -2
BITMAP
60
90
20
20
40
F0
ENDCHAR
STARTCHAR 2083
ENCODING 8323
SWIDTH 327 0
DWIDTH 5 0
BBX 4 7 0 -3
BITMAP
60
10
20
60
10
A0
40
ENDCHAR
STARTCHAR 2084
ENCODING 8324
SWIDTH 327 0
DWIDTH 5 0
BBX 4 4 0 -1
BITMAP
60
40
A0
70
ENDCHAR
STARTCHAR 2085
ENCODING 8325
SWIDTH 327 0
DWIDTH 5 0
BBX 4 7 0 -3
BITMAP
E0
80
E0
10
20
A0
40
ENDCHAR
STARTCHAR 2086
ENCODING 8326
SWIDTH 327 0
DWIDTH 5 0
BBX 4 6 0 -2
BITMAP
20
40
80
F0
90
60
ENDCHAR
STARTCHAR 2087
ENCODING 8327
SWIDTH 327 0
DWIDTH 5 0
BBX 4 6 0 -2
BITMAP
F0
A0
20
20
40
40
ENDCHAR
STARTCHAR 2088
ENCODING 8328
SWIDTH 327 0
DWIDTH 5 0
BBX 4 6 0 -2
BITMAP
60
90
60
60
90
60
ENDCHAR
STARTCHAR 2089
ENCODING 8329
SWIDTH 327 0
DWIDTH 5 0
BBX 4 6 0 -2
BITMAP
60
90
90
70
20
40
ENDCHAR
STARTCHAR 208A
ENCODING 8330
SWIDTH 392 0
DWIDTH 6 0
BBX 5 5 0 -3
BITMAP
20
20
F8
20
20
ENDCHAR
STARTCHAR 208B
ENCODING 8331
SWIDTH 327 0
DWIDTH 5 0
BBX 4 1 0 0
BITMAP
F0
ENDCHAR
STARTCHAR 208C
ENCODING 8332
SWIDTH 392 0
DWIDTH 6 0
BBX 3 3 1 -1
BITMAP
E0
00
E0
ENDCHAR
STARTCHAR 208D
ENCODING 8333
SWIDTH 196 0
DWIDTH 3 0
BBX 2 8 0 -3
BITMAP
40
80
80
80
80
80
80
40
ENDCHAR
STARTCHAR 208E
ENCODING 8334
SWIDTH 196 0
DWIDTH 3 0
BBX 2 7 0 -3
BITMAP
80
40
40
40
40
40
80
ENDCHAR
STARTCHAR 20AC
ENCODING 8364
SWIDTH 654 0
DWIDTH 10 0
BBX 9 10 0 0
BITMAP
1F00
2180
4000
4000
FE00
4000
FE00
6000
2080
1F00
ENDCHAR
STARTCHAR 20DD
ENCODING 8413
SWIDTH 850 0
DWIDTH 13 0
BBX 12 12 0 -3
BITMAP
1F80
2040
4020
8010
8010
8010
8010
8010
8010
4020
2040
1F80
ENDCHAR
STARTCHAR 2108
ENCODING 8456
SWIDTH 589 0
DWIDTH 9 0
BBX 8 10 0 0
BITMAP
FC
82
01
01
21
3F
21
01
82
FC
ENDCHAR
STARTCHAR 2114
ENCODING 8468
SWIDTH 785 0
DWIDTH 12 0
BBX 11 12 0 -1
BITMAP
2400
6400
FFC0
6400
6400
67C0
6440
6460
6460
6440
6640
0180
ENDCHAR
STARTCHAR 211E
ENCODING 8478
SWIDTH 654 0
DWIDTH 10 0
BBX 9 11 0 -1
BITMAP
FC00
4200
4200
4200
4600
7800
4C00
4680
4300
F300
0400
ENDCHAR
STARTCHAR 211F
ENCODING 8479
SWIDTH 589 0
DWIDTH 9 0
BBX 8 13 0 -2
BITMAP
1C
FC
46
4A
4A
4E
78
5C
56
62
F1
40
40
ENDCHAR
STARTCHAR 2122
ENCODING 8482
SWIDTH 916 0
DWIDTH 14 0
BBX 13 6 0 4
BITMAP
F908
2318
22A8
22A8
2248
2358
ENDCHAR
STARTCHAR 2123
ENCODING 8483
SWIDTH 720 0
DWIDTH 11 0
BBX 10 13 0 -2
BITMAP
0400
F5C0
6500
2900
2A00
3A00
1200
1400
1C00
2800
2800
4000
3000
ENDCHAR
STARTCHAR 2125
ENCODING 8485
SWIDTH 523 0
DWIDTH 8 0
BBX 7 14 0 -4
BITMAP
7C
08
10
20
7C
08
10
38
04
04
06
04
84
78
ENDCHAR
STARTCHAR 2126
ENCODING 8486
SWIDTH 850 0
DWIDTH 13 0
BBX 12 10 0 0
BITMAP
0F00
10C0
2040
6060
6060
6060
2040
2050
9090
F9F0
ENDCHAR
STARTCHAR 2132
ENCODING 8498
SWIDTH 589 0
DWIDTH 9 0
BBX 8 10 0 0
BITMAP
0F
06
06
06
26
2E
06
06
86
7F
ENDCHAR
STARTCHAR 214E
ENCODING 8526
SWIDTH 458 0
DWIDTH 7 0
BBX 6 7 0 0
BITMAP
1C
08
48
78
08
88
F8
ENDCHAR
STARTCHAR 2153
ENCODING 8531
SWIDTH 589 0
DWIDTH 9 0
BBX 8 11 0 -1
BITMAP
86
84
88
90
97
A1
42
41
81
05
02
ENDCHAR
STARTCHAR 2154
ENCODING 8532
SWIDTH 720 0
DWIDTH 11 0
BBX 10 11 0 -1
BITMAP
6080
9100
1200
2200
45C0
F840
0880
1040
2040
2140
0080
ENDCHAR
STARTCHAR 2155
ENCODING 8533
SWIDTH 589 0
DWIDTH 9 0
BBX 8 11 0 -1
BITMAP
86
84
88
88
97
A4
27
41
81
85
02
ENDCHAR
STARTCHAR 2156
ENCODING 8534
SWIDTH 720 0
DWIDTH 11 0
BBX 10 11 0 -1
BITMAP
6180
9100
1200
2200
45C0
F900
09C0
1040
2040
2140
0080
ENDCHAR
STARTCHAR 2157
ENCODING 8535
SWIDTH 720 0
DWIDTH 11 0
BBX 10 11 0 -1
BITMAP
E180
2100
6200
2200
15C0
A900
49C0
1040
2040
2140
0080
ENDCHAR
STARTCHAR 2158
ENCODING 8536
SWIDTH 720 0
DWIDTH 11 0
BBX 10 11 0 -1
BITMAP
0180
2100
4200
A200
F5C0
2900
09C0
1040
2040
2140
0080
ENDCHAR
STARTCHAR 2159
ENCODING 8537
SWIDTH 589 0
DWIDTH 9 0
BBX 8 11 0 -1
BITMAP
86
84
88
88
90
A2
24
47
85
85
02
ENDCHAR
STARTCHAR 215A
ENCODING 8538
SWIDTH 720 0
DWIDTH 11 0
BBX 10 11 0 -1
BITMAP
E180
8100
E200
1200
1400
A880
4900
11C0
2140
2140
0080
ENDCHAR
STARTCHAR 215B
ENCODING 8539
SWIDTH 589 0
DWIDTH 9 0
BBX 8 11 0 -1
BITMAP
86
84
88
88
97
A5
22
45
85
85
02
ENDCHAR
STARTCHAR 215C
ENCODING 8540
SWIDTH 720 0
DWIDTH 11 0
BBX 10 11 0 -1
BITMAP
E180
2100
6200
2200
15C0
A940
4880
1140
2140
2140
0080
ENDCHAR
STARTCHAR 215D
ENCODING 8541
SWIDTH 720 0
DWIDTH 11 0
BBX 10 11 0 -1
BITMAP
E180
8100
E200
1200
15C0
A940
4880
1140
2140
2140
0080
ENDCHAR
STARTCHAR 215E
ENCODING 8542
SWIDTH 720 0
DWIDTH 11 0
BBX 10 11 0 -1
BITMAP
F180
9100
2200
2200
45C0
4940
0880
1140
2140
2140
0080
ENDCHAR
STARTCHAR 215F
ENCODING 8543
SWIDTH 523 0
DWIDTH 8 0
BBX 7 10 0 0
BITMAP
86
84
88
88
90
A0
20
40
80
80
ENDCHAR
STARTCHAR 2160
ENCODING 8544
SWIDTH 261 0
DWIDTH 4 0
BBX 3 10 0 0
BITMAP
E0
40
40
40
40
40
40
40
40
E0
ENDCHAR
STARTCHAR 2161
ENCODING 8545
SWIDTH 589 0
DWIDTH 9 0
BBX 8 10 0 0
BITMAP
FF
42
42
42
42
42
42
42
42
FF
ENDCHAR
STARTCHAR 2162
ENCODING 8546
SWIDTH 785 0
DWIDTH 12 0
BBX 11 10 0 0
BITMAP
FFE0
4440
4440
4440
4440
4440
4440
4440
4440
FFE0
ENDCHAR
STARTCHAR 2163
ENCODING 8547
SWIDTH 916 0
DWIDTH 14 0
BBX 13 10 0 0
BITMAP
FE38
4420
4420
4620
4240
4240
4380
4180
4180
E100
ENDCHAR
STARTCHAR 2164
ENCODING 8548
SWIDTH 720 0
DWIDTH 11 0
BBX 10 10 0 0
BITMAP
F1C0
6100
2100
2200
3200
1200
1400
1C00
0800
0800
ENDCHAR
STARTCHAR 2165
ENCODING 8549
SWIDTH 916 0
DWIDTH 14 0
BBX 13 10 0 0
BITMAP
F1F8
6110
2110
2210
3210
1210
1410
1C10
0810
0878
ENDCHAR
STARTCHAR 2166
ENCODING 8550
SWIDTH 1243 0
DWIDTH 19 0
BBX 18 10 0 0
BITMAP
F1FFC0
611100
211100
221100
321100
121100
141100
1C1100
081100
087FC0
ENDCHAR
STARTCHAR 2167
ENCODING 8551
SWIDTH 1440 0
DWIDTH 22 0
BBX 21 10 0 0
BITMAP
F1FFF8
611110
211110
221110
321110
121110
141110
1C1110
081110
087FF8
ENDCHAR
STARTCHAR 2168
ENCODING 8552
SWIDTH 916 0
DWIDTH 14 0
BBX 13 10 0 0
BITMAP
FF38
4620
4240
4180
4180
4180
4240
4460
4420
FC78
ENDCHAR
STARTCHAR 2169
ENCODING 8553
SWIDTH 720 0
DWIDTH 11 0
BBX 10 10 0 0
BITMAP
F1C0
2100
1200
1C00
0800
0C00
1600
2200
4100
E3C0
ENDCHAR
STARTCHAR 216A
ENCODING 8554
SWIDTH 981 0
DWIDTH 15 0
BBX 14 10 0 0
BITMAP
F1FC
2110
1210
1C10
0810
0C10
1610
2210
4110
E3FC
ENDCHAR
STARTCHAR 216B
ENCODING 8555
SWIDTH 1243 0
DWIDTH 19 0
BBX 18 10 0 0
BITMAP
F1FFC0
211080
121080
1C1080
081080
0C1080
161080
221080
411080
E3FFC0
ENDCHAR
STARTCHAR 216C
ENCODING 8556
SWIDTH 589 0
DWIDTH 9 0
BBX 8 10 0 0
BITMAP
F0
40
40
40
40
40
40
40
41
FF
ENDCHAR
STARTCHAR 216D
ENCODING 8557
SWIDTH 589 0
DWIDTH 9 0
BBX 8 11 0 -1
BITMAP
3F
41
C0
80
80
80
80
C0
40
33
0C
ENDCHAR
STARTCHAR 216E
ENCODING 8558
SWIDTH 654 0
DWIDTH 10 0
BBX 9 11 0 -1
BITMAP
FE00
4100
4180
4080
4080
4080
4080
4080
4100
E600
1800
ENDCHAR
STARTCHAR 216F
ENCODING 8559
SWIDTH 850 0
DWIDTH 13 0
BBX 12 10 0 0
BITMAP
C030
6060
6060
70E0
5160
9160
8A60
8A60
8460
C4F0
ENDCHAR
STARTCHAR 2170
ENCODING 8560
SWIDTH 196 0
DWIDTH 3 0
BBX 2 9 0 0
BITMAP
C0
00
00
C0
C0
C0
C0
C0
C0
ENDCHAR
STARTCHAR 2171
ENCODING 8561
SWIDTH 458 0
DWIDTH 7 0
BBX 6 9 0 0
BITMAP
CC
00
00
CC
CC
CC
CC
CC
CC
ENDCHAR
STARTCHAR 2172
ENCODING 8562
SWIDTH 720 0
DWIDTH 11 0
BBX 10 9 0 0
BITMAP
CCC0
0000
0000
CCC0
CCC0
CCC0
CCC0
CCC0
CCC0
ENDCHAR
STARTCHAR 2173
ENCODING 8563
SWIDTH 589 0
DWIDTH 9 0
BBX 8 9 0 0
BITMAP
C0
00
00
C9
C9
C5
C6
C6
C2
ENDCHAR
STARTCHAR 2174
ENCODING 8564
SWIDTH 327 0
DWIDTH 5 0
BBX 4 6 0 0
BITMAP
90
90
50
60
60
20
ENDCHAR
STARTCHAR 2175
ENCODING 8565
SWIDTH 589 0
DWIDTH 9 0
BBX 8 9 0 0
BITMAP
03
00
00
93
93
53
63
63
23
ENDCHAR
STARTCHAR 2176
ENCODING 8566
SWIDTH 850 0
DWIDTH 13 0
BBX 12 9 0 0
BITMAP
0330
0000
0000
9330
9330
5330
6330
6330
2330
ENDCHAR
STARTCHAR 2177
ENCODING 8567
SWIDTH 1112 0
DWIDTH 17 0
BBX 16 9 0 0
BITMAP
0333
0000
0000
9333
9333
5333
6333
6333
2333
ENDCHAR
STARTCHAR 2178
ENCODING 8568
SWIDTH 654 0
DWIDTH 10 0
BBX 9 9 0 0
BITMAP
C000
0000
0000
CC80
C500
C200
C300
CD00
C880
ENDCHAR
STARTCHAR 2179
ENCODING 8569
SWIDTH 392 0
DWIDTH 6 0
BBX 5 6 0 0
BITMAP
C8
50
20
30
D0
88
ENDCHAR
STARTCHAR 217A
ENCODING 8570
SWIDTH 654 0
DWIDTH 10 0
BBX 9 9 0 0
BITMAP
0180
0000
0000
C980
5180
2180
3180
D180
8980
ENDCHAR
STARTCHAR 217B
ENCODING 8571
SWIDTH 916 0
DWIDTH 14 0
BBX 13 9 0 0
BITMAP
0198
0000
0000
C998
5198
2198
3198
D198
8998
ENDCHAR
STARTCHAR 217C
ENCODING 8572
SWIDTH 196 0
DWIDTH 3 0
BBX 2 11 0 0
BITMAP
40
C0
C0
C0
C0
C0
C0
C0
C0
C0
C0
ENDCHAR
STARTCHAR 217D
ENCODING 8573
SWIDTH 261 0
DWIDTH 4 0
BBX 4 6 0 0
BITMAP
70
80
80
80
80
70
ENDCHAR
STARTCHAR 217E
ENCODING 8574
SWIDTH 458 0
DWIDTH 7 0
BBX 6 10 0 0
BITMAP
08
08
08
08
78
88
88
88
88
FC
ENDCHAR
STARTCHAR 217F
ENCODING 8575
SWIDTH 720 0
DWIDTH 11 0
BBX 10 6 0 0
BITMAP
FF80
CCC0
CCC0
CCC0
CCC0
CCC0
ENDCHAR
STARTCHAR 2180
ENCODING 8576
SWIDTH 1047 0
DWIDTH 16 0
BBX 15 11 0 -1
BITMAP
3FF8
6104
C106
8102
8102
8102
8102
C106
4104
3398
0C60
ENDCHAR
STARTCHAR 2181
ENCODING 8577
SWIDTH 654 0
DWIDTH 10 0
BBX 9 11 0 -1
BITMAP
FE00
4100
7180
4880
4880
4880
4880
5980
6100
E600
1800
ENDCHAR
STARTCHAR 2182
ENCODING 8578
SWIDTH 1047 0
DWIDTH 16 0
BBX 15 11 0 -1
BITMAP
3FF8
6104
C7C6
8922
8922
8922
8922
C546
4384
3398
0C60
ENDCHAR
STARTCHAR 2183
ENCODING 8579
SWIDTH 720 0
DWIDTH 11 0
BBX 10 11 0 -1
BITMAP
7E00
4100
8080
0080
0080
00C0
0080
0080
4100
6600
1800
ENDCHAR
STARTCHAR 2184
ENCODING 8580
SWIDTH 392 0
DWIDTH 6 0
BBX 5 6 0 0
BITMAP
F0
10
08
18
10
F0
ENDCHAR
STARTCHAR 2202
ENCODING 8706
SWIDTH 458 0
DWIDTH 7 0
BBX 6 10 0 0
BITMAP
38
44
04
04
3C
44
84
88
88
70
ENDCHAR
STARTCHAR 2206
ENCODING 8710
SWIDTH 523 0
DWIDTH 8 0
BBX 7 10 0 0
BITMAP
10
10
28
28
28
44
44
44
82
FE
ENDCHAR
STARTCHAR 220F
ENCODING 8719
SWIDTH 654 0
DWIDTH 10 0
BBX 9 10 0 0
BITMAP
FF80
4100
4100
4100
4100
4100
4100
4100
4100
E380
ENDCHAR
STARTCHAR 2211
ENCODING 8721
SWIDTH 523 0
DWIDTH 8 0
BBX 7 10 0 0
BITMAP
FE
82
40
20
10
10
20
40
82
FE
ENDCHAR
STARTCHAR 2212
ENCODING 8722
SWIDTH 523 0
DWIDTH 8 0
BBX 7 1 0 3
BITMAP
FE
ENDCHAR
STARTCHAR 221A
ENCODING 8730
SWIDTH 523 0
DWIDTH 8 0
BBX 7 13 0 -1
BITMAP
0E
08
08
08
08
08
E8
28
28
18
18
08
08
ENDCHAR
STARTCHAR 221E
ENCODING 8734
SWIDTH 523 0
DWIDTH 8 0
BBX 7 4 0 1
BITMAP
6C
92
92
6C
ENDCHAR
STARTCHAR 222B
ENCODING 8747
SWIDTH 392 0
DWIDTH 6 0
BBX 5 15 0 -4
BITMAP
18
28
20
20
20
20
20
20
20
20
20
20
20
A0
C0
ENDCHAR
STARTCHAR 2234
ENCODING 8756
SWIDTH 589 0
DWIDTH 9 0
BBX 8 7 0 0
BITMAP
18
18
00
00
00
C3
C3
ENDCHAR
STARTCHAR 2235
ENCODING 8757
SWIDTH 589 0
DWIDTH 9 0
BBX 8 8 0 0
BITMAP
C3
C3
00
00
00
00
18
18
ENDCHAR
STARTCHAR 2237
ENCODING 8759
SWIDTH 589 0
DWIDTH 9 0
BBX 8 7 0 0
BITMAP
C3
C3
00
00
00
C3
C3
ENDCHAR
STARTCHAR 223B
ENCODING 8763
SWIDTH 589 0
DWIDTH 9 0
BBX 8 8 0 0
BITMAP
18
18
00
71
8E
00
18
18
ENDCHAR
STARTCHAR 2248
ENCODING 8776
SWIDTH 458 0
DWIDTH 7 0
BBX 6 5 0 0
BITMAP
64
98
00
64
98
ENDCHAR
STARTCHAR 2260
ENCODING 8800
SWIDTH 458 0
DWIDTH 7 0
BBX 6 7 0 0
BITMAP
08
10
FC
20
FC
40
80
ENDCHAR
STARTCHAR 2264
ENCODING 8804
SWIDTH 458 0
DWIDTH 7 0
BBX 6 7 0 0
BITMAP
0C
30
C0
30
0C
00
FC
ENDCHAR
STARTCHAR 2265
ENCODING 8805
SWIDTH 458 0
DWIDTH 7 0
BBX 6 7 0 0
BITMAP
C0
30
0C
30
C0
00
FC
ENDCHAR
STARTCHAR 22D7
ENCODING 8919
SWIDTH 392 0
DWIDTH 6 0
BBX 5 9 0 0
BITMAP
80
40
20
10
88
10
20
40
80
ENDCHAR
STARTCHAR 2329
ENCODING 9001
SWIDTH 327 0
DWIDTH 5 0
BBX 4 13 0 -2
BITMAP
10
10
20
20
40
40
80
40
40
20
20
10
10
ENDCHAR
STARTCHAR 232A
ENCODING 9002
SWIDTH 327 0
DWIDTH 5 0
BBX 4 13 0 -2
BITMAP
80
80
40
40
20
20
10
20
20
40
40
80
80
ENDCHAR
STARTCHAR 2460
ENCODING 9312
SWIDTH 1047 0
DWIDTH 16 0
BBX 15 15 0 -5
BITMAP
07C0
1830
2008
4104
4304
8502
8102
8102
8102
8102
4104
47C4
2008
1830
07C0
ENDCHAR
STARTCHAR 2461
ENCODING 9313
SWIDTH 1047 0
DWIDTH 16 0
BBX 15 15 0 -5
BITMAP
07C0
1830
2008
47C4
4824
8022
8022
80C2
8302
8402
4824
4FE4
2008
1830
07C0
ENDCHAR
STARTCHAR 2462
ENCODING 9314
SWIDTH 1047 0
DWIDTH 16 0
BBX 15 15 0 -5
BITMAP
07C0
1830
2008
47C4
4824
8022
8022
80C2
8022
8022
4824
47C4
2008
1830
07C0
ENDCHAR
STARTCHAR 2463
ENCODING 9315
SWIDTH 1047 0
DWIDTH 16 0
BBX 15 15 0 -5
BITMAP
07C0
1830
2008
4044
40C4
8142
8242
8442
8842
9FF2
4044
41F4
2008
1830
07C0
ENDCHAR
STARTCHAR 2464
ENCODING 9316
SWIDTH 1047 0
DWIDTH 16 0
BBX 15 15 0 -5
BITMAP
07C0
1830
2008
4FE4
4804
8802
8FC2
8022
8022
8022
4824
47C4
2008
1830
07C0
ENDCHAR
STARTCHAR 2465
ENCODING 9317
SWIDTH 1047 0
DWIDTH 16 0
BBX 15 15 0 -5
BITMAP
07C0
1830
2008
47C4
4824
8802
8802
8FC2
8822
8822
4824
47C4
2008
1830
07C0
ENDCHAR
STARTCHAR 2466
ENCODING 9318
SWIDTH 1047 0
DWIDTH 16 0
BBX 15 15 0 -5
BITMAP
07C0
1830
2008
4FE4
4824
8042
8042
8082
8102
8102
4204
4204
2008
1830
07C0
ENDCHAR
STARTCHAR 2467
ENCODING 9319
SWIDTH 1047 0
DWIDTH 16 0
BBX 15 15 0 -5
BITMAP
07C0
1830
2008
47C4
4824
8822
8822
87C2
8822
8822
4824
47C4
2008
1830
07C0
ENDCHAR
STARTCHAR 2468
ENCODING 9320
SWIDTH 1047 0
DWIDTH 16 0
BBX 15 15 0 -5
BITMAP
07C0
1830
2008
47C4
4824
8822
8822
87E2
8022
8022
4824
47C4
2008
1830
07C0
ENDCHAR
STARTCHAR 2469
ENCODING 9321
SWIDTH 1047 0
DWIDTH 16 0
BBX 15 15 0 -5
BITMAP
07C0
1830
2008
48E4
5914
8912
8912
8912
8912
8912
4914
5CE4
2008
1830
07C0
ENDCHAR
STARTCHAR 246A
ENCODING 9322
SWIDTH 981 0
DWIDTH 15 0
BBX 14 14 0 -4
BITMAP
1FE0
2010
4848
98C4
8844
8844
8844
8844
8844
8844
9CE4
4008
2010
1FE0
ENDCHAR
STARTCHAR 246B
ENCODING 9323
SWIDTH 981 0
DWIDTH 15 0
BBX 14 14 0 -4
BITMAP
1FE0
2010
49C8
9A24
8A24
8824
88C4
8904
8A04
8A14
9FE4
4008
2010
1FE0
ENDCHAR
STARTCHAR 246C
ENCODING 9324
SWIDTH 981 0
DWIDTH 15 0
BBX 14 14 0 -4
BITMAP
1FE0
2010
49C8
9A24
8824
8824
88C4
8824
8A24
8A24
9DC4
4008
2010
1FE0
ENDCHAR
STARTCHAR 246D
ENCODING 9325
SWIDTH 981 0
DWIDTH 15 0
BBX 14 14 0 -4
BITMAP
1FE0
2010
4848
98C4
88C4
8944
8944
8A44
8FF4
8844
9CE4
4008
2010
1FE0
ENDCHAR
ENDFONT
